<?xml version="1.0" encoding="UTF-8" standalone="no"?>
<!DOCTYPE svg PUBLIC "-//W3C//DTD SVG 1.1//EN"
 "http://www.w3.org/Graphics/SVG/1.1/DTD/svg11.dtd">
<!-- Generated by graphviz version 2.43.0 (0)
 -->
<!-- Title: %3 Pages: 1 -->
<svg width="2681pt" height="859pt"
 viewBox="0.00 0.00 2680.92 859.00" xmlns="http://www.w3.org/2000/svg" xmlns:xlink="http://www.w3.org/1999/xlink">
<g id="graph0" class="graph" transform="scale(1 1) rotate(0) translate(4 855)">
<title>%3</title>
<polygon fill="white" stroke="transparent" points="-4,4 -4,-855 2676.92,-855 2676.92,4 -4,4"/>
<!-- MTDT -->
<g id="node1" class="node">
<title>MTDT</title>
<ellipse fill="#9bcd9b" stroke="black" cx="58.69" cy="-369" rx="58.88" ry="58.88"/>
<text text-anchor="middle" x="58.69" y="-372.8" font-family="Times,serif" font-size="14.00">MTDT</text>
<text text-anchor="middle" x="58.69" y="-357.8" font-family="Times,serif" font-size="14.00">Concepts</text>
</g>
<!-- SelectedCompositionFwrk -->
<g id="node2" class="node">
<title>SelectedCompositionFwrk</title>
<path fill="green" stroke="black" d="M2237.15,-694.73C2237.15,-696.53 2179.33,-698 2108.15,-698 2036.97,-698 1979.15,-696.53 1979.15,-694.73 1979.15,-694.73 1979.15,-665.27 1979.15,-665.27 1979.15,-663.47 2036.97,-662 2108.15,-662 2179.33,-662 2237.15,-663.47 2237.15,-665.27 2237.15,-665.27 2237.15,-694.73 2237.15,-694.73"/>
<path fill="none" stroke="black" d="M2237.15,-694.73C2237.15,-692.92 2179.33,-691.45 2108.15,-691.45 2036.97,-691.45 1979.15,-692.92 1979.15,-694.73"/>
<text text-anchor="middle" x="2108.15" y="-676.3" font-family="Times,serif" font-size="14.00">Selected Composition Framework</text>
</g>
<!-- MTDT&#45;&gt;SelectedCompositionFwrk -->
<g id="edge1" class="edge">
<title>MTDT&#45;&gt;SelectedCompositionFwrk</title>
<path fill="none" stroke="black" d="M67.53,-427.11C76.64,-475.07 95.83,-542.43 135.38,-588 201.1,-663.74 235.84,-691 336.12,-691 336.12,-691 336.12,-691 1815.11,-691 1865.2,-691 1920.09,-689.36 1968.63,-687.35"/>
<polygon fill="black" stroke="black" points="1969.05,-690.84 1978.89,-686.92 1968.75,-683.85 1969.05,-690.84"/>
<text text-anchor="middle" x="1162.66" y="-694.8" font-family="Times,serif" font-size="14.00">Abstraction</text>
</g>
<!-- MailingFile -->
<g id="node3" class="node">
<title>MailingFile</title>
<path fill="darksalmon" stroke="black" d="M748.65,-224.73C748.65,-226.53 726.69,-228 699.65,-228 672.61,-228 650.65,-226.53 650.65,-224.73 650.65,-224.73 650.65,-195.27 650.65,-195.27 650.65,-193.47 672.61,-192 699.65,-192 726.69,-192 748.65,-193.47 748.65,-195.27 748.65,-195.27 748.65,-224.73 748.65,-224.73"/>
<path fill="none" stroke="black" d="M748.65,-224.73C748.65,-222.92 726.69,-221.45 699.65,-221.45 672.61,-221.45 650.65,-222.92 650.65,-224.73"/>
<text text-anchor="middle" x="699.65" y="-206.3" font-family="Times,serif" font-size="14.00">MailingFile</text>
</g>
<!-- MTDT&#45;&gt;MailingFile -->
<g id="edge2" class="edge">
<title>MTDT&#45;&gt;MailingFile</title>
<path fill="none" stroke="black" d="M95.05,-322.62C127.07,-285.2 178.07,-236.08 236.38,-219 376.61,-177.91 551.16,-190.71 640.31,-201.53"/>
<polygon fill="black" stroke="black" points="640.13,-205.04 650.49,-202.8 641,-198.09 640.13,-205.04"/>
<text text-anchor="middle" x="337.12" y="-222.8" font-family="Times,serif" font-size="14.00">Abstraction</text>
</g>
<!-- Interactive -->
<g id="node4" class="node">
<title>Interactive</title>
<path fill="darksalmon" stroke="black" d="M1632.83,-424.73C1632.83,-426.53 1592.05,-428 1541.83,-428 1491.62,-428 1450.83,-426.53 1450.83,-424.73 1450.83,-424.73 1450.83,-395.27 1450.83,-395.27 1450.83,-393.47 1491.62,-392 1541.83,-392 1592.05,-392 1632.83,-393.47 1632.83,-395.27 1632.83,-395.27 1632.83,-424.73 1632.83,-424.73"/>
<path fill="none" stroke="black" d="M1632.83,-424.73C1632.83,-422.92 1592.05,-421.45 1541.83,-421.45 1491.62,-421.45 1450.83,-422.92 1450.83,-424.73"/>
<text text-anchor="middle" x="1541.83" y="-406.3" font-family="Times,serif" font-size="14.00">Interactive Invokations</text>
</g>
<!-- MTDT&#45;&gt;Interactive -->
<g id="edge3" class="edge">
<title>MTDT&#45;&gt;Interactive</title>
<path fill="none" stroke="black" d="M115.68,-384.16C122.29,-385.62 128.96,-386.95 135.38,-388 179.82,-395.28 191.4,-393.98 236.38,-396 685.16,-416.16 1221.6,-413.48 1440.45,-411.26"/>
<polygon fill="black" stroke="black" points="1440.67,-414.75 1450.63,-411.15 1440.59,-407.75 1440.67,-414.75"/>
<text text-anchor="middle" x="699.65" y="-413.8" font-family="Times,serif" font-size="14.00">Abstraction</text>
</g>
<!-- SendExtent -->
<g id="node5" class="node">
<title>SendExtent</title>
<path fill="green" stroke="black" d="M389.62,-606.73C389.62,-608.53 366.09,-610 337.12,-610 308.15,-610 284.62,-608.53 284.62,-606.73 284.62,-606.73 284.62,-577.27 284.62,-577.27 284.62,-575.47 308.15,-574 337.12,-574 366.09,-574 389.62,-575.47 389.62,-577.27 389.62,-577.27 389.62,-606.73 389.62,-606.73"/>
<path fill="none" stroke="black" d="M389.62,-606.73C389.62,-604.92 366.09,-603.45 337.12,-603.45 308.15,-603.45 284.62,-604.92 284.62,-606.73"/>
<text text-anchor="middle" x="337.12" y="-588.3" font-family="Times,serif" font-size="14.00">Send Extent</text>
</g>
<!-- MTDT&#45;&gt;SendExtent -->
<g id="edge4" class="edge">
<title>MTDT&#45;&gt;SendExtent</title>
<path fill="none" stroke="black" d="M74.75,-425.67C86.3,-459.07 105.45,-499.77 135.38,-526 174.29,-560.1 231.24,-576.66 274.55,-584.65"/>
<polygon fill="black" stroke="black" points="273.96,-588.1 284.41,-586.37 275.16,-581.21 273.96,-588.1"/>
<text text-anchor="middle" x="176.88" y="-572.8" font-family="Times,serif" font-size="14.00">Abstraction</text>
</g>
<!-- OorR -->
<g id="node6" class="node">
<title>OorR</title>
<path fill="darksalmon" stroke="black" d="M412.12,-275.73C412.12,-277.53 378.5,-279 337.12,-279 295.74,-279 262.12,-277.53 262.12,-275.73 262.12,-275.73 262.12,-246.27 262.12,-246.27 262.12,-244.47 295.74,-243 337.12,-243 378.5,-243 412.12,-244.47 412.12,-246.27 412.12,-246.27 412.12,-275.73 412.12,-275.73"/>
<path fill="none" stroke="black" d="M412.12,-275.73C412.12,-273.92 378.5,-272.45 337.12,-272.45 295.74,-272.45 262.12,-273.92 262.12,-275.73"/>
<text text-anchor="middle" x="337.12" y="-257.3" font-family="Times,serif" font-size="14.00">Orig Or Recipients</text>
</g>
<!-- MTDT&#45;&gt;OorR -->
<g id="edge5" class="edge">
<title>MTDT&#45;&gt;OorR</title>
<path fill="none" stroke="black" d="M104.91,-332.83C114.58,-326.23 125.02,-319.89 135.38,-315 171.92,-297.74 214.9,-285.25 251.7,-276.66"/>
<polygon fill="black" stroke="black" points="252.92,-279.97 261.9,-274.34 251.37,-273.14 252.92,-279.97"/>
<text text-anchor="middle" x="176.88" y="-318.8" font-family="Times,serif" font-size="14.00">Abstraction</text>
</g>
<!-- AddressBook -->
<g id="node7" class="node">
<title>AddressBook</title>
<path fill="darksalmon" stroke="black" d="M569.86,-521.73C569.86,-523.53 544.31,-525 512.86,-525 481.41,-525 455.86,-523.53 455.86,-521.73 455.86,-521.73 455.86,-492.27 455.86,-492.27 455.86,-490.47 481.41,-489 512.86,-489 544.31,-489 569.86,-490.47 569.86,-492.27 569.86,-492.27 569.86,-521.73 569.86,-521.73"/>
<path fill="none" stroke="black" d="M569.86,-521.73C569.86,-519.92 544.31,-518.45 512.86,-518.45 481.41,-518.45 455.86,-519.92 455.86,-521.73"/>
<text text-anchor="middle" x="512.86" y="-503.3" font-family="Times,serif" font-size="14.00">Address Book</text>
</g>
<!-- MTDT&#45;&gt;AddressBook -->
<g id="edge6" class="edge">
<title>MTDT&#45;&gt;AddressBook</title>
<path fill="none" stroke="black" d="M87.18,-420.37C99.54,-438.78 115.79,-457.93 135.38,-470 230.51,-528.59 365.45,-525.65 445.29,-517.08"/>
<polygon fill="black" stroke="black" points="446.16,-520.51 455.7,-515.9 445.37,-513.55 446.16,-520.51"/>
<text text-anchor="middle" x="176.88" y="-507.8" font-family="Times,serif" font-size="14.00">Abstraction</text>
</g>
<!-- Names -->
<g id="node8" class="node">
<title>Names</title>
<path fill="darksalmon" stroke="black" d="M370.12,-475.73C370.12,-477.53 355.33,-479 337.12,-479 318.91,-479 304.12,-477.53 304.12,-475.73 304.12,-475.73 304.12,-446.27 304.12,-446.27 304.12,-444.47 318.91,-443 337.12,-443 355.33,-443 370.12,-444.47 370.12,-446.27 370.12,-446.27 370.12,-475.73 370.12,-475.73"/>
<path fill="none" stroke="black" d="M370.12,-475.73C370.12,-473.92 355.33,-472.45 337.12,-472.45 318.91,-472.45 304.12,-473.92 304.12,-475.73"/>
<text text-anchor="middle" x="337.12" y="-457.3" font-family="Times,serif" font-size="14.00">Names</text>
</g>
<!-- MTDT&#45;&gt;Names -->
<g id="edge7" class="edge">
<title>MTDT&#45;&gt;Names</title>
<path fill="none" stroke="black" d="M102.02,-408.67C112.3,-416.5 123.71,-423.87 135.38,-429 186.76,-451.59 251.76,-458.46 293.64,-460.43"/>
<polygon fill="black" stroke="black" points="293.64,-463.93 303.77,-460.83 293.92,-456.93 293.64,-463.93"/>
<text text-anchor="middle" x="176.88" y="-454.8" font-family="Times,serif" font-size="14.00">Abstraction</text>
</g>
<!-- Distributions -->
<g id="node9" class="node">
<title>Distributions</title>
<path fill="darksalmon" stroke="black" d="M392.12,-383.73C392.12,-385.53 367.47,-387 337.12,-387 306.77,-387 282.12,-385.53 282.12,-383.73 282.12,-383.73 282.12,-354.27 282.12,-354.27 282.12,-352.47 306.77,-351 337.12,-351 367.47,-351 392.12,-352.47 392.12,-354.27 392.12,-354.27 392.12,-383.73 392.12,-383.73"/>
<path fill="none" stroke="black" d="M392.12,-383.73C392.12,-381.92 367.47,-380.45 337.12,-380.45 306.77,-380.45 282.12,-381.92 282.12,-383.73"/>
<text text-anchor="middle" x="337.12" y="-365.3" font-family="Times,serif" font-size="14.00">Distributions</text>
</g>
<!-- MTDT&#45;&gt;Distributions -->
<g id="edge8" class="edge">
<title>MTDT&#45;&gt;Distributions</title>
<path fill="none" stroke="black" d="M117.64,-369C162.68,-369 225.12,-369 271.72,-369"/>
<polygon fill="black" stroke="black" points="272,-372.5 282,-369 272,-365.5 272,-372.5"/>
<text text-anchor="middle" x="176.88" y="-372.8" font-family="Times,serif" font-size="14.00">Abstraction</text>
</g>
<!-- Tracking -->
<g id="node10" class="node">
<title>Tracking</title>
<path fill="darksalmon" stroke="black" d="M376.62,-329.73C376.62,-331.53 358.92,-333 337.12,-333 315.33,-333 297.62,-331.53 297.62,-329.73 297.62,-329.73 297.62,-300.27 297.62,-300.27 297.62,-298.47 315.33,-297 337.12,-297 358.92,-297 376.62,-298.47 376.62,-300.27 376.62,-300.27 376.62,-329.73 376.62,-329.73"/>
<path fill="none" stroke="black" d="M376.62,-329.73C376.62,-327.92 358.92,-326.45 337.12,-326.45 315.33,-326.45 297.62,-327.92 297.62,-329.73"/>
<text text-anchor="middle" x="337.12" y="-311.3" font-family="Times,serif" font-size="14.00">Tracking</text>
</g>
<!-- MTDT&#45;&gt;Tracking -->
<g id="edge9" class="edge">
<title>MTDT&#45;&gt;Tracking</title>
<path fill="none" stroke="black" d="M115.8,-354.43C122.38,-352.86 129.02,-351.35 135.38,-350 187.06,-339.02 246.76,-328.94 287.53,-322.45"/>
<polygon fill="black" stroke="black" points="288.15,-325.89 297.48,-320.88 287.05,-318.98 288.15,-325.89"/>
<text text-anchor="middle" x="176.88" y="-353.8" font-family="Times,serif" font-size="14.00">Abstraction</text>
</g>
<!-- CompositionModel -->
<g id="node23" class="node">
<title>CompositionModel</title>
<ellipse fill="green" stroke="black" cx="337.12" cy="-129" rx="100.98" ry="18"/>
<text text-anchor="middle" x="337.12" y="-125.3" font-family="Times,serif" font-size="14.00">Composition Model</text>
</g>
<!-- MTDT&#45;&gt;CompositionModel -->
<g id="edge10" class="edge">
<title>MTDT&#45;&gt;CompositionModel</title>
<path fill="none" stroke="black" d="M68.82,-310.86C78.39,-268.97 97.58,-214.21 135.38,-181 162.15,-157.48 198.23,-144.38 232.42,-137.15"/>
<polygon fill="black" stroke="black" points="233.34,-140.54 242.47,-135.18 231.99,-133.67 233.34,-140.54"/>
<text text-anchor="middle" x="176.88" y="-184.8" font-family="Times,serif" font-size="14.00">Abstraction</text>
</g>
<!-- ContentCustomization -->
<g id="node26" class="node">
<title>ContentCustomization</title>
<ellipse fill="green" stroke="black" cx="947.08" cy="-18" rx="117.78" ry="18"/>
<text text-anchor="middle" x="947.08" y="-14.3" font-family="Times,serif" font-size="14.00">Content Customization</text>
</g>
<!-- MTDT&#45;&gt;ContentCustomization -->
<g id="edge11" class="edge">
<title>MTDT&#45;&gt;ContentCustomization</title>
<path fill="none" stroke="black" d="M66.15,-310.69C74.48,-259.92 93.3,-186.97 135.38,-138 168.16,-99.86 188.89,-103.53 236.38,-87 433.76,-18.31 679.45,-10.21 823.9,-12.66"/>
<polygon fill="black" stroke="black" points="824.06,-16.16 834.12,-12.85 824.19,-9.16 824.06,-16.16"/>
<text text-anchor="middle" x="337.12" y="-90.8" font-family="Times,serif" font-size="14.00">Abstraction</text>
</g>
<!-- PlainText -->
<g id="node11" class="node">
<title>PlainText</title>
<ellipse fill="green" stroke="black" cx="2404.54" cy="-833" rx="53.89" ry="18"/>
<text text-anchor="middle" x="2404.54" y="-829.3" font-family="Times,serif" font-size="14.00">PlainText</text>
</g>
<!-- SelectedCompositionFwrk&#45;&gt;PlainText -->
<g id="edge12" class="edge">
<title>SelectedCompositionFwrk&#45;&gt;PlainText</title>
<path fill="none" stroke="black" d="M2134.16,-698.05C2171.99,-724.69 2246.72,-774.73 2316.15,-806 2327.24,-810.99 2339.51,-815.41 2351.26,-819.16"/>
<polygon fill="black" stroke="black" points="2350.39,-822.55 2360.98,-822.14 2352.45,-815.86 2350.39,-822.55"/>
<text text-anchor="middle" x="2276.65" y="-797.8" font-family="Times,serif" font-size="14.00">Enum</text>
</g>
<!-- OrgMsg -->
<g id="node12" class="node">
<title>OrgMsg</title>
<ellipse fill="green" stroke="black" cx="2404.54" cy="-779" rx="48.19" ry="18"/>
<text text-anchor="middle" x="2404.54" y="-775.3" font-family="Times,serif" font-size="14.00">OrgMsg</text>
</g>
<!-- SelectedCompositionFwrk&#45;&gt;OrgMsg -->
<g id="edge13" class="edge">
<title>SelectedCompositionFwrk&#45;&gt;OrgMsg</title>
<path fill="none" stroke="black" d="M2159.6,-698.1C2201.41,-712.97 2262.47,-734.38 2316.15,-752 2329.26,-756.3 2343.53,-760.79 2356.67,-764.85"/>
<polygon fill="black" stroke="black" points="2355.87,-768.27 2366.46,-767.86 2357.93,-761.57 2355.87,-768.27"/>
<text text-anchor="middle" x="2276.65" y="-747.8" font-family="Times,serif" font-size="14.00">Enum</text>
</g>
<!-- LaTeX -->
<g id="node13" class="node">
<title>LaTeX</title>
<ellipse fill="green" stroke="black" cx="2404.54" cy="-725" rx="38.99" ry="18"/>
<text text-anchor="middle" x="2404.54" y="-721.3" font-family="Times,serif" font-size="14.00">LaTeX</text>
</g>
<!-- SelectedCompositionFwrk&#45;&gt;LaTeX -->
<g id="edge14" class="edge">
<title>SelectedCompositionFwrk&#45;&gt;LaTeX</title>
<path fill="none" stroke="black" d="M2220.45,-697.01C2267.93,-704.27 2320.71,-712.34 2357.36,-717.94"/>
<polygon fill="black" stroke="black" points="2356.84,-721.4 2367.25,-719.45 2357.89,-714.48 2356.84,-721.4"/>
<text text-anchor="middle" x="2276.65" y="-710.8" font-family="Times,serif" font-size="14.00">Enum</text>
</g>
<!-- Html -->
<g id="node14" class="node">
<title>Html</title>
<ellipse fill="green" stroke="black" cx="2404.54" cy="-671" rx="34.39" ry="18"/>
<text text-anchor="middle" x="2404.54" y="-667.3" font-family="Times,serif" font-size="14.00">Html</text>
</g>
<!-- SelectedCompositionFwrk&#45;&gt;Html -->
<g id="edge15" class="edge">
<title>SelectedCompositionFwrk&#45;&gt;Html</title>
<path fill="none" stroke="black" d="M2237.42,-676.08C2281.32,-674.74 2327.51,-673.32 2360.01,-672.33"/>
<polygon fill="black" stroke="black" points="2360.17,-675.83 2370.06,-672.02 2359.95,-668.83 2360.17,-675.83"/>
<text text-anchor="middle" x="2276.65" y="-678.8" font-family="Times,serif" font-size="14.00">Enum</text>
</g>
<!-- WithSelMailing -->
<g id="node15" class="node">
<title>WithSelMailing</title>
<ellipse fill="green" stroke="black" cx="2404.54" cy="-617" rx="88.28" ry="18"/>
<text text-anchor="middle" x="2404.54" y="-613.3" font-family="Times,serif" font-size="14.00">With Sel Mailing</text>
</g>
<!-- SelectedCompositionFwrk&#45;&gt;WithSelMailing -->
<g id="edge16" class="edge">
<title>SelectedCompositionFwrk&#45;&gt;WithSelMailing</title>
<path fill="none" stroke="black" d="M2191.94,-662.28C2236.34,-652.78 2290.48,-641.2 2332.88,-632.12"/>
<polygon fill="black" stroke="black" points="2333.79,-635.51 2342.84,-629.99 2332.33,-628.66 2333.79,-635.51"/>
<text text-anchor="middle" x="2276.65" y="-651.8" font-family="Times,serif" font-size="14.00">Enum</text>
</g>
<!-- Reply -->
<g id="node40" class="node">
<title>Reply</title>
<ellipse fill="darksalmon" stroke="black" cx="2404.54" cy="-563" rx="37.09" ry="18"/>
<text text-anchor="middle" x="2404.54" y="-559.3" font-family="Times,serif" font-size="14.00">Reply</text>
</g>
<!-- SelectedCompositionFwrk&#45;&gt;Reply -->
<g id="edge36" class="edge">
<title>SelectedCompositionFwrk&#45;&gt;Reply</title>
<path fill="none" stroke="black" d="M2147.17,-661.96C2188.3,-642.8 2256.07,-612.26 2316.15,-590 2331.03,-584.49 2347.61,-579.16 2362.3,-574.72"/>
<polygon fill="black" stroke="black" points="2363.53,-578 2372.12,-571.79 2361.54,-571.3 2363.53,-578"/>
</g>
<!-- Forward -->
<g id="node41" class="node">
<title>Forward</title>
<ellipse fill="darksalmon" stroke="black" cx="2404.54" cy="-509" rx="50.09" ry="18"/>
<text text-anchor="middle" x="2404.54" y="-505.3" font-family="Times,serif" font-size="14.00">Forward</text>
</g>
<!-- SelectedCompositionFwrk&#45;&gt;Forward -->
<g id="edge37" class="edge">
<title>SelectedCompositionFwrk&#45;&gt;Forward</title>
<path fill="none" stroke="black" d="M2130.41,-661.84C2166.44,-631.86 2242.77,-571.79 2316.15,-536 2327.64,-530.4 2340.54,-525.65 2352.83,-521.77"/>
<polygon fill="black" stroke="black" points="2353.96,-525.09 2362.52,-518.85 2351.94,-518.39 2353.96,-525.09"/>
</g>
<!-- TemplateFile -->
<g id="node16" class="node">
<title>TemplateFile</title>
<ellipse fill="green" stroke="black" cx="1162.66" cy="-175" rx="71.49" ry="18"/>
<text text-anchor="middle" x="1162.66" y="-171.3" font-family="Times,serif" font-size="14.00">TemplateFile</text>
</g>
<!-- MailingFile&#45;&gt;TemplateFile -->
<g id="edge19" class="edge">
<title>MailingFile&#45;&gt;TemplateFile</title>
<path fill="none" stroke="black" d="M748.68,-206.35C828.23,-200.31 988.03,-188.18 1083.85,-180.91"/>
<polygon fill="black" stroke="black" points="1084.36,-184.38 1094.07,-180.13 1083.83,-177.4 1084.36,-184.38"/>
</g>
<!-- MailingCmnd -->
<g id="node17" class="node">
<title>MailingCmnd</title>
<ellipse fill="green" stroke="black" cx="1541.83" cy="-221" rx="95.58" ry="18"/>
<text text-anchor="middle" x="1541.83" y="-217.3" font-family="Times,serif" font-size="14.00">Mailing Command</text>
</g>
<!-- MailingFile&#45;&gt;MailingCmnd -->
<g id="edge20" class="edge">
<title>MailingFile&#45;&gt;MailingCmnd</title>
<path fill="none" stroke="black" d="M748.84,-210.63C881.28,-212.36 1253.07,-217.23 1436.21,-219.63"/>
<polygon fill="black" stroke="black" points="1436.35,-223.13 1446.39,-219.76 1436.44,-216.13 1436.35,-223.13"/>
</g>
<!-- Gnus -->
<g id="node19" class="node">
<title>Gnus</title>
<ellipse fill="green" stroke="black" cx="2108.15" cy="-507" rx="34.39" ry="18"/>
<text text-anchor="middle" x="2108.15" y="-503.3" font-family="Times,serif" font-size="14.00">Gnus</text>
</g>
<!-- Interactive&#45;&gt;Gnus -->
<g id="edge26" class="edge">
<title>Interactive&#45;&gt;Gnus</title>
<path fill="none" stroke="black" d="M1603.09,-427.71C1628.54,-434.74 1658.59,-442.45 1686.07,-448 1822.91,-475.63 1987.35,-494.64 2063.95,-502.68"/>
<polygon fill="black" stroke="black" points="2063.86,-506.19 2074.16,-503.74 2064.58,-499.23 2063.86,-506.19"/>
</g>
<!-- MtdtMenu -->
<g id="node20" class="node">
<title>MtdtMenu</title>
<ellipse fill="green" stroke="black" cx="1814.11" cy="-313" rx="68.49" ry="18"/>
<text text-anchor="middle" x="1814.11" y="-309.3" font-family="Times,serif" font-size="14.00">MTDT Menu</text>
</g>
<!-- Interactive&#45;&gt;MtdtMenu -->
<g id="edge27" class="edge">
<title>Interactive&#45;&gt;MtdtMenu</title>
<path fill="none" stroke="black" d="M1574.02,-391.98C1602.41,-376.26 1645.91,-353.85 1686.07,-340 1704.95,-333.49 1725.97,-328.26 1745.39,-324.19"/>
<polygon fill="black" stroke="black" points="1746.28,-327.58 1755.38,-322.17 1744.89,-320.72 1746.28,-327.58"/>
</g>
<!-- doSend -->
<g id="node27" class="node">
<title>doSend</title>
<ellipse fill="green" stroke="black" cx="699.65" cy="-607" rx="45.49" ry="18"/>
<text text-anchor="middle" x="699.65" y="-603.3" font-family="Times,serif" font-size="14.00">doSend</text>
</g>
<!-- SendExtent&#45;&gt;doSend -->
<g id="edge38" class="edge">
<title>SendExtent&#45;&gt;doSend</title>
<path fill="none" stroke="black" d="M389.78,-594.15C457.28,-596.96 574.99,-601.86 643.97,-604.72"/>
<polygon fill="black" stroke="black" points="644.05,-608.23 654.19,-605.15 644.34,-601.24 644.05,-608.23"/>
</g>
<!-- unsentBuf -->
<g id="node28" class="node">
<title>unsentBuf</title>
<ellipse fill="green" stroke="black" cx="699.65" cy="-553" rx="71.49" ry="18"/>
<text text-anchor="middle" x="699.65" y="-549.3" font-family="Times,serif" font-size="14.00">unsentBuffer</text>
</g>
<!-- SendExtent&#45;&gt;unsentBuf -->
<g id="edge39" class="edge">
<title>SendExtent&#45;&gt;unsentBuf</title>
<path fill="none" stroke="black" d="M389.78,-586.41C451.02,-579.79 553.58,-568.69 623.59,-561.12"/>
<polygon fill="black" stroke="black" points="624.1,-564.58 633.67,-560.03 623.35,-557.63 624.1,-564.58"/>
</g>
<!-- sendWithExtent -->
<g id="node37" class="node">
<title>sendWithExtent</title>
<ellipse fill="darksalmon" stroke="black" cx="2404.54" cy="-331" rx="85.59" ry="18"/>
<text text-anchor="middle" x="2404.54" y="-327.3" font-family="Times,serif" font-size="14.00">sendWithExtent</text>
</g>
<!-- SendExtent&#45;&gt;sendWithExtent -->
<g id="edge56" class="edge">
<title>SendExtent&#45;&gt;sendWithExtent</title>
<path fill="none" stroke="black" d="M389.67,-601.41C410.24,-605.11 434.16,-609.34 455.86,-613 514.44,-622.88 528.64,-629.32 587.86,-634 686.92,-641.83 712.4,-642.01 811.44,-634 1451.34,-582.28 1620.58,-580.84 2237.15,-402 2280.94,-389.3 2328.57,-368.17 2361.61,-352.26"/>
<polygon fill="black" stroke="black" points="2363.49,-355.24 2370.95,-347.71 2360.42,-348.94 2363.49,-355.24"/>
</g>
<!-- Recipients -->
<g id="node29" class="node">
<title>Recipients</title>
<ellipse fill="darksalmon" stroke="black" cx="699.65" cy="-264" rx="59.59" ry="18"/>
<text text-anchor="middle" x="699.65" y="-260.3" font-family="Times,serif" font-size="14.00">Recipients</text>
</g>
<!-- OorR&#45;&gt;Recipients -->
<g id="edge40" class="edge">
<title>OorR&#45;&gt;Recipients</title>
<path fill="none" stroke="black" d="M412.39,-261.62C476.14,-262.15 567.33,-262.91 629.54,-263.42"/>
<polygon fill="black" stroke="black" points="629.63,-266.93 639.65,-263.51 629.68,-259.93 629.63,-266.93"/>
</g>
<!-- bbdb3 -->
<g id="node33" class="node">
<title>bbdb3</title>
<ellipse fill="darksalmon" stroke="black" cx="1162.66" cy="-507" rx="40.09" ry="18"/>
<text text-anchor="middle" x="1162.66" y="-503.3" font-family="Times,serif" font-size="14.00">bbdb3</text>
</g>
<!-- AddressBook&#45;&gt;bbdb3 -->
<g id="edge44" class="edge">
<title>AddressBook&#45;&gt;bbdb3</title>
<path fill="none" stroke="black" d="M569.93,-507C694.65,-507 993.32,-507 1111.91,-507"/>
<polygon fill="black" stroke="black" points="1112.14,-510.5 1122.14,-507 1112.14,-503.5 1112.14,-510.5"/>
</g>
<!-- NamesFile -->
<g id="node34" class="node">
<title>NamesFile</title>
<ellipse fill="darksalmon" stroke="black" cx="699.65" cy="-461" rx="58.49" ry="18"/>
<text text-anchor="middle" x="699.65" y="-457.3" font-family="Times,serif" font-size="14.00">namesFile</text>
</g>
<!-- Names&#45;&gt;NamesFile -->
<g id="edge45" class="edge">
<title>Names&#45;&gt;NamesFile</title>
<path fill="none" stroke="black" d="M370.43,-461C428.82,-461 553.06,-461 630.82,-461"/>
<polygon fill="black" stroke="black" points="631,-464.5 641,-461 631,-457.5 631,-464.5"/>
</g>
<!-- DistNamesFile -->
<g id="node35" class="node">
<title>DistNamesFile</title>
<ellipse fill="darksalmon" stroke="black" cx="1338.6" cy="-364" rx="77.99" ry="18"/>
<text text-anchor="middle" x="1338.6" y="-360.3" font-family="Times,serif" font-size="14.00">distNamesFile</text>
</g>
<!-- Distributions&#45;&gt;DistNamesFile -->
<g id="edge49" class="edge">
<title>Distributions&#45;&gt;DistNamesFile</title>
<path fill="none" stroke="black" d="M392.21,-368.73C556.2,-367.91 1048.84,-365.44 1250.3,-364.44"/>
<polygon fill="black" stroke="black" points="1250.56,-367.94 1260.54,-364.39 1250.52,-360.94 1250.56,-367.94"/>
</g>
<!-- LogFile -->
<g id="node36" class="node">
<title>LogFile</title>
<ellipse fill="darksalmon" stroke="black" cx="699.65" cy="-318" rx="42.49" ry="18"/>
<text text-anchor="middle" x="699.65" y="-314.3" font-family="Times,serif" font-size="14.00">logFile</text>
</g>
<!-- Tracking&#45;&gt;LogFile -->
<g id="edge51" class="edge">
<title>Tracking&#45;&gt;LogFile</title>
<path fill="none" stroke="black" d="M376.7,-315.32C441.89,-315.86 573.85,-316.96 646.97,-317.57"/>
<polygon fill="black" stroke="black" points="647.28,-321.07 657.31,-317.66 647.34,-314.07 647.28,-321.07"/>
</g>
<!-- TemplateFile&#45;&gt;MailingCmnd -->
<g id="edge21" class="edge">
<title>TemplateFile&#45;&gt;MailingCmnd</title>
<path fill="none" stroke="black" d="M1227.22,-182.75C1288.65,-190.24 1382.3,-201.66 1451.27,-210.08"/>
<polygon fill="black" stroke="black" points="1450.91,-213.56 1461.26,-211.3 1451.76,-206.61 1450.91,-213.56"/>
</g>
<!-- SelectedMailing -->
<g id="node18" class="node">
<title>SelectedMailing</title>
<ellipse fill="green" stroke="black" cx="1814.11" cy="-367" rx="89.08" ry="18"/>
<text text-anchor="middle" x="1814.11" y="-363.3" font-family="Times,serif" font-size="14.00">Selected Mailing</text>
</g>
<!-- MailingCmnd&#45;&gt;SelectedMailing -->
<g id="edge22" class="edge">
<title>MailingCmnd&#45;&gt;SelectedMailing</title>
<path fill="none" stroke="black" d="M1577.34,-237.78C1599.42,-249.58 1627.8,-266.83 1649.07,-287 1669.92,-306.76 1662.13,-324.13 1686.07,-340 1697.16,-347.35 1709.87,-352.74 1722.89,-356.69"/>
<polygon fill="black" stroke="black" points="1722.3,-360.16 1732.87,-359.44 1724.16,-353.41 1722.3,-360.16"/>
</g>
<!-- MailingMenu -->
<g id="node21" class="node">
<title>MailingMenu</title>
<ellipse fill="green" stroke="black" cx="2108.15" cy="-309" rx="75.29" ry="18"/>
<text text-anchor="middle" x="2108.15" y="-305.3" font-family="Times,serif" font-size="14.00">Mailing Menu</text>
</g>
<!-- SelectedMailing&#45;&gt;MailingMenu -->
<g id="edge23" class="edge">
<title>SelectedMailing&#45;&gt;MailingMenu</title>
<path fill="none" stroke="black" d="M1878.12,-354.49C1925.81,-345.02 1991.19,-332.03 2039.89,-322.36"/>
<polygon fill="black" stroke="black" points="2040.58,-325.79 2049.7,-320.41 2039.21,-318.92 2040.58,-325.79"/>
</g>
<!-- DistMenu -->
<g id="node22" class="node">
<title>DistMenu</title>
<ellipse fill="green" stroke="black" cx="2108.15" cy="-375" rx="96.38" ry="18"/>
<text text-anchor="middle" x="2108.15" y="-371.3" font-family="Times,serif" font-size="14.00">Distribution Menu</text>
</g>
<!-- SelectedMailing&#45;&gt;DistMenu -->
<g id="edge24" class="edge">
<title>SelectedMailing&#45;&gt;DistMenu</title>
<path fill="none" stroke="black" d="M1902.73,-369.4C1934.18,-370.26 1969.94,-371.24 2002.67,-372.14"/>
<polygon fill="black" stroke="black" points="2002.63,-375.64 2012.72,-372.41 2002.82,-368.64 2002.63,-375.64"/>
</g>
<!-- Gnus&#45;&gt;Reply -->
<g id="edge30" class="edge">
<title>Gnus&#45;&gt;Reply</title>
<path fill="none" stroke="black" d="M2140.66,-512.99C2193.38,-523.02 2299.59,-543.23 2359.62,-554.65"/>
<polygon fill="black" stroke="black" points="2359.08,-558.1 2369.56,-556.54 2360.39,-551.23 2359.08,-558.1"/>
</g>
<!-- Gnus&#45;&gt;Forward -->
<g id="edge31" class="edge">
<title>Gnus&#45;&gt;Forward</title>
<path fill="none" stroke="black" d="M2142.64,-507.23C2191.64,-507.56 2283.65,-508.19 2344.26,-508.6"/>
<polygon fill="black" stroke="black" points="2344.43,-512.1 2354.45,-508.67 2344.47,-505.1 2344.43,-512.1"/>
</g>
<!-- GnusCompose -->
<g id="node42" class="node">
<title>GnusCompose</title>
<ellipse fill="darksalmon" stroke="black" cx="2404.54" cy="-455" rx="77.19" ry="18"/>
<text text-anchor="middle" x="2404.54" y="-451.3" font-family="Times,serif" font-size="14.00">GnusCompose</text>
</g>
<!-- Gnus&#45;&gt;GnusCompose -->
<g id="edge32" class="edge">
<title>Gnus&#45;&gt;GnusCompose</title>
<path fill="none" stroke="black" d="M2140.94,-501.39C2186.5,-493.34 2271.59,-478.31 2332.58,-467.54"/>
<polygon fill="black" stroke="black" points="2333.29,-470.96 2342.53,-465.78 2332.07,-464.07 2333.29,-470.96"/>
</g>
<!-- MtdtMenu&#45;&gt;MailingMenu -->
<g id="edge29" class="edge">
<title>MtdtMenu&#45;&gt;MailingMenu</title>
<path fill="none" stroke="black" d="M1882.48,-312.08C1924.13,-311.51 1977.94,-310.77 2022.46,-310.16"/>
<polygon fill="black" stroke="black" points="2022.74,-313.66 2032.69,-310.02 2022.64,-306.66 2022.74,-313.66"/>
</g>
<!-- MtdtMenu&#45;&gt;DistMenu -->
<g id="edge28" class="edge">
<title>MtdtMenu&#45;&gt;DistMenu</title>
<path fill="none" stroke="black" d="M1868,-324.23C1914.3,-334.06 1982.06,-348.44 2033.64,-359.39"/>
<polygon fill="black" stroke="black" points="2033.22,-362.88 2043.72,-361.53 2034.67,-356.03 2033.22,-362.88"/>
</g>
<!-- MailingMenu&#45;&gt;sendWithExtent -->
<g id="edge52" class="edge">
<title>MailingMenu&#45;&gt;sendWithExtent</title>
<path fill="none" stroke="black" d="M2180.42,-314.33C2220.43,-317.32 2270.75,-321.08 2313.48,-324.27"/>
<polygon fill="black" stroke="black" points="2313.36,-327.77 2323.6,-325.03 2313.89,-320.79 2313.36,-327.77"/>
</g>
<!-- DistMenu&#45;&gt;sendWithExtent -->
<g id="edge53" class="edge">
<title>DistMenu&#45;&gt;sendWithExtent</title>
<path fill="none" stroke="black" d="M2183.82,-363.84C2226.73,-357.43 2280.59,-349.38 2324.25,-342.85"/>
<polygon fill="black" stroke="black" points="2324.89,-346.29 2334.26,-341.36 2323.85,-339.37 2324.89,-346.29"/>
</g>
<!-- NativeComposition -->
<g id="node24" class="node">
<title>NativeComposition</title>
<ellipse fill="green" stroke="black" cx="699.65" cy="-156" rx="102.88" ry="18"/>
<text text-anchor="middle" x="699.65" y="-152.3" font-family="Times,serif" font-size="14.00">Native Composition</text>
</g>
<!-- CompositionModel&#45;&gt;NativeComposition -->
<g id="edge17" class="edge">
<title>CompositionModel&#45;&gt;NativeComposition</title>
<path fill="none" stroke="black" d="M430.5,-135.92C480.67,-139.68 542.86,-144.33 594.72,-148.22"/>
<polygon fill="black" stroke="black" points="594.71,-151.73 604.95,-148.98 595.24,-144.75 594.71,-151.73"/>
<text text-anchor="middle" x="512.86" y="-148.8" font-family="Times,serif" font-size="14.00">Enum</text>
</g>
<!-- ExternalComposition -->
<g id="node25" class="node">
<title>ExternalComposition</title>
<ellipse fill="green" stroke="black" cx="699.65" cy="-102" rx="111.58" ry="18"/>
<text text-anchor="middle" x="699.65" y="-98.3" font-family="Times,serif" font-size="14.00">External Composition</text>
</g>
<!-- CompositionModel&#45;&gt;ExternalComposition -->
<g id="edge18" class="edge">
<title>CompositionModel&#45;&gt;ExternalComposition</title>
<path fill="none" stroke="black" d="M430.03,-121.95C438.76,-121.29 447.48,-120.63 455.86,-120 498.89,-116.76 546.21,-113.24 587.55,-110.18"/>
<polygon fill="black" stroke="black" points="587.94,-113.66 597.65,-109.44 587.42,-106.68 587.94,-113.66"/>
<text text-anchor="middle" x="512.86" y="-123.8" font-family="Times,serif" font-size="14.00">Enum</text>
</g>
<!-- CompositionModel&#45;&gt;sendWithExtent -->
<g id="edge57" class="edge">
<title>CompositionModel&#45;&gt;sendWithExtent</title>
<path fill="none" stroke="black" d="M400.66,-114.92C495.88,-93.71 669.28,-56 698.65,-56 698.65,-56 698.65,-56 2109.15,-56 2253.44,-56 2356.35,-234.58 2390.88,-303.93"/>
<polygon fill="black" stroke="black" points="2387.76,-305.51 2395.29,-312.96 2394.04,-302.44 2387.76,-305.51"/>
</g>
<!-- ContentCustomization&#45;&gt;sendWithExtent -->
<g id="edge58" class="edge">
<title>ContentCustomization&#45;&gt;sendWithExtent</title>
<path fill="none" stroke="black" d="M1064.84,-18C1142.21,-18 1245.97,-18 1337.6,-18 1337.6,-18 1337.6,-18 2109.15,-18 2193.83,-18 2231.98,10.83 2298.15,-42 2380.47,-107.71 2398.5,-243.7 2402.45,-302.69"/>
<polygon fill="black" stroke="black" points="2398.96,-302.99 2403.03,-312.77 2405.95,-302.58 2398.96,-302.99"/>
</g>
<!-- RecipientsList -->
<g id="node30" class="node">
<title>RecipientsList</title>
<ellipse fill="darksalmon" stroke="black" cx="1162.66" cy="-267" rx="79.89" ry="18"/>
<text text-anchor="middle" x="1162.66" y="-263.3" font-family="Times,serif" font-size="14.00">Recipients List</text>
</g>
<!-- Recipients&#45;&gt;RecipientsList -->
<g id="edge41" class="edge">
<title>Recipients&#45;&gt;RecipientsList</title>
<path fill="none" stroke="black" d="M759.51,-264.38C838.71,-264.9 980.28,-265.82 1072.56,-266.42"/>
<polygon fill="black" stroke="black" points="1072.71,-269.92 1082.73,-266.49 1072.75,-262.92 1072.71,-269.92"/>
</g>
<!-- RecipientsList&#45;&gt;MailingMenu -->
<g id="edge25" class="edge">
<title>RecipientsList&#45;&gt;MailingMenu</title>
<path fill="none" stroke="black" d="M1242.55,-265.96C1383.32,-264.76 1686.98,-265.17 1942.15,-286 1972.97,-288.52 2006.82,-292.94 2035.79,-297.24"/>
<polygon fill="black" stroke="black" points="2035.42,-300.72 2045.83,-298.75 2036.46,-293.8 2035.42,-300.72"/>
</g>
<!-- RecipientsListForm -->
<g id="node31" class="node">
<title>RecipientsListForm</title>
<ellipse fill="darksalmon" stroke="black" cx="1541.83" cy="-314" rx="107.48" ry="18"/>
<text text-anchor="middle" x="1541.83" y="-310.3" font-family="Times,serif" font-size="14.00">Recipients List Form</text>
</g>
<!-- RecipientsList&#45;&gt;RecipientsListForm -->
<g id="edge42" class="edge">
<title>RecipientsList&#45;&gt;RecipientsListForm</title>
<path fill="none" stroke="black" d="M1229.86,-276.8C1240.15,-278.25 1250.66,-279.7 1260.61,-281 1320.61,-288.86 1387.96,-296.82 1441.59,-302.95"/>
<polygon fill="black" stroke="black" points="1441.45,-306.46 1451.79,-304.12 1442.25,-299.51 1441.45,-306.46"/>
</g>
<!-- RecipientsListFormFile -->
<g id="node32" class="node">
<title>RecipientsListFormFile</title>
<ellipse fill="darksalmon" stroke="black" cx="1814.11" cy="-421" rx="128.08" ry="18"/>
<text text-anchor="middle" x="1814.11" y="-417.3" font-family="Times,serif" font-size="14.00">Recipients List Form File</text>
</g>
<!-- RecipientsListForm&#45;&gt;RecipientsListFormFile -->
<g id="edge43" class="edge">
<title>RecipientsListForm&#45;&gt;RecipientsListFormFile</title>
<path fill="none" stroke="black" d="M1623.83,-325.76C1639.89,-331.1 1655.61,-338.82 1668.07,-350 1683.8,-364.11 1669.86,-380.45 1686.07,-394 1691.48,-398.52 1697.46,-402.33 1703.79,-405.55"/>
<polygon fill="black" stroke="black" points="1702.74,-408.92 1713.29,-409.85 1705.63,-402.54 1702.74,-408.92"/>
</g>
<!-- RecipientsListFormFile&#45;&gt;DistMenu -->
<g id="edge48" class="edge">
<title>RecipientsListFormFile&#45;&gt;DistMenu</title>
<path fill="none" stroke="black" d="M1899.97,-407.63C1938.93,-401.5 1984.98,-394.24 2023.76,-388.14"/>
<polygon fill="black" stroke="black" points="2024.63,-391.54 2033.97,-386.53 2023.54,-384.63 2024.63,-391.54"/>
</g>
<!-- bbdb3&#45;&gt;RecipientsListFormFile -->
<g id="edge47" class="edge">
<title>bbdb3&#45;&gt;RecipientsListFormFile</title>
<path fill="none" stroke="black" d="M1201.39,-502C1299.11,-489.06 1563.08,-454.11 1710.32,-434.61"/>
<polygon fill="black" stroke="black" points="1710.83,-438.07 1720.28,-433.29 1709.91,-431.14 1710.83,-438.07"/>
</g>
<!-- NamesFile&#45;&gt;bbdb3 -->
<g id="edge46" class="edge">
<title>NamesFile&#45;&gt;bbdb3</title>
<path fill="none" stroke="black" d="M756.88,-464.96C828.49,-470.24 956,-480.38 1064.72,-493 1080.93,-494.88 1098.61,-497.32 1114.39,-499.63"/>
<polygon fill="black" stroke="black" points="1114.03,-503.12 1124.44,-501.13 1115.06,-496.2 1114.03,-503.12"/>
</g>
<!-- DistNamesFile&#45;&gt;RecipientsListFormFile -->
<g id="edge50" class="edge">
<title>DistNamesFile&#45;&gt;RecipientsListFormFile</title>
<path fill="none" stroke="black" d="M1416.8,-363.88C1479.76,-364.95 1570.76,-369.14 1649.07,-383 1665.97,-385.99 1669.45,-389.77 1686.07,-394 1700.01,-397.55 1714.89,-401 1729.37,-404.19"/>
<polygon fill="black" stroke="black" points="1728.81,-407.65 1739.32,-406.36 1730.3,-400.81 1728.81,-407.65"/>
</g>
<!-- unsentBuffer -->
<g id="node38" class="node">
<title>unsentBuffer</title>
<ellipse fill="darksalmon" stroke="black" cx="2601.43" cy="-485" rx="71.49" ry="18"/>
<text text-anchor="middle" x="2601.43" y="-481.3" font-family="Times,serif" font-size="14.00">unsentBuffer</text>
</g>
<!-- sendWithExtent&#45;&gt;unsentBuffer -->
<g id="edge54" class="edge">
<title>sendWithExtent&#45;&gt;unsentBuffer</title>
<path fill="none" stroke="black" d="M2427.52,-348.37C2462.56,-376.05 2531.13,-430.24 2570.58,-461.41"/>
<polygon fill="black" stroke="black" points="2568.52,-464.24 2578.53,-467.7 2572.86,-458.75 2568.52,-464.24"/>
</g>
<!-- sent -->
<g id="node39" class="node">
<title>sent</title>
<ellipse fill="darksalmon" stroke="black" cx="2601.43" cy="-331" rx="30.59" ry="18"/>
<text text-anchor="middle" x="2601.43" y="-327.3" font-family="Times,serif" font-size="14.00">sent</text>
</g>
<!-- sendWithExtent&#45;&gt;sent -->
<g id="edge55" class="edge">
<title>sendWithExtent&#45;&gt;sent</title>
<path fill="none" stroke="black" d="M2490.46,-331C2514.91,-331 2540.44,-331 2560.74,-331"/>
<polygon fill="black" stroke="black" points="2560.84,-334.5 2570.84,-331 2560.84,-327.5 2560.84,-334.5"/>
</g>
<!-- Reply&#45;&gt;unsentBuffer -->
<g id="edge33" class="edge">
<title>Reply&#45;&gt;unsentBuffer</title>
<path fill="none" stroke="black" d="M2437.47,-554.33C2454.19,-549.49 2474.88,-543.03 2492.94,-536 2515.7,-527.14 2540.37,-515.58 2560.33,-505.7"/>
<polygon fill="black" stroke="black" points="2562.05,-508.76 2569.44,-501.16 2558.93,-502.5 2562.05,-508.76"/>
</g>
<!-- Forward&#45;&gt;unsentBuffer -->
<g id="edge34" class="edge">
<title>Forward&#45;&gt;unsentBuffer</title>
<path fill="none" stroke="black" d="M2452.22,-503.25C2474.49,-500.51 2501.67,-497.16 2526.64,-494.09"/>
<polygon fill="black" stroke="black" points="2527.32,-497.53 2536.82,-492.83 2526.46,-490.58 2527.32,-497.53"/>
</g>
<!-- GnusCompose&#45;&gt;unsentBuffer -->
<g id="edge35" class="edge">
<title>GnusCompose&#45;&gt;unsentBuffer</title>
<path fill="none" stroke="black" d="M2469.36,-464.82C2488.82,-467.82 2510.33,-471.13 2530.2,-474.19"/>
<polygon fill="black" stroke="black" points="2529.7,-477.65 2540.11,-475.72 2530.76,-470.73 2529.7,-477.65"/>
</g>
</g>
</svg>
