<?xml version="1.0" encoding="UTF-8" standalone="no"?>
<!DOCTYPE svg PUBLIC "-//W3C//DTD SVG 1.1//EN"
 "http://www.w3.org/Graphics/SVG/1.1/DTD/svg11.dtd">
<!-- Generated by graphviz version 2.43.0 (0)
 -->
<!-- Title: %3 Pages: 1 -->
<svg width="1149pt" height="1239pt"
 viewBox="0.00 0.00 1148.61 1238.71" xmlns="http://www.w3.org/2000/svg" xmlns:xlink="http://www.w3.org/1999/xlink">
<g id="graph0" class="graph" transform="scale(1 1) rotate(0) translate(4 1234.71)">
<title>%3</title>
<polygon fill="white" stroke="transparent" points="-4,4 -4,-1234.71 1144.61,-1234.71 1144.61,4 -4,4"/>
<!-- MTDT&#45;Mailing -->
<g id="node1" class="node">
<title>MTDT&#45;Mailing</title>
<ellipse fill="#9bcd9b" stroke="black" cx="73.61" cy="-1157.88" rx="58.88" ry="58.88"/>
<text text-anchor="middle" x="73.61" y="-1176.68" font-family="Times,serif" font-size="14.00">MTDT</text>
<text text-anchor="middle" x="73.61" y="-1161.68" font-family="Times,serif" font-size="14.00">Mailing</text>
<text text-anchor="middle" x="73.61" y="-1146.68" font-family="Times,serif" font-size="14.00">Concepts</text>
<text text-anchor="middle" x="73.61" y="-1131.68" font-family="Times,serif" font-size="14.00">LAYER 1</text>
</g>
<!-- MailingFile -->
<g id="node2" class="node">
<title>MailingFile</title>
<polygon fill="#fff68f" stroke="black" points="147.33,-1034.04 30.06,-1034.04 -0.11,-958.04 117.16,-958.04 147.33,-1034.04"/>
<text text-anchor="middle" x="73.61" y="-999.84" font-family="Times,serif" font-size="14.00">Mailing</text>
<text text-anchor="middle" x="73.61" y="-984.84" font-family="Times,serif" font-size="14.00">File</text>
</g>
<!-- MTDT&#45;Mailing&#45;&gt;MailingFile -->
<g id="edge1" class="edge">
<title>MTDT&#45;Mailing&#45;&gt;MailingFile</title>
<path fill="none" stroke="black" d="M73.61,-1099.17C73.61,-1081.25 73.61,-1061.71 73.61,-1044.57"/>
<polygon fill="black" stroke="black" points="77.11,-1044.24 73.61,-1034.24 70.11,-1044.24 77.11,-1044.24"/>
<text text-anchor="middle" x="119.61" y="-1055.84" font-family="Times,serif" font-size="14.00">Specification</text>
</g>
<!-- TemplateFile -->
<g id="node3" class="node">
<title>TemplateFile</title>
<polygon fill="#fff68f" stroke="black" points="266.71,-907.04 129.74,-907.04 94.51,-831.04 231.48,-831.04 266.71,-907.04"/>
<text text-anchor="middle" x="180.61" y="-872.84" font-family="Times,serif" font-size="14.00">Template</text>
<text text-anchor="middle" x="180.61" y="-857.84" font-family="Times,serif" font-size="14.00">File</text>
</g>
<!-- MailingFile&#45;&gt;TemplateFile -->
<g id="edge2" class="edge">
<title>MailingFile&#45;&gt;TemplateFile</title>
<path fill="none" stroke="black" d="M105.42,-957.88C116.96,-944.4 130.12,-929.03 142.17,-914.95"/>
<polygon fill="black" stroke="black" points="144.89,-917.15 148.73,-907.28 139.57,-912.6 144.89,-917.15"/>
</g>
<!-- MailingCmnd -->
<g id="node4" class="node">
<title>MailingCmnd</title>
<ellipse fill="#fff68f" stroke="black" cx="180.61" cy="-753.17" rx="62.87" ry="26.74"/>
<text text-anchor="middle" x="180.61" y="-756.97" font-family="Times,serif" font-size="14.00">Mailing</text>
<text text-anchor="middle" x="180.61" y="-741.97" font-family="Times,serif" font-size="14.00">Command</text>
</g>
<!-- MailingFile&#45;&gt;MailingCmnd -->
<g id="edge3" class="edge">
<title>MailingFile&#45;&gt;MailingCmnd</title>
<path fill="none" stroke="black" d="M50.91,-957.72C32.87,-922.77 14.2,-870.2 37.61,-831.04 55.1,-801.79 87.97,-783.02 117.79,-771.36"/>
<polygon fill="black" stroke="black" points="119.18,-774.58 127.34,-767.82 116.74,-768.01 119.18,-774.58"/>
<text text-anchor="middle" x="61.61" y="-865.34" font-family="Times,serif" font-size="14.00">Derive</text>
</g>
<!-- TemplateFile&#45;&gt;MailingCmnd -->
<g id="edge4" class="edge">
<title>TemplateFile&#45;&gt;MailingCmnd</title>
<path fill="none" stroke="black" d="M180.61,-830.76C180.61,-817.89 180.61,-803.49 180.61,-790.68"/>
<polygon fill="black" stroke="black" points="184.11,-790.36 180.61,-780.36 177.11,-790.36 184.11,-790.36"/>
<text text-anchor="middle" x="204.61" y="-801.84" font-family="Times,serif" font-size="14.00">Derive</text>
</g>
<!-- ListOfMailingCmnds -->
<g id="node5" class="node">
<title>ListOfMailingCmnds</title>
<ellipse fill="#fff68f" stroke="black" cx="186.61" cy="-651.83" rx="62.87" ry="37.45"/>
<text text-anchor="middle" x="186.61" y="-663.13" font-family="Times,serif" font-size="14.00">List of</text>
<text text-anchor="middle" x="186.61" y="-648.13" font-family="Times,serif" font-size="14.00">Mailing</text>
<text text-anchor="middle" x="186.61" y="-633.13" font-family="Times,serif" font-size="14.00">Command</text>
</g>
<!-- MailingCmnd&#45;&gt;ListOfMailingCmnds -->
<g id="edge5" class="edge">
<title>MailingCmnd&#45;&gt;ListOfMailingCmnds</title>
<path fill="none" stroke="black" d="M182.19,-726.07C182.68,-717.97 183.23,-708.78 183.78,-699.71"/>
<polygon fill="black" stroke="black" points="187.28,-699.78 184.39,-689.59 180.29,-699.36 187.28,-699.78"/>
</g>
<!-- SelectedMailings -->
<g id="node6" class="node">
<title>SelectedMailings</title>
<ellipse fill="green" stroke="black" cx="487.61" cy="-510.18" rx="58.88" ry="37.45"/>
<text text-anchor="middle" x="487.61" y="-521.48" font-family="Times,serif" font-size="14.00">Selected</text>
<text text-anchor="middle" x="487.61" y="-506.48" font-family="Times,serif" font-size="14.00">List of</text>
<text text-anchor="middle" x="487.61" y="-491.48" font-family="Times,serif" font-size="14.00">Mailings </text>
</g>
<!-- ListOfMailingCmnds&#45;&gt;SelectedMailings -->
<g id="edge6" class="edge">
<title>ListOfMailingCmnds&#45;&gt;SelectedMailings</title>
<path fill="none" stroke="black" d="M233.99,-626.82C242.5,-622.61 251.29,-618.31 259.61,-614.35 317.42,-586.84 384.21,-556.82 430.5,-536.29"/>
<polygon fill="black" stroke="black" points="432.04,-539.43 439.76,-532.18 429.2,-533.03 432.04,-539.43"/>
</g>
<!-- MtdtMenu -->
<g id="node15" class="node">
<title>MtdtMenu</title>
<polygon fill="salmon" stroke="black" points="749.11,-400 618.11,-400 618.11,-343 749.11,-343 749.11,-337 767.11,-371.5 749.11,-406 749.11,-400"/>
<text text-anchor="middle" x="692.61" y="-374.8" font-family="Times,serif" font-size="14.00">MTDT&#45;Distribution</text>
<text text-anchor="middle" x="692.61" y="-359.8" font-family="Times,serif" font-size="14.00">Menu</text>
<text text-anchor="middle" x="692.61" y="-344.8" font-family="Times,serif" font-size="14.00"> </text>
</g>
<!-- SelectedMailings&#45;&gt;MtdtMenu -->
<g id="edge14" class="edge">
<title>SelectedMailings&#45;&gt;MtdtMenu</title>
<path fill="none" stroke="black" d="M527.62,-482.5C557.81,-462.37 599.68,-434.46 633.69,-411.78"/>
<polygon fill="black" stroke="black" points="635.78,-414.6 642.16,-406.14 631.89,-408.77 635.78,-414.6"/>
</g>
<!-- MTDT&#45;Distribution -->
<g id="node7" class="node">
<title>MTDT&#45;Distribution</title>
<ellipse fill="#9bcd9b" stroke="black" cx="611.61" cy="-1157.88" rx="72.66" ry="72.66"/>
<text text-anchor="middle" x="611.61" y="-1176.68" font-family="Times,serif" font-size="14.00">MTDT</text>
<text text-anchor="middle" x="611.61" y="-1161.68" font-family="Times,serif" font-size="14.00">Distribution</text>
<text text-anchor="middle" x="611.61" y="-1146.68" font-family="Times,serif" font-size="14.00">Concepts</text>
<text text-anchor="middle" x="611.61" y="-1131.68" font-family="Times,serif" font-size="14.00">LAYER 2</text>
</g>
<!-- Interactive -->
<g id="node8" class="node">
<title>Interactive</title>
<ellipse fill="darksalmon" stroke="black" cx="837.61" cy="-510.18" rx="67.35" ry="67.35"/>
<text text-anchor="middle" x="837.61" y="-513.98" font-family="Times,serif" font-size="14.00">Interactive</text>
<text text-anchor="middle" x="837.61" y="-498.98" font-family="Times,serif" font-size="14.00">Usage</text>
</g>
<!-- MTDT&#45;Distribution&#45;&gt;Interactive -->
<g id="edge7" class="edge">
<title>MTDT&#45;Distribution&#45;&gt;Interactive</title>
<path fill="none" stroke="black" d="M682.19,-1139.24C748.83,-1117.85 838.61,-1074.64 838.61,-997.04 838.61,-997.04 838.61,-997.04 838.61,-650.83 838.61,-630.4 838.5,-608.29 838.36,-587.81"/>
<polygon fill="black" stroke="black" points="841.85,-587.57 838.28,-577.59 834.85,-587.62 841.85,-587.57"/>
<text text-anchor="middle" x="874.61" y="-801.84" font-family="Times,serif" font-size="14.00">Execution</text>
</g>
<!-- SendExtent -->
<g id="node9" class="node">
<title>SendExtent</title>
<path fill="green" stroke="black" d="M996.61,-1025.81C996.61,-1029.45 979.13,-1032.42 957.61,-1032.42 936.09,-1032.42 918.61,-1029.45 918.61,-1025.81 918.61,-1025.81 918.61,-966.28 918.61,-966.28 918.61,-962.63 936.09,-959.67 957.61,-959.67 979.13,-959.67 996.61,-962.63 996.61,-966.28 996.61,-966.28 996.61,-1025.81 996.61,-1025.81"/>
<path fill="none" stroke="black" d="M996.61,-1025.81C996.61,-1022.16 979.13,-1019.19 957.61,-1019.19 936.09,-1019.19 918.61,-1022.16 918.61,-1025.81"/>
<text text-anchor="middle" x="957.61" y="-1007.34" font-family="Times,serif" font-size="14.00">Selected</text>
<text text-anchor="middle" x="957.61" y="-992.34" font-family="Times,serif" font-size="14.00">Send</text>
<text text-anchor="middle" x="957.61" y="-977.34" font-family="Times,serif" font-size="14.00">Extent</text>
</g>
<!-- MTDT&#45;Distribution&#45;&gt;SendExtent -->
<g id="edge8" class="edge">
<title>MTDT&#45;Distribution&#45;&gt;SendExtent</title>
<path fill="none" stroke="black" d="M681.19,-1135.69C730.32,-1119.6 797.04,-1095.44 852.61,-1067.04 872.23,-1057.02 892.63,-1044.07 910.18,-1032.04"/>
<polygon fill="black" stroke="black" points="912.33,-1034.81 918.55,-1026.23 908.34,-1029.06 912.33,-1034.81"/>
<text text-anchor="middle" x="925.61" y="-1055.84" font-family="Times,serif" font-size="14.00">Configuration</text>
</g>
<!-- OorR -->
<g id="node10" class="node">
<title>OorR</title>
<path fill="#fff68f" stroke="black" d="M574.61,-1010.77C574.61,-1012.58 540.99,-1014.04 499.61,-1014.04 458.23,-1014.04 424.61,-1012.58 424.61,-1010.77 424.61,-1010.77 424.61,-981.32 424.61,-981.32 424.61,-979.51 458.23,-978.04 499.61,-978.04 540.99,-978.04 574.61,-979.51 574.61,-981.32 574.61,-981.32 574.61,-1010.77 574.61,-1010.77"/>
<path fill="none" stroke="black" d="M574.61,-1010.77C574.61,-1008.97 540.99,-1007.5 499.61,-1007.5 458.23,-1007.5 424.61,-1008.97 424.61,-1010.77"/>
<text text-anchor="middle" x="499.61" y="-992.34" font-family="Times,serif" font-size="14.00">Orig Or Recipients</text>
</g>
<!-- MTDT&#45;Distribution&#45;&gt;OorR -->
<g id="edge9" class="edge">
<title>MTDT&#45;Distribution&#45;&gt;OorR</title>
<path fill="none" stroke="black" d="M560.24,-1105.47C549.68,-1093.44 539.18,-1080.26 530.61,-1067.04 521.91,-1053.63 514.54,-1037.36 509.17,-1023.88"/>
<polygon fill="black" stroke="black" points="512.31,-1022.3 505.47,-1014.21 505.77,-1024.8 512.31,-1022.3"/>
<text text-anchor="middle" x="568.61" y="-1055.84" font-family="Times,serif" font-size="14.00">Machinary</text>
</g>
<!-- AddressBook -->
<g id="node11" class="node">
<title>AddressBook</title>
<path fill="#fff68f" stroke="black" d="M810.61,-883.77C810.61,-885.58 785.06,-887.04 753.61,-887.04 722.16,-887.04 696.61,-885.58 696.61,-883.77 696.61,-883.77 696.61,-854.32 696.61,-854.32 696.61,-852.51 722.16,-851.04 753.61,-851.04 785.06,-851.04 810.61,-852.51 810.61,-854.32 810.61,-854.32 810.61,-883.77 810.61,-883.77"/>
<path fill="none" stroke="black" d="M810.61,-883.77C810.61,-881.97 785.06,-880.5 753.61,-880.5 722.16,-880.5 696.61,-881.97 696.61,-883.77"/>
<text text-anchor="middle" x="753.61" y="-865.34" font-family="Times,serif" font-size="14.00">Address Book</text>
</g>
<!-- MTDT&#45;Distribution&#45;&gt;AddressBook -->
<g id="edge10" class="edge">
<title>MTDT&#45;Distribution&#45;&gt;AddressBook</title>
<path fill="none" stroke="black" d="M668.38,-1111.83C681.93,-1098.66 695.19,-1083.38 704.61,-1067.04 706.77,-1063.31 734.33,-949.89 747.14,-896.87"/>
<polygon fill="black" stroke="black" points="750.55,-897.67 749.49,-887.12 743.74,-896.02 750.55,-897.67"/>
<text text-anchor="middle" x="777.61" y="-992.34" font-family="Times,serif" font-size="14.00">Specification</text>
</g>
<!-- Names -->
<g id="node12" class="node">
<title>Names</title>
<path fill="#fff68f" stroke="black" d="M658.61,-1010.77C658.61,-1012.58 643.82,-1014.04 625.61,-1014.04 607.4,-1014.04 592.61,-1012.58 592.61,-1010.77 592.61,-1010.77 592.61,-981.32 592.61,-981.32 592.61,-979.51 607.4,-978.04 625.61,-978.04 643.82,-978.04 658.61,-979.51 658.61,-981.32 658.61,-981.32 658.61,-1010.77 658.61,-1010.77"/>
<path fill="none" stroke="black" d="M658.61,-1010.77C658.61,-1008.97 643.82,-1007.5 625.61,-1007.5 607.4,-1007.5 592.61,-1008.97 592.61,-1010.77"/>
<text text-anchor="middle" x="625.61" y="-992.34" font-family="Times,serif" font-size="14.00">Names</text>
</g>
<!-- MTDT&#45;Distribution&#45;&gt;Names -->
<g id="edge11" class="edge">
<title>MTDT&#45;Distribution&#45;&gt;Names</title>
<path fill="none" stroke="black" d="M610.19,-1084.84C610.58,-1073.83 611.33,-1062.61 612.61,-1052.04 613.73,-1042.8 615.81,-1032.86 617.98,-1024"/>
<polygon fill="black" stroke="black" points="621.39,-1024.76 620.51,-1014.21 614.62,-1023.01 621.39,-1024.76"/>
<text text-anchor="middle" x="658.61" y="-1055.84" font-family="Times,serif" font-size="14.00">Specification</text>
</g>
<!-- Distributions -->
<g id="node13" class="node">
<title>Distributions</title>
<path fill="#fff68f" stroke="black" d="M401.61,-767.9C401.61,-769.71 376.96,-771.17 346.61,-771.17 316.26,-771.17 291.61,-769.71 291.61,-767.9 291.61,-767.9 291.61,-738.45 291.61,-738.45 291.61,-736.64 316.26,-735.17 346.61,-735.17 376.96,-735.17 401.61,-736.64 401.61,-738.45 401.61,-738.45 401.61,-767.9 401.61,-767.9"/>
<path fill="none" stroke="black" d="M401.61,-767.9C401.61,-766.1 376.96,-764.63 346.61,-764.63 316.26,-764.63 291.61,-766.1 291.61,-767.9"/>
<text text-anchor="middle" x="346.61" y="-749.47" font-family="Times,serif" font-size="14.00">Distributions</text>
</g>
<!-- MTDT&#45;Distribution&#45;&gt;Distributions -->
<g id="edge12" class="edge">
<title>MTDT&#45;Distribution&#45;&gt;Distributions</title>
<path fill="none" stroke="black" d="M539.93,-1144.74C473.71,-1129.86 377.17,-1098.22 319.61,-1034.04 255.35,-962.39 306.09,-835.1 332.8,-780.38"/>
<polygon fill="black" stroke="black" points="335.98,-781.84 337.33,-771.33 329.72,-778.71 335.98,-781.84"/>
<text text-anchor="middle" x="334.61" y="-928.84" font-family="Times,serif" font-size="14.00">Specification</text>
</g>
<!-- Tracking -->
<g id="node14" class="node">
<title>Tracking</title>
<path fill="#fff68f" stroke="black" d="M407.11,-1010.77C407.11,-1012.58 389.4,-1014.04 367.61,-1014.04 345.81,-1014.04 328.11,-1012.58 328.11,-1010.77 328.11,-1010.77 328.11,-981.32 328.11,-981.32 328.11,-979.51 345.81,-978.04 367.61,-978.04 389.4,-978.04 407.11,-979.51 407.11,-981.32 407.11,-981.32 407.11,-1010.77 407.11,-1010.77"/>
<path fill="none" stroke="black" d="M407.11,-1010.77C407.11,-1008.97 389.4,-1007.5 367.61,-1007.5 345.81,-1007.5 328.11,-1008.97 328.11,-1010.77"/>
<text text-anchor="middle" x="367.61" y="-992.34" font-family="Times,serif" font-size="14.00">Tracking</text>
</g>
<!-- MTDT&#45;Distribution&#45;&gt;Tracking -->
<g id="edge13" class="edge">
<title>MTDT&#45;Distribution&#45;&gt;Tracking</title>
<path fill="none" stroke="black" d="M545.4,-1127.11C512.9,-1111.22 473.9,-1090.19 441.61,-1067.04 423.05,-1053.74 404.39,-1036.06 390.46,-1021.79"/>
<polygon fill="black" stroke="black" points="392.68,-1019.05 383.23,-1014.27 387.63,-1023.9 392.68,-1019.05"/>
<text text-anchor="middle" x="479.61" y="-1055.84" font-family="Times,serif" font-size="14.00">Machinary</text>
</g>
<!-- Interactive&#45;&gt;MtdtMenu -->
<g id="edge15" class="edge">
<title>Interactive&#45;&gt;MtdtMenu</title>
<path fill="none" stroke="black" d="M788.92,-463.28C771.8,-447.14 752.68,-429.12 736.02,-413.42"/>
<polygon fill="black" stroke="black" points="738.23,-410.7 728.56,-406.38 733.43,-415.79 738.23,-410.7"/>
</g>
<!-- lcntProcMailing -->
<g id="node16" class="node">
<title>lcntProcMailing</title>
<polygon fill="#cd7054" stroke="black" points="868.11,-400 789.11,-400 789.11,-343 868.11,-343 868.11,-337 886.11,-371.5 868.11,-406 868.11,-400"/>
<text text-anchor="middle" x="837.61" y="-374.8" font-family="Times,serif" font-size="14.00">lcntProc.sh</text>
<text text-anchor="middle" x="837.61" y="-359.8" font-family="Times,serif" font-size="14.00">Mailing</text>
<text text-anchor="middle" x="837.61" y="-344.8" font-family="Times,serif" font-size="14.00"> </text>
</g>
<!-- Interactive&#45;&gt;lcntProcMailing -->
<g id="edge16" class="edge">
<title>Interactive&#45;&gt;lcntProcMailing</title>
<path fill="none" stroke="black" d="M837.61,-442.84C837.61,-433.94 837.61,-425 837.61,-416.62"/>
<polygon fill="black" stroke="black" points="841.11,-416.35 837.61,-406.35 834.11,-416.35 841.11,-416.35"/>
</g>
<!-- doSend -->
<g id="node17" class="node">
<title>doSend</title>
<polygon fill="#c1cdcd" stroke="black" points="936.61,-887.04 866.61,-887.04 866.61,-851.04 936.61,-851.04 936.61,-887.04"/>
<text text-anchor="middle" x="901.61" y="-865.34" font-family="Times,serif" font-size="14.00">doSend</text>
</g>
<!-- SendExtent&#45;&gt;doSend -->
<g id="edge22" class="edge">
<title>SendExtent&#45;&gt;doSend</title>
<path fill="none" stroke="black" d="M937.25,-950.35C935.68,-946.87 934.11,-943.4 932.61,-940.04 924.56,-922.1 915.45,-901.5 909.21,-887.32"/>
<polygon fill="black" stroke="black" points="934.11,-951.9 941.42,-959.56 940.49,-949.01 934.11,-951.9"/>
<text text-anchor="middle" x="954.11" y="-928.84" font-family="Times,serif" font-size="14.00">Enum</text>
</g>
<!-- unsentBuf -->
<g id="node18" class="node">
<title>unsentBuf</title>
<polygon fill="#c1cdcd" stroke="black" points="1064.61,-887.04 954.61,-887.04 954.61,-851.04 1064.61,-851.04 1064.61,-887.04"/>
<text text-anchor="middle" x="1009.61" y="-865.34" font-family="Times,serif" font-size="14.00">unsentBuffer</text>
</g>
<!-- SendExtent&#45;&gt;unsentBuf -->
<g id="edge23" class="edge">
<title>SendExtent&#45;&gt;unsentBuf</title>
<path fill="none" stroke="black" d="M976.3,-950.12C985.37,-928.32 995.73,-903.41 1002.45,-887.24"/>
<polygon fill="black" stroke="black" points="972.98,-948.98 972.37,-959.56 979.44,-951.67 972.98,-948.98"/>
<text text-anchor="middle" x="1008.11" y="-928.84" font-family="Times,serif" font-size="14.00">Enum</text>
</g>
<!-- sendWithExtent -->
<g id="node28" class="node">
<title>sendWithExtent</title>
<ellipse fill="darksalmon" stroke="black" cx="837.61" cy="-282" rx="85.59" ry="18"/>
<text text-anchor="middle" x="837.61" y="-278.3" font-family="Times,serif" font-size="14.00">sendWithExtent</text>
</g>
<!-- SendExtent&#45;&gt;sendWithExtent -->
<g id="edge24" class="edge">
<title>SendExtent&#45;&gt;sendWithExtent</title>
<path fill="none" stroke="black" d="M996.66,-978.87C1036.53,-959.44 1092.61,-922.75 1092.61,-870.04 1092.61,-870.04 1092.61,-870.04 1092.61,-370.5 1092.61,-332.71 991.12,-307.77 916.2,-294.52"/>
<polygon fill="black" stroke="black" points="916.73,-291.06 906.28,-292.8 915.54,-297.95 916.73,-291.06"/>
<text text-anchor="middle" x="1116.61" y="-648.13" font-family="Times,serif" font-size="14.00">inform</text>
</g>
<!-- Recipients -->
<g id="node19" class="node">
<title>Recipients</title>
<ellipse fill="#fff68f" stroke="black" cx="484.61" cy="-869.04" rx="59.59" ry="18"/>
<text text-anchor="middle" x="484.61" y="-865.34" font-family="Times,serif" font-size="14.00">Recipients</text>
</g>
<!-- OorR&#45;&gt;Recipients -->
<g id="edge25" class="edge">
<title>OorR&#45;&gt;Recipients</title>
<path fill="none" stroke="black" d="M497.56,-977.93C495.07,-957.19 490.84,-922 487.9,-897.47"/>
<polygon fill="black" stroke="black" points="491.35,-896.87 486.69,-887.36 484.4,-897.7 491.35,-896.87"/>
</g>
<!-- bbdb2 -->
<g id="node23" class="node">
<title>bbdb2</title>
<ellipse fill="#fff68f" stroke="black" cx="644.61" cy="-753.17" rx="40.09" ry="18"/>
<text text-anchor="middle" x="644.61" y="-749.47" font-family="Times,serif" font-size="14.00">bbdb2</text>
</g>
<!-- AddressBook&#45;&gt;bbdb2 -->
<g id="edge29" class="edge">
<title>AddressBook&#45;&gt;bbdb2</title>
<path fill="none" stroke="black" d="M737.05,-850.75C718.3,-831.16 687.65,-799.14 666.83,-777.39"/>
<polygon fill="black" stroke="black" points="669.35,-774.96 659.91,-770.16 664.3,-779.8 669.35,-774.96"/>
</g>
<!-- bbdb3 -->
<g id="node24" class="node">
<title>bbdb3</title>
<ellipse fill="#fff68f" stroke="black" cx="743.61" cy="-753.17" rx="40.09" ry="18"/>
<text text-anchor="middle" x="743.61" y="-749.47" font-family="Times,serif" font-size="14.00">bbdb3</text>
</g>
<!-- AddressBook&#45;&gt;bbdb3 -->
<g id="edge30" class="edge">
<title>AddressBook&#45;&gt;bbdb3</title>
<path fill="none" stroke="black" d="M752.09,-850.75C750.47,-832.33 747.89,-802.93 746,-781.4"/>
<polygon fill="black" stroke="black" points="749.47,-780.91 745.11,-771.26 742.5,-781.53 749.47,-780.91"/>
</g>
<!-- NamesFile -->
<g id="node25" class="node">
<title>NamesFile</title>
<ellipse fill="#fff68f" stroke="black" cx="620.61" cy="-869.04" rx="58.49" ry="18"/>
<text text-anchor="middle" x="620.61" y="-865.34" font-family="Times,serif" font-size="14.00">namesFile</text>
</g>
<!-- Names&#45;&gt;NamesFile -->
<g id="edge31" class="edge">
<title>Names&#45;&gt;NamesFile</title>
<path fill="none" stroke="black" d="M624.92,-977.93C624.1,-957.19 622.69,-922 621.71,-897.47"/>
<polygon fill="black" stroke="black" points="625.2,-897.21 621.3,-887.36 618.2,-897.49 625.2,-897.21"/>
</g>
<!-- DistNamesFile -->
<g id="node26" class="node">
<title>DistNamesFile</title>
<ellipse fill="#fff68f" stroke="black" cx="346.61" cy="-651.83" rx="77.99" ry="18"/>
<text text-anchor="middle" x="346.61" y="-648.13" font-family="Times,serif" font-size="14.00">distNamesFile</text>
</g>
<!-- Distributions&#45;&gt;DistNamesFile -->
<g id="edge37" class="edge">
<title>Distributions&#45;&gt;DistNamesFile</title>
<path fill="none" stroke="black" d="M346.61,-734.87C346.61,-719.77 346.61,-697.6 346.61,-680.11"/>
<polygon fill="black" stroke="black" points="350.11,-679.93 346.61,-669.93 343.11,-679.93 350.11,-679.93"/>
</g>
<!-- LogFile -->
<g id="node27" class="node">
<title>LogFile</title>
<ellipse fill="#fff68f" stroke="black" cx="364.61" cy="-869.04" rx="42.49" ry="18"/>
<text text-anchor="middle" x="364.61" y="-865.34" font-family="Times,serif" font-size="14.00">logFile</text>
</g>
<!-- Tracking&#45;&gt;LogFile -->
<g id="edge39" class="edge">
<title>Tracking&#45;&gt;LogFile</title>
<path fill="none" stroke="black" d="M377.25,-977.97C384.03,-963.91 391.29,-943.38 387.61,-925.04 385.64,-915.21 381.86,-904.93 377.93,-895.96"/>
<polygon fill="black" stroke="black" points="381.07,-894.42 373.68,-886.83 374.72,-897.37 381.07,-894.42"/>
</g>
<!-- MtdtMenu&#45;&gt;sendWithExtent -->
<g id="edge17" class="edge">
<title>MtdtMenu&#45;&gt;sendWithExtent</title>
<path fill="none" stroke="black" d="M748.26,-336.92C766.31,-326.02 785.85,-314.23 802.04,-304.47"/>
<polygon fill="black" stroke="black" points="803.9,-307.43 810.65,-299.27 800.28,-301.44 803.9,-307.43"/>
</g>
<!-- lcntProcMailing&#45;&gt;sendWithExtent -->
<g id="edge18" class="edge">
<title>lcntProcMailing&#45;&gt;sendWithExtent</title>
<path fill="none" stroke="black" d="M837.61,-336.92C837.61,-328.11 837.61,-318.72 837.61,-310.28"/>
<polygon fill="black" stroke="black" points="841.11,-310.22 837.61,-300.22 834.11,-310.22 841.11,-310.22"/>
</g>
<!-- RecipientsList -->
<g id="node20" class="node">
<title>RecipientsList</title>
<ellipse fill="#fff68f" stroke="black" cx="503.61" cy="-753.17" rx="79.89" ry="18"/>
<text text-anchor="middle" x="503.61" y="-749.47" font-family="Times,serif" font-size="14.00">Recipients List</text>
</g>
<!-- Recipients&#45;&gt;RecipientsList -->
<g id="edge26" class="edge">
<title>Recipients&#45;&gt;RecipientsList</title>
<path fill="none" stroke="black" d="M487.5,-850.75C490.57,-832.33 495.47,-802.93 499.07,-781.4"/>
<polygon fill="black" stroke="black" points="502.57,-781.7 500.76,-771.26 495.66,-780.55 502.57,-781.7"/>
</g>
<!-- RecipientsListForm -->
<g id="node21" class="node">
<title>RecipientsListForm</title>
<ellipse fill="#fff68f" stroke="black" cx="549.61" cy="-651.83" rx="107.48" ry="18"/>
<text text-anchor="middle" x="549.61" y="-648.13" font-family="Times,serif" font-size="14.00">Recipients List Form</text>
</g>
<!-- RecipientsList&#45;&gt;RecipientsListForm -->
<g id="edge27" class="edge">
<title>RecipientsList&#45;&gt;RecipientsListForm</title>
<path fill="none" stroke="black" d="M511.62,-734.87C518.75,-719.48 529.27,-696.76 537.43,-679.13"/>
<polygon fill="black" stroke="black" points="540.66,-680.48 541.69,-669.93 534.31,-677.54 540.66,-680.48"/>
</g>
<!-- RecipientsListFormFile -->
<g id="node22" class="node">
<title>RecipientsListFormFile</title>
<ellipse fill="green" stroke="black" cx="684.61" cy="-510.18" rx="65.11" ry="58.88"/>
<text text-anchor="middle" x="684.61" y="-536.48" font-family="Times,serif" font-size="14.00">Selected</text>
<text text-anchor="middle" x="684.61" y="-521.48" font-family="Times,serif" font-size="14.00">Recipients</text>
<text text-anchor="middle" x="684.61" y="-506.48" font-family="Times,serif" font-size="14.00">List</text>
<text text-anchor="middle" x="684.61" y="-491.48" font-family="Times,serif" font-size="14.00">Form</text>
<text text-anchor="middle" x="684.61" y="-476.48" font-family="Times,serif" font-size="14.00"> File</text>
</g>
<!-- RecipientsListForm&#45;&gt;RecipientsListFormFile -->
<g id="edge28" class="edge">
<title>RecipientsListForm&#45;&gt;RecipientsListFormFile</title>
<path fill="none" stroke="black" d="M565.89,-633.98C583,-616.29 610.75,-587.58 635.12,-562.37"/>
<polygon fill="black" stroke="black" points="637.79,-564.64 642.23,-555.02 632.76,-559.77 637.79,-564.64"/>
</g>
<!-- RecipientsListFormFile&#45;&gt;MtdtMenu -->
<g id="edge36" class="edge">
<title>RecipientsListFormFile&#45;&gt;MtdtMenu</title>
<path fill="none" stroke="black" d="M688,-451.21C688.69,-439.52 689.39,-427.42 690.04,-416.31"/>
<polygon fill="black" stroke="black" points="693.56,-416.2 690.65,-406.02 686.57,-415.79 693.56,-416.2"/>
</g>
<!-- bbdb2&#45;&gt;RecipientsListFormFile -->
<g id="edge33" class="edge">
<title>bbdb2&#45;&gt;RecipientsListFormFile</title>
<path fill="none" stroke="black" d="M651.33,-735.37C656.05,-722.87 662.13,-705.27 665.61,-689.3 673.43,-653.36 678.08,-612.61 680.82,-579.17"/>
<polygon fill="black" stroke="black" points="684.32,-579.28 681.61,-569.04 677.34,-578.74 684.32,-579.28"/>
</g>
<!-- bbdb3&#45;&gt;RecipientsListFormFile -->
<g id="edge35" class="edge">
<title>bbdb3&#45;&gt;RecipientsListFormFile</title>
<path fill="none" stroke="black" d="M739.46,-735.23C731.56,-702.95 713.97,-631.09 700.82,-577.4"/>
<polygon fill="black" stroke="black" points="704.2,-576.48 698.42,-567.6 697.4,-578.15 704.2,-576.48"/>
</g>
<!-- NamesFile&#45;&gt;bbdb2 -->
<g id="edge32" class="edge">
<title>NamesFile&#45;&gt;bbdb2</title>
<path fill="none" stroke="black" d="M624.25,-850.75C628.15,-832.25 634.39,-802.67 638.93,-781.11"/>
<polygon fill="black" stroke="black" points="642.37,-781.76 641.01,-771.26 635.52,-780.32 642.37,-781.76"/>
</g>
<!-- NamesFile&#45;&gt;bbdb3 -->
<g id="edge34" class="edge">
<title>NamesFile&#45;&gt;bbdb3</title>
<path fill="none" stroke="black" d="M638.23,-851.73C659.48,-832.06 695.3,-798.89 719.2,-776.77"/>
<polygon fill="black" stroke="black" points="721.85,-779.09 726.81,-769.73 717.09,-773.95 721.85,-779.09"/>
</g>
<!-- DistNamesFile&#45;&gt;RecipientsListFormFile -->
<g id="edge38" class="edge">
<title>DistNamesFile&#45;&gt;RecipientsListFormFile</title>
<path fill="none" stroke="black" d="M381,-635.45C396.87,-628.6 416.04,-620.68 433.61,-614.35 486.92,-595.15 503.08,-598.59 555.61,-577.35 577.36,-568.56 600.37,-557.39 620.84,-546.75"/>
<polygon fill="black" stroke="black" points="622.53,-549.82 629.75,-542.07 619.27,-543.62 622.53,-549.82"/>
</g>
<!-- LogFile&#45;&gt;Distributions -->
<g id="edge40" class="edge">
<title>LogFile&#45;&gt;Distributions</title>
<path fill="none" stroke="black" d="M361.88,-850.75C358.96,-832.33 354.32,-802.93 350.91,-781.4"/>
<polygon fill="black" stroke="black" points="354.33,-780.59 349.31,-771.26 347.41,-781.68 354.33,-780.59"/>
</g>
<!-- unsentBuffer -->
<g id="node29" class="node">
<title>unsentBuffer</title>
<polygon fill="deepskyblue" stroke="black" points="881.9,-121 961.32,-121 989.61,-227 853.61,-227 881.9,-121"/>
<text text-anchor="middle" x="921.61" y="-185.3" font-family="Times,serif" font-size="14.00">Unsent</text>
<text text-anchor="middle" x="921.61" y="-170.3" font-family="Times,serif" font-size="14.00">Mail</text>
<text text-anchor="middle" x="921.61" y="-155.3" font-family="Times,serif" font-size="14.00">Buffer</text>
</g>
<!-- sendWithExtent&#45;&gt;unsentBuffer -->
<g id="edge19" class="edge">
<title>sendWithExtent&#45;&gt;unsentBuffer</title>
<path fill="none" stroke="black" d="M851.11,-263.97C857.46,-255.95 865.47,-245.85 873.78,-235.35"/>
<polygon fill="black" stroke="black" points="876.71,-237.29 880.18,-227.28 871.23,-232.94 876.71,-237.29"/>
</g>
<!-- sent -->
<g id="node30" class="node">
<title>sent</title>
<polygon fill="cyan" stroke="black" points="874.11,-78 789.11,-78 789.11,-6 874.11,-6 886.11,-42 874.11,-78"/>
<text text-anchor="middle" x="837.61" y="-52.8" font-family="Times,serif" font-size="14.00">Resident</text>
<text text-anchor="middle" x="837.61" y="-37.8" font-family="Times,serif" font-size="14.00">MTA</text>
<text text-anchor="middle" x="837.61" y="-22.8" font-family="Times,serif" font-size="14.00">(MARMEE)</text>
<text text-anchor="middle" x="837.61" y="-7.8" font-family="Times,serif" font-size="14.00"> </text>
</g>
<!-- sendWithExtent&#45;&gt;sent -->
<g id="edge20" class="edge">
<title>sendWithExtent&#45;&gt;sent</title>
<path fill="none" stroke="black" d="M837.61,-263.88C837.61,-228.91 837.61,-148.04 837.61,-94.47"/>
<polygon fill="black" stroke="black" points="841.11,-94.14 837.61,-84.14 834.11,-94.14 841.11,-94.14"/>
</g>
<!-- unsentBuffer&#45;&gt;sent -->
<g id="edge21" class="edge">
<title>unsentBuffer&#45;&gt;sent</title>
<path fill="none" stroke="black" d="M887.93,-120.87C881.98,-111.67 875.8,-102.1 869.89,-92.95"/>
<polygon fill="black" stroke="black" points="872.69,-90.84 864.32,-84.34 866.81,-94.64 872.69,-90.84"/>
</g>
</g>
</svg>
