<?xml version="1.0" encoding="UTF-8" standalone="no"?>
<!DOCTYPE svg PUBLIC "-//W3C//DTD SVG 1.1//EN"
 "http://www.w3.org/Graphics/SVG/1.1/DTD/svg11.dtd">
<!-- Generated by graphviz version 2.43.0 (0)
 -->
<!-- Title: %3 Pages: 1 -->
<svg width="1785pt" height="804pt"
 viewBox="0.00 0.00 1785.06 804.00" xmlns="http://www.w3.org/2000/svg" xmlns:xlink="http://www.w3.org/1999/xlink">
<g id="graph0" class="graph" transform="scale(1 1) rotate(0) translate(4 800)">
<title>%3</title>
<polygon fill="white" stroke="transparent" points="-4,4 -4,-800 1781.06,-800 1781.06,4 -4,4"/>
<!-- MTDT -->
<g id="node1" class="node">
<title>MTDT</title>
<ellipse fill="#9bcd9b" stroke="black" cx="47.38" cy="-269" rx="47.25" ry="47.25"/>
<text text-anchor="middle" x="47.38" y="-272.8" font-family="Times,serif" font-size="14.00">MTDT</text>
<text text-anchor="middle" x="47.38" y="-257.8" font-family="Times,serif" font-size="14.00">Concepts</text>
</g>
<!-- SelectedCompositionFwrk -->
<g id="node2" class="node">
<title>SelectedCompositionFwrk</title>
<path fill="green" stroke="black" d="M1411.39,-578.73C1411.39,-580.53 1365.89,-582 1309.89,-582 1253.88,-582 1208.39,-580.53 1208.39,-578.73 1208.39,-578.73 1208.39,-549.27 1208.39,-549.27 1208.39,-547.47 1253.88,-546 1309.89,-546 1365.89,-546 1411.39,-547.47 1411.39,-549.27 1411.39,-549.27 1411.39,-578.73 1411.39,-578.73"/>
<path fill="none" stroke="black" d="M1411.39,-578.73C1411.39,-576.92 1365.89,-575.45 1309.89,-575.45 1253.88,-575.45 1208.39,-576.92 1208.39,-578.73"/>
<text text-anchor="middle" x="1309.89" y="-560.3" font-family="Times,serif" font-size="14.00">Selected Composition Framework</text>
</g>
<!-- MTDT&#45;&gt;SelectedCompositionFwrk -->
<g id="edge1" class="edge">
<title>MTDT&#45;&gt;SelectedCompositionFwrk</title>
<path fill="none" stroke="black" d="M54.65,-316.08C68.63,-398.9 110.52,-562 223.75,-562 223.75,-562 223.75,-562 1070.35,-562 1112.06,-562 1157.87,-562.31 1198.1,-562.69"/>
<polygon fill="black" stroke="black" points="1198.17,-566.19 1208.2,-562.78 1198.23,-559.19 1198.17,-566.19"/>
<text text-anchor="middle" x="658.03" y="-565.8" font-family="Times,serif" font-size="14.00">Enum</text>
</g>
<!-- MailingFile -->
<g id="node3" class="node">
<title>MailingFile</title>
<path fill="darksalmon" stroke="black" d="M418.8,-380.73C418.8,-382.53 400.64,-384 378.3,-384 355.95,-384 337.8,-382.53 337.8,-380.73 337.8,-380.73 337.8,-351.27 337.8,-351.27 337.8,-349.47 355.95,-348 378.3,-348 400.64,-348 418.8,-349.47 418.8,-351.27 418.8,-351.27 418.8,-380.73 418.8,-380.73"/>
<path fill="none" stroke="black" d="M418.8,-380.73C418.8,-378.92 400.64,-377.45 378.3,-377.45 355.95,-377.45 337.8,-378.92 337.8,-380.73"/>
<text text-anchor="middle" x="378.3" y="-362.3" font-family="Times,serif" font-size="14.00">MailingFile</text>
</g>
<!-- MTDT&#45;&gt;MailingFile -->
<g id="edge2" class="edge">
<title>MTDT&#45;&gt;MailingFile</title>
<path fill="none" stroke="black" d="M78.82,-304.51C88.7,-313.91 100.34,-323.09 112.75,-329 181.98,-361.98 272.14,-367.79 327.31,-367.77"/>
<polygon fill="black" stroke="black" points="327.55,-371.27 337.53,-367.7 327.5,-364.27 327.55,-371.27"/>
<text text-anchor="middle" x="224.75" y="-369.8" font-family="Times,serif" font-size="14.00">Enum</text>
</g>
<!-- Interactive -->
<g id="node4" class="node">
<title>Interactive</title>
<path fill="darksalmon" stroke="black" d="M915.51,-350.73C915.51,-352.53 883.69,-354 844.51,-354 805.34,-354 773.51,-352.53 773.51,-350.73 773.51,-350.73 773.51,-321.27 773.51,-321.27 773.51,-319.47 805.34,-318 844.51,-318 883.69,-318 915.51,-319.47 915.51,-321.27 915.51,-321.27 915.51,-350.73 915.51,-350.73"/>
<path fill="none" stroke="black" d="M915.51,-350.73C915.51,-348.92 883.69,-347.45 844.51,-347.45 805.34,-347.45 773.51,-348.92 773.51,-350.73"/>
<text text-anchor="middle" x="844.51" y="-332.3" font-family="Times,serif" font-size="14.00">Interactive Invokations</text>
</g>
<!-- MTDT&#45;&gt;Interactive -->
<g id="edge3" class="edge">
<title>MTDT&#45;&gt;Interactive</title>
<path fill="none" stroke="black" d="M91.52,-286.92C126.52,-299.83 177.48,-315 223.75,-315 223.75,-315 223.75,-315 659.03,-315 693.2,-315 730.72,-318.6 762.94,-322.82"/>
<polygon fill="black" stroke="black" points="762.82,-326.34 773.2,-324.21 763.76,-319.4 762.82,-326.34"/>
<text text-anchor="middle" x="378.3" y="-318.8" font-family="Times,serif" font-size="14.00">Enum</text>
</g>
<!-- SendExtent -->
<g id="node5" class="node">
<title>SendExtent</title>
<path fill="green" stroke="black" d="M266.25,-461.73C266.25,-463.53 247.65,-465 224.75,-465 201.85,-465 183.25,-463.53 183.25,-461.73 183.25,-461.73 183.25,-432.27 183.25,-432.27 183.25,-430.47 201.85,-429 224.75,-429 247.65,-429 266.25,-430.47 266.25,-432.27 266.25,-432.27 266.25,-461.73 266.25,-461.73"/>
<path fill="none" stroke="black" d="M266.25,-461.73C266.25,-459.92 247.65,-458.45 224.75,-458.45 201.85,-458.45 183.25,-459.92 183.25,-461.73"/>
<text text-anchor="middle" x="224.75" y="-443.3" font-family="Times,serif" font-size="14.00">Send Extent</text>
</g>
<!-- MTDT&#45;&gt;SendExtent -->
<g id="edge4" class="edge">
<title>MTDT&#45;&gt;SendExtent</title>
<path fill="none" stroke="black" d="M67.96,-311.91C79.05,-333.14 94.39,-358.17 112.75,-377 131.75,-396.48 157.18,-413.02 178.91,-425.12"/>
<polygon fill="black" stroke="black" points="177.51,-428.34 187.97,-430.04 180.84,-422.19 177.51,-428.34"/>
<text text-anchor="middle" x="129.75" y="-407.8" font-family="Times,serif" font-size="14.00">Enum</text>
</g>
<!-- OorR -->
<g id="node6" class="node">
<title>OorR</title>
<path fill="darksalmon" stroke="black" d="M284.75,-283.73C284.75,-285.53 257.86,-287 224.75,-287 191.65,-287 164.75,-285.53 164.75,-283.73 164.75,-283.73 164.75,-254.27 164.75,-254.27 164.75,-252.47 191.65,-251 224.75,-251 257.86,-251 284.75,-252.47 284.75,-254.27 284.75,-254.27 284.75,-283.73 284.75,-283.73"/>
<path fill="none" stroke="black" d="M284.75,-283.73C284.75,-281.92 257.86,-280.45 224.75,-280.45 191.65,-280.45 164.75,-281.92 164.75,-283.73"/>
<text text-anchor="middle" x="224.75" y="-265.3" font-family="Times,serif" font-size="14.00">Orig Or Recipients</text>
</g>
<!-- MTDT&#45;&gt;OorR -->
<g id="edge5" class="edge">
<title>MTDT&#45;&gt;OorR</title>
<path fill="none" stroke="black" d="M94.91,-269C113.23,-269 134.65,-269 154.7,-269"/>
<polygon fill="black" stroke="black" points="154.72,-272.5 164.72,-269 154.72,-265.5 154.72,-272.5"/>
<text text-anchor="middle" x="129.75" y="-272.8" font-family="Times,serif" font-size="14.00">Enum</text>
</g>
<!-- AddressBook -->
<g id="node7" class="node">
<title>AddressBook</title>
<path fill="darksalmon" stroke="black" d="M271.75,-121.73C271.75,-123.53 250.69,-125 224.75,-125 198.82,-125 177.75,-123.53 177.75,-121.73 177.75,-121.73 177.75,-92.27 177.75,-92.27 177.75,-90.47 198.82,-89 224.75,-89 250.69,-89 271.75,-90.47 271.75,-92.27 271.75,-92.27 271.75,-121.73 271.75,-121.73"/>
<path fill="none" stroke="black" d="M271.75,-121.73C271.75,-119.92 250.69,-118.45 224.75,-118.45 198.82,-118.45 177.75,-119.92 177.75,-121.73"/>
<text text-anchor="middle" x="224.75" y="-103.3" font-family="Times,serif" font-size="14.00">Address Book</text>
</g>
<!-- MTDT&#45;&gt;AddressBook -->
<g id="edge6" class="edge">
<title>MTDT&#45;&gt;AddressBook</title>
<path fill="none" stroke="black" d="M73.27,-229.28C84.46,-212.7 98.37,-193.69 112.75,-178 133.21,-155.69 139.19,-150.23 164.75,-134 167.65,-132.16 170.68,-130.38 173.79,-128.67"/>
<polygon fill="black" stroke="black" points="175.43,-131.76 182.68,-124.03 172.19,-125.56 175.43,-131.76"/>
<text text-anchor="middle" x="129.75" y="-181.8" font-family="Times,serif" font-size="14.00">Enum</text>
</g>
<!-- Names -->
<g id="node8" class="node">
<title>Names</title>
<path fill="darksalmon" stroke="black" d="M252.25,-175.73C252.25,-177.53 239.93,-179 224.75,-179 209.58,-179 197.25,-177.53 197.25,-175.73 197.25,-175.73 197.25,-146.27 197.25,-146.27 197.25,-144.47 209.58,-143 224.75,-143 239.93,-143 252.25,-144.47 252.25,-146.27 252.25,-146.27 252.25,-175.73 252.25,-175.73"/>
<path fill="none" stroke="black" d="M252.25,-175.73C252.25,-173.92 239.93,-172.45 224.75,-172.45 209.58,-172.45 197.25,-173.92 197.25,-175.73"/>
<text text-anchor="middle" x="224.75" y="-157.3" font-family="Times,serif" font-size="14.00">Names</text>
</g>
<!-- MTDT&#45;&gt;Names -->
<g id="edge7" class="edge">
<title>MTDT&#45;&gt;Names</title>
<path fill="none" stroke="black" d="M84.9,-239.39C93.85,-232.48 103.52,-225.3 112.75,-219 134.97,-203.83 140.93,-200.51 164.75,-188 172.13,-184.13 180.16,-180.24 187.86,-176.67"/>
<polygon fill="black" stroke="black" points="189.38,-179.83 197.02,-172.49 186.47,-173.46 189.38,-179.83"/>
<text text-anchor="middle" x="129.75" y="-222.8" font-family="Times,serif" font-size="14.00">Enum</text>
</g>
<!-- Distributions -->
<g id="node9" class="node">
<title>Distributions</title>
<path fill="darksalmon" stroke="black" d="M268.25,-229.73C268.25,-231.53 248.75,-233 224.75,-233 200.75,-233 181.25,-231.53 181.25,-229.73 181.25,-229.73 181.25,-200.27 181.25,-200.27 181.25,-198.47 200.75,-197 224.75,-197 248.75,-197 268.25,-198.47 268.25,-200.27 268.25,-200.27 268.25,-229.73 268.25,-229.73"/>
<path fill="none" stroke="black" d="M268.25,-229.73C268.25,-227.92 248.75,-226.45 224.75,-226.45 200.75,-226.45 181.25,-227.92 181.25,-229.73"/>
<text text-anchor="middle" x="224.75" y="-211.3" font-family="Times,serif" font-size="14.00">Distributions</text>
</g>
<!-- MTDT&#45;&gt;Distributions -->
<g id="edge8" class="edge">
<title>MTDT&#45;&gt;Distributions</title>
<path fill="none" stroke="black" d="M93.08,-255.23C117.01,-247.87 146.6,-238.76 171.56,-231.07"/>
<polygon fill="black" stroke="black" points="172.71,-234.38 181.24,-228.09 170.65,-227.69 172.71,-234.38"/>
<text text-anchor="middle" x="129.75" y="-251.8" font-family="Times,serif" font-size="14.00">Enum</text>
</g>
<!-- Tracking -->
<g id="node10" class="node">
<title>Tracking</title>
<path fill="darksalmon" stroke="black" d="M257.25,-52.73C257.25,-54.53 242.69,-56 224.75,-56 206.82,-56 192.25,-54.53 192.25,-52.73 192.25,-52.73 192.25,-23.27 192.25,-23.27 192.25,-21.47 206.82,-20 224.75,-20 242.69,-20 257.25,-21.47 257.25,-23.27 257.25,-23.27 257.25,-52.73 257.25,-52.73"/>
<path fill="none" stroke="black" d="M257.25,-52.73C257.25,-50.92 242.69,-49.45 224.75,-49.45 206.82,-49.45 192.25,-50.92 192.25,-52.73"/>
<text text-anchor="middle" x="224.75" y="-34.3" font-family="Times,serif" font-size="14.00">Tracking</text>
</g>
<!-- MTDT&#45;&gt;Tracking -->
<g id="edge9" class="edge">
<title>MTDT&#45;&gt;Tracking</title>
<path fill="none" stroke="black" d="M63.24,-224.24C74.23,-194.95 91.04,-156.73 112.75,-127 132.47,-100 162.38,-76.66 186.18,-60.67"/>
<polygon fill="black" stroke="black" points="188.2,-63.53 194.64,-55.12 184.36,-57.68 188.2,-63.53"/>
<text text-anchor="middle" x="129.75" y="-130.8" font-family="Times,serif" font-size="14.00">Enum</text>
</g>
<!-- PlainText -->
<g id="node11" class="node">
<title>PlainText</title>
<ellipse fill="green" stroke="black" cx="1554.18" cy="-724" rx="44.69" ry="18"/>
<text text-anchor="middle" x="1554.18" y="-720.3" font-family="Times,serif" font-size="14.00">PlainText</text>
</g>
<!-- SelectedCompositionFwrk&#45;&gt;PlainText -->
<g id="edge10" class="edge">
<title>SelectedCompositionFwrk&#45;&gt;PlainText</title>
<path fill="none" stroke="black" d="M1329.95,-582.08C1360.09,-609.87 1421.46,-663.4 1481.39,-697 1489.83,-701.74 1499.28,-705.96 1508.47,-709.58"/>
<polygon fill="black" stroke="black" points="1507.31,-712.89 1517.9,-713.14 1509.78,-706.34 1507.31,-712.89"/>
<text text-anchor="middle" x="1446.39" y="-688.8" font-family="Times,serif" font-size="14.00">Enum</text>
</g>
<!-- OrgMsg -->
<g id="node12" class="node">
<title>OrgMsg</title>
<ellipse fill="green" stroke="black" cx="1554.18" cy="-670" rx="40.09" ry="18"/>
<text text-anchor="middle" x="1554.18" y="-666.3" font-family="Times,serif" font-size="14.00">OrgMsg</text>
</g>
<!-- SelectedCompositionFwrk&#45;&gt;OrgMsg -->
<g id="edge11" class="edge">
<title>SelectedCompositionFwrk&#45;&gt;OrgMsg</title>
<path fill="none" stroke="black" d="M1347.78,-582.06C1382.08,-598.62 1434.75,-623.46 1481.39,-643 1491.44,-647.21 1502.4,-651.49 1512.66,-655.36"/>
<polygon fill="black" stroke="black" points="1511.65,-658.72 1522.24,-658.93 1514.09,-652.16 1511.65,-658.72"/>
<text text-anchor="middle" x="1446.39" y="-638.8" font-family="Times,serif" font-size="14.00">Enum</text>
</g>
<!-- LaTeX -->
<g id="node13" class="node">
<title>LaTeX</title>
<ellipse fill="green" stroke="black" cx="1554.18" cy="-616" rx="36" ry="18"/>
<text text-anchor="middle" x="1554.18" y="-612.3" font-family="Times,serif" font-size="14.00">LaTeX</text>
</g>
<!-- SelectedCompositionFwrk&#45;&gt;LaTeX -->
<g id="edge12" class="edge">
<title>SelectedCompositionFwrk&#45;&gt;LaTeX</title>
<path fill="none" stroke="black" d="M1391.23,-581.24C1431.13,-589.81 1477.72,-599.8 1510.65,-606.87"/>
<polygon fill="black" stroke="black" points="1510.33,-610.38 1520.84,-609.06 1511.8,-603.54 1510.33,-610.38"/>
<text text-anchor="middle" x="1446.39" y="-599.8" font-family="Times,serif" font-size="14.00">Enum</text>
</g>
<!-- Html -->
<g id="node14" class="node">
<title>Html</title>
<ellipse fill="green" stroke="black" cx="1554.18" cy="-562" rx="29.5" ry="18"/>
<text text-anchor="middle" x="1554.18" y="-558.3" font-family="Times,serif" font-size="14.00">Html</text>
</g>
<!-- SelectedCompositionFwrk&#45;&gt;Html -->
<g id="edge13" class="edge">
<title>SelectedCompositionFwrk&#45;&gt;Html</title>
<path fill="none" stroke="black" d="M1411.54,-563.17C1447.97,-562.87 1486.95,-562.55 1514.77,-562.32"/>
<polygon fill="black" stroke="black" points="1514.89,-565.82 1524.86,-562.23 1514.83,-558.82 1514.89,-565.82"/>
<text text-anchor="middle" x="1446.39" y="-566.8" font-family="Times,serif" font-size="14.00">Enum</text>
</g>
<!-- WithSelMailing -->
<g id="node15" class="node">
<title>WithSelMailing</title>
<ellipse fill="green" stroke="black" cx="1554.18" cy="-778" rx="72.59" ry="18"/>
<text text-anchor="middle" x="1554.18" y="-774.3" font-family="Times,serif" font-size="14.00">With Sel Mailing</text>
</g>
<!-- SelectedCompositionFwrk&#45;&gt;WithSelMailing -->
<g id="edge14" class="edge">
<title>SelectedCompositionFwrk&#45;&gt;WithSelMailing</title>
<path fill="none" stroke="black" d="M1322.1,-582.04C1346.35,-619.5 1407.48,-705.96 1481.39,-751 1486.76,-754.27 1492.59,-757.26 1498.54,-759.95"/>
<polygon fill="black" stroke="black" points="1497.35,-763.25 1507.92,-763.94 1500.08,-756.81 1497.35,-763.25"/>
<text text-anchor="middle" x="1446.39" y="-738.8" font-family="Times,serif" font-size="14.00">Enum</text>
</g>
<!-- Reply -->
<g id="node37" class="node">
<title>Reply</title>
<ellipse fill="darksalmon" stroke="black" cx="1554.18" cy="-508" rx="31.7" ry="18"/>
<text text-anchor="middle" x="1554.18" y="-504.3" font-family="Times,serif" font-size="14.00">Reply</text>
</g>
<!-- SelectedCompositionFwrk&#45;&gt;Reply -->
<g id="edge32" class="edge">
<title>SelectedCompositionFwrk&#45;&gt;Reply</title>
<path fill="none" stroke="black" d="M1386.22,-546.59C1428.65,-536.78 1479.87,-524.94 1514.29,-516.99"/>
<polygon fill="black" stroke="black" points="1515.45,-520.31 1524.41,-514.65 1513.88,-513.49 1515.45,-520.31"/>
</g>
<!-- Forward -->
<g id="node38" class="node">
<title>Forward</title>
<ellipse fill="darksalmon" stroke="black" cx="1554.18" cy="-454" rx="40.09" ry="18"/>
<text text-anchor="middle" x="1554.18" y="-450.3" font-family="Times,serif" font-size="14.00">Forward</text>
</g>
<!-- SelectedCompositionFwrk&#45;&gt;Forward -->
<g id="edge33" class="edge">
<title>SelectedCompositionFwrk&#45;&gt;Forward</title>
<path fill="none" stroke="black" d="M1345.71,-545.86C1379.86,-528.36 1433.61,-501.56 1481.39,-481 1491.31,-476.73 1502.14,-472.46 1512.32,-468.61"/>
<polygon fill="black" stroke="black" points="1513.68,-471.84 1521.83,-465.07 1511.24,-465.28 1513.68,-471.84"/>
</g>
<!-- TemplateFile -->
<g id="node16" class="node">
<title>TemplateFile</title>
<ellipse fill="green" stroke="black" cx="658.03" cy="-366" rx="57.69" ry="18"/>
<text text-anchor="middle" x="658.03" y="-362.3" font-family="Times,serif" font-size="14.00">TemplateFile</text>
</g>
<!-- MailingFile&#45;&gt;TemplateFile -->
<g id="edge15" class="edge">
<title>MailingFile&#45;&gt;TemplateFile</title>
<path fill="none" stroke="black" d="M419.09,-366C463.62,-366 536.5,-366 589.89,-366"/>
<polygon fill="black" stroke="black" points="589.95,-369.5 599.95,-366 589.95,-362.5 589.95,-369.5"/>
</g>
<!-- MailingCmnd -->
<g id="node17" class="node">
<title>MailingCmnd</title>
<ellipse fill="green" stroke="black" cx="844.51" cy="-412" rx="79.09" ry="18"/>
<text text-anchor="middle" x="844.51" y="-408.3" font-family="Times,serif" font-size="14.00">Mailing Command</text>
</g>
<!-- MailingFile&#45;&gt;MailingCmnd -->
<g id="edge16" class="edge">
<title>MailingFile&#45;&gt;MailingCmnd</title>
<path fill="none" stroke="black" d="M418.88,-374.26C429.84,-376.35 441.77,-378.44 452.84,-380 556.51,-394.6 676.67,-403.2 756.06,-407.75"/>
<polygon fill="black" stroke="black" points="756.32,-411.27 766.5,-408.34 756.71,-404.28 756.32,-411.27"/>
</g>
<!-- Gnus -->
<g id="node19" class="node">
<title>Gnus</title>
<ellipse fill="green" stroke="black" cx="1309.89" cy="-455" rx="29.5" ry="18"/>
<text text-anchor="middle" x="1309.89" y="-451.3" font-family="Times,serif" font-size="14.00">Gnus</text>
</g>
<!-- Interactive&#45;&gt;Gnus -->
<g id="edge22" class="edge">
<title>Interactive&#45;&gt;Gnus</title>
<path fill="none" stroke="black" d="M880.26,-354.13C895.97,-362.82 914.51,-373.76 930.3,-385 948.02,-397.61 947.38,-408.3 967.3,-417 1069.6,-461.69 1204.81,-461.36 1270.19,-457.94"/>
<polygon fill="black" stroke="black" points="1270.66,-461.42 1280.44,-457.35 1270.26,-454.43 1270.66,-461.42"/>
</g>
<!-- MtdtMenu -->
<g id="node20" class="node">
<title>MtdtMenu</title>
<ellipse fill="green" stroke="black" cx="1069.35" cy="-336" rx="59.29" ry="18"/>
<text text-anchor="middle" x="1069.35" y="-332.3" font-family="Times,serif" font-size="14.00">MTDT Menu</text>
</g>
<!-- Interactive&#45;&gt;MtdtMenu -->
<g id="edge23" class="edge">
<title>Interactive&#45;&gt;MtdtMenu</title>
<path fill="none" stroke="black" d="M915.71,-336C942.64,-336 973.3,-336 1000.04,-336"/>
<polygon fill="black" stroke="black" points="1000.08,-339.5 1010.08,-336 1000.08,-332.5 1000.08,-339.5"/>
</g>
<!-- doSend -->
<g id="node23" class="node">
<title>doSend</title>
<ellipse fill="green" stroke="black" cx="378.3" cy="-474" rx="37.09" ry="18"/>
<text text-anchor="middle" x="378.3" y="-470.3" font-family="Times,serif" font-size="14.00">doSend</text>
</g>
<!-- SendExtent&#45;&gt;doSend -->
<g id="edge34" class="edge">
<title>SendExtent&#45;&gt;doSend</title>
<path fill="none" stroke="black" d="M266.36,-454.24C287.01,-457.91 312.13,-462.39 333.24,-466.15"/>
<polygon fill="black" stroke="black" points="332.78,-469.62 343.24,-467.93 334.01,-462.73 332.78,-469.62"/>
</g>
<!-- unsentBuf -->
<g id="node24" class="node">
<title>unsentBuf</title>
<ellipse fill="green" stroke="black" cx="378.3" cy="-420" rx="56.59" ry="18"/>
<text text-anchor="middle" x="378.3" y="-416.3" font-family="Times,serif" font-size="14.00">unsentBuffer</text>
</g>
<!-- SendExtent&#45;&gt;unsentBuf -->
<g id="edge35" class="edge">
<title>SendExtent&#45;&gt;unsentBuf</title>
<path fill="none" stroke="black" d="M266.36,-439.76C282.34,-436.92 301,-433.59 318.4,-430.49"/>
<polygon fill="black" stroke="black" points="319.25,-433.9 328.48,-428.7 318.02,-427.01 319.25,-433.9"/>
</g>
<!-- sendWithExtent -->
<g id="node34" class="node">
<title>sendWithExtent</title>
<ellipse fill="darksalmon" stroke="black" cx="1554.18" cy="-343" rx="67.69" ry="18"/>
<text text-anchor="middle" x="1554.18" y="-339.3" font-family="Times,serif" font-size="14.00">sendWithExtent</text>
</g>
<!-- SendExtent&#45;&gt;sendWithExtent -->
<g id="edge53" class="edge">
<title>SendExtent&#45;&gt;sendWithExtent</title>
<path fill="none" stroke="black" d="M249.5,-464.96C268.07,-477.81 295.11,-494.02 321.75,-501 370.37,-513.74 384.66,-503.85 434.84,-501 763.79,-482.3 845.74,-467.05 1171.39,-417 1285.07,-399.53 1416.51,-372.54 1491.74,-356.44"/>
<polygon fill="black" stroke="black" points="1492.49,-359.86 1501.53,-354.34 1491.02,-353.02 1492.49,-359.86"/>
</g>
<!-- Recipients -->
<g id="node25" class="node">
<title>Recipients</title>
<ellipse fill="darksalmon" stroke="black" cx="378.3" cy="-261" rx="48.19" ry="18"/>
<text text-anchor="middle" x="378.3" y="-257.3" font-family="Times,serif" font-size="14.00">Recipients</text>
</g>
<!-- OorR&#45;&gt;Recipients -->
<g id="edge36" class="edge">
<title>OorR&#45;&gt;Recipients</title>
<path fill="none" stroke="black" d="M284.78,-265.88C296.48,-265.27 308.74,-264.62 320.36,-264.01"/>
<polygon fill="black" stroke="black" points="320.59,-267.5 330.39,-263.48 320.22,-260.51 320.59,-267.5"/>
</g>
<!-- bbdb2 -->
<g id="node29" class="node">
<title>bbdb2</title>
<ellipse fill="darksalmon" stroke="black" cx="378.3" cy="-110" rx="32.49" ry="18"/>
<text text-anchor="middle" x="378.3" y="-106.3" font-family="Times,serif" font-size="14.00">bbdb2</text>
</g>
<!-- AddressBook&#45;&gt;bbdb2 -->
<g id="edge40" class="edge">
<title>AddressBook&#45;&gt;bbdb2</title>
<path fill="none" stroke="black" d="M272.04,-107.92C292.26,-108.32 315.79,-108.78 335.48,-109.17"/>
<polygon fill="black" stroke="black" points="335.61,-112.68 345.67,-109.37 335.74,-105.68 335.61,-112.68"/>
</g>
<!-- bbdb3 -->
<g id="node30" class="node">
<title>bbdb3</title>
<ellipse fill="darksalmon" stroke="black" cx="658.03" cy="-152" rx="32.49" ry="18"/>
<text text-anchor="middle" x="658.03" y="-148.3" font-family="Times,serif" font-size="14.00">bbdb3</text>
</g>
<!-- AddressBook&#45;&gt;bbdb3 -->
<g id="edge41" class="edge">
<title>AddressBook&#45;&gt;bbdb3</title>
<path fill="none" stroke="black" d="M272.2,-92.96C287.79,-88.89 305.38,-85.02 321.75,-83 371.64,-76.86 385.15,-75.46 434.84,-83 503.01,-93.34 579.06,-120.57 622.17,-137.57"/>
<polygon fill="black" stroke="black" points="621.04,-140.89 631.62,-141.34 623.63,-134.38 621.04,-140.89"/>
</g>
<!-- NamesFile -->
<g id="node31" class="node">
<title>NamesFile</title>
<ellipse fill="darksalmon" stroke="black" cx="378.3" cy="-164" rx="47.39" ry="18"/>
<text text-anchor="middle" x="378.3" y="-160.3" font-family="Times,serif" font-size="14.00">namesFile</text>
</g>
<!-- Names&#45;&gt;NamesFile -->
<g id="edge42" class="edge">
<title>Names&#45;&gt;NamesFile</title>
<path fill="none" stroke="black" d="M252.5,-161.53C271.37,-161.9 297.36,-162.42 320.73,-162.88"/>
<polygon fill="black" stroke="black" points="320.84,-166.38 330.91,-163.08 320.98,-159.38 320.84,-166.38"/>
</g>
<!-- DistNamesFile -->
<g id="node32" class="node">
<title>DistNamesFile</title>
<ellipse fill="darksalmon" stroke="black" cx="514.59" cy="-205" rx="61.99" ry="18"/>
<text text-anchor="middle" x="514.59" y="-201.3" font-family="Times,serif" font-size="14.00">distNamesFile</text>
</g>
<!-- Distributions&#45;&gt;DistNamesFile -->
<g id="edge46" class="edge">
<title>Distributions&#45;&gt;DistNamesFile</title>
<path fill="none" stroke="black" d="M268.53,-213.51C314.51,-211.92 388.33,-209.35 442.95,-207.45"/>
<polygon fill="black" stroke="black" points="443.38,-210.94 453.26,-207.1 443.14,-203.95 443.38,-210.94"/>
</g>
<!-- LogFile -->
<g id="node33" class="node">
<title>LogFile</title>
<ellipse fill="darksalmon" stroke="black" cx="378.3" cy="-18" rx="36" ry="18"/>
<text text-anchor="middle" x="378.3" y="-14.3" font-family="Times,serif" font-size="14.00">logFile</text>
</g>
<!-- Tracking&#45;&gt;LogFile -->
<g id="edge48" class="edge">
<title>Tracking&#45;&gt;LogFile</title>
<path fill="none" stroke="black" d="M257.52,-33.81C279.54,-30.9 309.16,-26.99 333.43,-23.79"/>
<polygon fill="black" stroke="black" points="334.01,-27.24 343.47,-22.46 333.09,-20.3 334.01,-27.24"/>
</g>
<!-- TemplateFile&#45;&gt;MailingCmnd -->
<g id="edge17" class="edge">
<title>TemplateFile&#45;&gt;MailingCmnd</title>
<path fill="none" stroke="black" d="M703.68,-377.14C726.75,-382.89 755.28,-390 780.54,-396.3"/>
<polygon fill="black" stroke="black" points="779.86,-399.74 790.41,-398.76 781.55,-392.94 779.86,-399.74"/>
</g>
<!-- SelectedMailing -->
<g id="node18" class="node">
<title>SelectedMailing</title>
<ellipse fill="green" stroke="black" cx="1069.35" cy="-390" rx="71.49" ry="18"/>
<text text-anchor="middle" x="1069.35" y="-386.3" font-family="Times,serif" font-size="14.00">Selected Mailing</text>
</g>
<!-- MailingCmnd&#45;&gt;SelectedMailing -->
<g id="edge18" class="edge">
<title>MailingCmnd&#45;&gt;SelectedMailing</title>
<path fill="none" stroke="black" d="M917.55,-404.89C941.47,-402.53 968.17,-399.89 992.38,-397.5"/>
<polygon fill="black" stroke="black" points="992.98,-400.96 1002.59,-396.49 992.29,-393.99 992.98,-400.96"/>
</g>
<!-- MailingMenu -->
<g id="node21" class="node">
<title>MailingMenu</title>
<ellipse fill="green" stroke="black" cx="1309.89" cy="-337" rx="62.29" ry="18"/>
<text text-anchor="middle" x="1309.89" y="-333.3" font-family="Times,serif" font-size="14.00">Mailing Menu</text>
</g>
<!-- SelectedMailing&#45;&gt;MailingMenu -->
<g id="edge19" class="edge">
<title>SelectedMailing&#45;&gt;MailingMenu</title>
<path fill="none" stroke="black" d="M1133.88,-382.15C1152.21,-379.43 1172.18,-376.03 1190.39,-372 1213.08,-366.97 1237.79,-359.93 1258.74,-353.48"/>
<polygon fill="black" stroke="black" points="1259.89,-356.79 1268.39,-350.47 1257.8,-350.11 1259.89,-356.79"/>
</g>
<!-- DistMenu -->
<g id="node22" class="node">
<title>DistMenu</title>
<ellipse fill="green" stroke="black" cx="1309.89" cy="-273" rx="76.89" ry="18"/>
<text text-anchor="middle" x="1309.89" y="-269.3" font-family="Times,serif" font-size="14.00">Distribution Menu</text>
</g>
<!-- SelectedMailing&#45;&gt;DistMenu -->
<g id="edge20" class="edge">
<title>SelectedMailing&#45;&gt;DistMenu</title>
<path fill="none" stroke="black" d="M1131.35,-381.01C1145.34,-377.03 1159.57,-371.28 1171.39,-363 1194.91,-346.51 1185.64,-327.55 1208.39,-310 1219.52,-301.41 1232.85,-294.67 1246.11,-289.43"/>
<polygon fill="black" stroke="black" points="1247.55,-292.63 1255.71,-285.87 1245.12,-286.06 1247.55,-292.63"/>
</g>
<!-- Gnus&#45;&gt;Reply -->
<g id="edge26" class="edge">
<title>Gnus&#45;&gt;Reply</title>
<path fill="none" stroke="black" d="M1337.74,-460.87C1380.65,-470.26 1464.85,-488.68 1514.32,-499.5"/>
<polygon fill="black" stroke="black" points="1513.81,-502.97 1524.33,-501.69 1515.31,-496.13 1513.81,-502.97"/>
</g>
<!-- Gnus&#45;&gt;Forward -->
<g id="edge27" class="edge">
<title>Gnus&#45;&gt;Forward</title>
<path fill="none" stroke="black" d="M1339.16,-454.88C1379.36,-454.72 1453.68,-454.41 1503.28,-454.21"/>
<polygon fill="black" stroke="black" points="1503.48,-457.71 1513.47,-454.16 1503.46,-450.71 1503.48,-457.71"/>
</g>
<!-- GnusCompose -->
<g id="node39" class="node">
<title>GnusCompose</title>
<ellipse fill="darksalmon" stroke="black" cx="1554.18" cy="-400" rx="63.09" ry="18"/>
<text text-anchor="middle" x="1554.18" y="-396.3" font-family="Times,serif" font-size="14.00">GnusCompose</text>
</g>
<!-- Gnus&#45;&gt;GnusCompose -->
<g id="edge28" class="edge">
<title>Gnus&#45;&gt;GnusCompose</title>
<path fill="none" stroke="black" d="M1337.74,-448.9C1375.32,-440.37 1444.57,-424.65 1494.43,-413.34"/>
<polygon fill="black" stroke="black" points="1495.47,-416.69 1504.44,-411.06 1493.92,-409.86 1495.47,-416.69"/>
</g>
<!-- MtdtMenu&#45;&gt;MailingMenu -->
<g id="edge25" class="edge">
<title>MtdtMenu&#45;&gt;MailingMenu</title>
<path fill="none" stroke="black" d="M1128.7,-336.24C1161.46,-336.38 1202.61,-336.55 1237.31,-336.7"/>
<polygon fill="black" stroke="black" points="1237.37,-340.2 1247.39,-336.74 1237.4,-333.2 1237.37,-340.2"/>
</g>
<!-- MtdtMenu&#45;&gt;DistMenu -->
<g id="edge24" class="edge">
<title>MtdtMenu&#45;&gt;DistMenu</title>
<path fill="none" stroke="black" d="M1114.65,-324.3C1152.32,-314.35 1206.77,-299.97 1248.44,-288.96"/>
<polygon fill="black" stroke="black" points="1249.43,-292.32 1258.2,-286.39 1247.64,-285.56 1249.43,-292.32"/>
</g>
<!-- MailingMenu&#45;&gt;sendWithExtent -->
<g id="edge49" class="edge">
<title>MailingMenu&#45;&gt;sendWithExtent</title>
<path fill="none" stroke="black" d="M1372.34,-338.52C1403.98,-339.31 1442.86,-340.27 1476.45,-341.1"/>
<polygon fill="black" stroke="black" points="1476.6,-344.6 1486.69,-341.35 1476.78,-337.61 1476.6,-344.6"/>
</g>
<!-- DistMenu&#45;&gt;sendWithExtent -->
<g id="edge50" class="edge">
<title>DistMenu&#45;&gt;sendWithExtent</title>
<path fill="none" stroke="black" d="M1359.05,-286.91C1399.04,-298.47 1455.94,-314.91 1497.81,-327"/>
<polygon fill="black" stroke="black" points="1496.99,-330.41 1507.57,-329.82 1498.94,-323.69 1496.99,-330.41"/>
</g>
<!-- RecipientsList -->
<g id="node26" class="node">
<title>RecipientsList</title>
<ellipse fill="darksalmon" stroke="black" cx="658.03" cy="-261" rx="63.89" ry="18"/>
<text text-anchor="middle" x="658.03" y="-257.3" font-family="Times,serif" font-size="14.00">Recipients List</text>
</g>
<!-- Recipients&#45;&gt;RecipientsList -->
<g id="edge37" class="edge">
<title>Recipients&#45;&gt;RecipientsList</title>
<path fill="none" stroke="black" d="M426.41,-261C469.63,-261 534.31,-261 584.18,-261"/>
<polygon fill="black" stroke="black" points="584.27,-264.5 594.27,-261 584.27,-257.5 584.27,-264.5"/>
</g>
<!-- RecipientsList&#45;&gt;MailingMenu -->
<g id="edge21" class="edge">
<title>RecipientsList&#45;&gt;MailingMenu</title>
<path fill="none" stroke="black" d="M718.32,-267.03C731.61,-268.36 745.65,-269.74 758.72,-271 942.06,-288.64 989.17,-282.14 1171.39,-309 1197.65,-312.87 1226.48,-318.52 1250.92,-323.73"/>
<polygon fill="black" stroke="black" points="1250.24,-327.17 1260.75,-325.86 1251.72,-320.33 1250.24,-327.17"/>
</g>
<!-- RecipientsListForm -->
<g id="node27" class="node">
<title>RecipientsListForm</title>
<ellipse fill="darksalmon" stroke="black" cx="844.51" cy="-244" rx="85.59" ry="18"/>
<text text-anchor="middle" x="844.51" y="-240.3" font-family="Times,serif" font-size="14.00">Recipients List Form</text>
</g>
<!-- RecipientsList&#45;&gt;RecipientsListForm -->
<g id="edge38" class="edge">
<title>RecipientsList&#45;&gt;RecipientsListForm</title>
<path fill="none" stroke="black" d="M718.92,-255.48C730.71,-254.39 743.31,-253.23 755.79,-252.08"/>
<polygon fill="black" stroke="black" points="756.13,-255.57 765.76,-251.16 755.49,-248.6 756.13,-255.57"/>
</g>
<!-- RecipientsListFormFile -->
<g id="node28" class="node">
<title>RecipientsListFormFile</title>
<ellipse fill="darksalmon" stroke="black" cx="1069.35" cy="-228" rx="102.08" ry="18"/>
<text text-anchor="middle" x="1069.35" y="-224.3" font-family="Times,serif" font-size="14.00">Recipients List Form File</text>
</g>
<!-- RecipientsListForm&#45;&gt;RecipientsListFormFile -->
<g id="edge39" class="edge">
<title>RecipientsListForm&#45;&gt;RecipientsListFormFile</title>
<path fill="none" stroke="black" d="M925.96,-238.22C938.35,-237.33 951.3,-236.4 964.13,-235.48"/>
<polygon fill="black" stroke="black" points="964.65,-238.96 974.37,-234.75 964.14,-231.97 964.65,-238.96"/>
</g>
<!-- RecipientsListFormFile&#45;&gt;DistMenu -->
<g id="edge45" class="edge">
<title>RecipientsListFormFile&#45;&gt;DistMenu</title>
<path fill="none" stroke="black" d="M1139.66,-241.08C1171.07,-247 1208.11,-253.99 1239.52,-259.91"/>
<polygon fill="black" stroke="black" points="1239.03,-263.38 1249.5,-261.8 1240.33,-256.5 1239.03,-263.38"/>
</g>
<!-- bbdb3&#45;&gt;RecipientsListFormFile -->
<g id="edge44" class="edge">
<title>bbdb3&#45;&gt;RecipientsListFormFile</title>
<path fill="none" stroke="black" d="M690.81,-152.97C744.68,-155.18 857.03,-162.21 949.3,-184 973.48,-189.71 999.45,-198.92 1020.94,-207.45"/>
<polygon fill="black" stroke="black" points="1019.9,-210.8 1030.48,-211.3 1022.52,-204.31 1019.9,-210.8"/>
</g>
<!-- NamesFile&#45;&gt;bbdb3 -->
<g id="edge43" class="edge">
<title>NamesFile&#45;&gt;bbdb3</title>
<path fill="none" stroke="black" d="M425.47,-162C478.43,-159.72 564.49,-156 615.44,-153.8"/>
<polygon fill="black" stroke="black" points="615.61,-157.29 625.45,-153.36 615.31,-150.3 615.61,-157.29"/>
</g>
<!-- DistNamesFile&#45;&gt;RecipientsListFormFile -->
<g id="edge47" class="edge">
<title>DistNamesFile&#45;&gt;RecipientsListFormFile</title>
<path fill="none" stroke="black" d="M576.41,-205.8C657.28,-207.08 804.62,-210.18 930.3,-217 942.33,-217.65 954.94,-218.47 967.44,-219.37"/>
<polygon fill="black" stroke="black" points="967.2,-222.86 977.43,-220.1 967.71,-215.88 967.2,-222.86"/>
</g>
<!-- unsentBuffer -->
<g id="node35" class="node">
<title>unsentBuffer</title>
<ellipse fill="darksalmon" stroke="black" cx="1720.52" cy="-409" rx="56.59" ry="18"/>
<text text-anchor="middle" x="1720.52" y="-405.3" font-family="Times,serif" font-size="14.00">unsentBuffer</text>
</g>
<!-- sendWithExtent&#45;&gt;unsentBuffer -->
<g id="edge51" class="edge">
<title>sendWithExtent&#45;&gt;unsentBuffer</title>
<path fill="none" stroke="black" d="M1592.47,-357.98C1616.99,-367.82 1649.2,-380.76 1675.06,-391.14"/>
<polygon fill="black" stroke="black" points="1674.04,-394.51 1684.62,-394.99 1676.65,-388.01 1674.04,-394.51"/>
</g>
<!-- sent -->
<g id="node36" class="node">
<title>sent</title>
<ellipse fill="darksalmon" stroke="black" cx="1720.52" cy="-343" rx="27" ry="18"/>
<text text-anchor="middle" x="1720.52" y="-339.3" font-family="Times,serif" font-size="14.00">sent</text>
</g>
<!-- sendWithExtent&#45;&gt;sent -->
<g id="edge52" class="edge">
<title>sendWithExtent&#45;&gt;sent</title>
<path fill="none" stroke="black" d="M1622.02,-343C1642.97,-343 1665.3,-343 1683.29,-343"/>
<polygon fill="black" stroke="black" points="1683.34,-346.5 1693.34,-343 1683.34,-339.5 1683.34,-346.5"/>
</g>
<!-- Reply&#45;&gt;unsentBuffer -->
<g id="edge29" class="edge">
<title>Reply&#45;&gt;unsentBuffer</title>
<path fill="none" stroke="black" d="M1582.63,-499.85C1596.38,-495.23 1613.03,-488.81 1626.97,-481 1651.16,-467.46 1675.79,-447.96 1693.56,-432.66"/>
<polygon fill="black" stroke="black" points="1695.99,-435.19 1701.21,-425.97 1691.38,-429.92 1695.99,-435.19"/>
</g>
<!-- Forward&#45;&gt;unsentBuffer -->
<g id="edge30" class="edge">
<title>Forward&#45;&gt;unsentBuffer</title>
<path fill="none" stroke="black" d="M1588.83,-444.78C1611.38,-438.61 1641.53,-430.36 1667.18,-423.33"/>
<polygon fill="black" stroke="black" points="1668.41,-426.62 1677.13,-420.61 1666.56,-419.87 1668.41,-426.62"/>
</g>
<!-- GnusCompose&#45;&gt;unsentBuffer -->
<g id="edge31" class="edge">
<title>GnusCompose&#45;&gt;unsentBuffer</title>
<path fill="none" stroke="black" d="M1616.37,-403.35C1628.71,-404.03 1641.72,-404.74 1654.19,-405.42"/>
<polygon fill="black" stroke="black" points="1654.33,-408.94 1664.51,-405.99 1654.71,-401.95 1654.33,-408.94"/>
</g>
</g>
</svg>
