<?xml version="1.0" encoding="UTF-8" standalone="no"?>
<!DOCTYPE svg PUBLIC "-//W3C//DTD SVG 1.1//EN"
 "http://www.w3.org/Graphics/SVG/1.1/DTD/svg11.dtd">
<!-- Generated by graphviz version 2.43.0 (0)
 -->
<!-- Title: %3 Pages: 1 -->
<svg width="712pt" height="1295pt"
 viewBox="0.00 0.00 712.05 1295.13" xmlns="http://www.w3.org/2000/svg" xmlns:xlink="http://www.w3.org/1999/xlink">
<g id="graph0" class="graph" transform="scale(1 1) rotate(0) translate(4 1291.13)">
<title>%3</title>
<polygon fill="white" stroke="transparent" points="-4,4 -4,-1291.13 708.05,-1291.13 708.05,4 -4,4"/>
<!-- MTDT&#45;Mailing -->
<g id="node1" class="node">
<title>MTDT&#45;Mailing</title>
<ellipse fill="#9bcd9b" stroke="black" cx="192.05" cy="-1214.3" rx="58.88" ry="58.88"/>
<text text-anchor="middle" x="192.05" y="-1233.1" font-family="Times,serif" font-size="14.00">MTDT</text>
<text text-anchor="middle" x="192.05" y="-1218.1" font-family="Times,serif" font-size="14.00">Mailing</text>
<text text-anchor="middle" x="192.05" y="-1203.1" font-family="Times,serif" font-size="14.00">Concepts</text>
<text text-anchor="middle" x="192.05" y="-1188.1" font-family="Times,serif" font-size="14.00">LAYER 1</text>
</g>
<!-- MailingFile -->
<g id="node2" class="node">
<title>MailingFile</title>
<polygon fill="#fff68f" stroke="black" points="265.77,-1090.47 148.5,-1090.47 118.33,-1014.47 235.6,-1014.47 265.77,-1090.47"/>
<text text-anchor="middle" x="192.05" y="-1056.27" font-family="Times,serif" font-size="14.00">Mailing</text>
<text text-anchor="middle" x="192.05" y="-1041.27" font-family="Times,serif" font-size="14.00">File</text>
</g>
<!-- MTDT&#45;Mailing&#45;&gt;MailingFile -->
<g id="edge1" class="edge">
<title>MTDT&#45;Mailing&#45;&gt;MailingFile</title>
<path fill="none" stroke="black" d="M192.05,-1155.6C192.05,-1137.68 192.05,-1118.14 192.05,-1101"/>
<polygon fill="black" stroke="black" points="195.55,-1100.67 192.05,-1090.67 188.55,-1100.67 195.55,-1100.67"/>
<text text-anchor="middle" x="238.05" y="-1112.27" font-family="Times,serif" font-size="14.00">Specification</text>
</g>
<!-- TemplateFile -->
<g id="node3" class="node">
<title>TemplateFile</title>
<polygon fill="#fff68f" stroke="black" points="172.15,-963.47 35.18,-963.47 -0.05,-887.47 136.92,-887.47 172.15,-963.47"/>
<text text-anchor="middle" x="86.05" y="-929.27" font-family="Times,serif" font-size="14.00">Template</text>
<text text-anchor="middle" x="86.05" y="-914.27" font-family="Times,serif" font-size="14.00">File</text>
</g>
<!-- MailingFile&#45;&gt;TemplateFile -->
<g id="edge2" class="edge">
<title>MailingFile&#45;&gt;TemplateFile</title>
<path fill="none" stroke="black" d="M160.53,-1014.3C149.1,-1000.82 136.07,-985.45 124.13,-971.38"/>
<polygon fill="black" stroke="black" points="126.77,-969.07 117.63,-963.71 121.43,-973.6 126.77,-969.07"/>
</g>
<!-- MailingCmnd -->
<g id="node4" class="node">
<title>MailingCmnd</title>
<ellipse fill="#fff68f" stroke="black" cx="183.05" cy="-809.6" rx="62.87" ry="26.74"/>
<text text-anchor="middle" x="183.05" y="-813.4" font-family="Times,serif" font-size="14.00">Mailing</text>
<text text-anchor="middle" x="183.05" y="-798.4" font-family="Times,serif" font-size="14.00">Command</text>
</g>
<!-- MailingFile&#45;&gt;MailingCmnd -->
<g id="edge3" class="edge">
<title>MailingFile&#45;&gt;MailingCmnd</title>
<path fill="none" stroke="black" d="M195.36,-1014.27C198.2,-974.54 200.88,-909.8 194.05,-854.47 193.72,-851.79 193.28,-849.03 192.76,-846.27"/>
<polygon fill="black" stroke="black" points="196.16,-845.42 190.63,-836.38 189.32,-846.89 196.16,-845.42"/>
<text text-anchor="middle" x="223.05" y="-921.77" font-family="Times,serif" font-size="14.00">Derive</text>
</g>
<!-- TemplateFile&#45;&gt;MailingCmnd -->
<g id="edge4" class="edge">
<title>TemplateFile&#45;&gt;MailingCmnd</title>
<path fill="none" stroke="black" d="M117.81,-887.18C130.01,-872.87 143.81,-856.67 155.57,-842.86"/>
<polygon fill="black" stroke="black" points="158.41,-844.93 162.23,-835.05 153.08,-840.39 158.41,-844.93"/>
<text text-anchor="middle" x="168.05" y="-858.27" font-family="Times,serif" font-size="14.00">Derive</text>
</g>
<!-- ListOfMailingCmnds -->
<g id="node5" class="node">
<title>ListOfMailingCmnds</title>
<ellipse fill="#fff68f" stroke="black" cx="183.05" cy="-687.04" rx="62.87" ry="37.45"/>
<text text-anchor="middle" x="183.05" y="-698.34" font-family="Times,serif" font-size="14.00">List of</text>
<text text-anchor="middle" x="183.05" y="-683.34" font-family="Times,serif" font-size="14.00">Mailing</text>
<text text-anchor="middle" x="183.05" y="-668.34" font-family="Times,serif" font-size="14.00">Command</text>
</g>
<!-- MailingCmnd&#45;&gt;ListOfMailingCmnds -->
<g id="edge5" class="edge">
<title>MailingCmnd&#45;&gt;ListOfMailingCmnds</title>
<path fill="none" stroke="black" d="M183.05,-782.44C183.05,-768.58 183.05,-751.13 183.05,-735.01"/>
<polygon fill="black" stroke="black" points="186.55,-734.67 183.05,-724.67 179.55,-734.67 186.55,-734.67"/>
</g>
<!-- SelectedMailings -->
<g id="node6" class="node">
<title>SelectedMailings</title>
<ellipse fill="green" stroke="black" cx="246.05" cy="-510.18" rx="58.88" ry="37.45"/>
<text text-anchor="middle" x="246.05" y="-521.48" font-family="Times,serif" font-size="14.00">Selected</text>
<text text-anchor="middle" x="246.05" y="-506.48" font-family="Times,serif" font-size="14.00">List of</text>
<text text-anchor="middle" x="246.05" y="-491.48" font-family="Times,serif" font-size="14.00">Mailings </text>
</g>
<!-- ListOfMailingCmnds&#45;&gt;SelectedMailings -->
<g id="edge6" class="edge">
<title>ListOfMailingCmnds&#45;&gt;SelectedMailings</title>
<path fill="none" stroke="black" d="M195.95,-650.23C205.72,-623.12 219.2,-585.69 229.72,-556.5"/>
<polygon fill="black" stroke="black" points="233.07,-557.53 233.17,-546.94 226.48,-555.16 233.07,-557.53"/>
</g>
<!-- BrowserShare -->
<g id="node21" class="node">
<title>BrowserShare</title>
<polygon fill="salmon" stroke="black" points="494.55,-400 435.55,-400 435.55,-343 494.55,-343 494.55,-337 512.55,-371.5 494.55,-406 494.55,-400"/>
<text text-anchor="middle" x="474.05" y="-374.8" font-family="Times,serif" font-size="14.00">Browser</text>
<text text-anchor="middle" x="474.05" y="-359.8" font-family="Times,serif" font-size="14.00">Share</text>
<text text-anchor="middle" x="474.05" y="-344.8" font-family="Times,serif" font-size="14.00"> </text>
</g>
<!-- SelectedMailings&#45;&gt;BrowserShare -->
<g id="edge20" class="edge">
<title>SelectedMailings&#45;&gt;BrowserShare</title>
<path fill="none" stroke="black" d="M273.34,-476.95C284.88,-464.94 299.11,-452.04 314.05,-443 356.7,-417.19 377.47,-428.36 426.27,-405.84"/>
<polygon fill="black" stroke="black" points="427.92,-408.93 435.38,-401.4 424.85,-402.63 427.92,-408.93"/>
</g>
<!-- DiredShare -->
<g id="node22" class="node">
<title>DiredShare</title>
<polygon fill="#cd7054" stroke="black" points="399.55,-400 358.55,-400 358.55,-343 399.55,-343 399.55,-337 417.55,-371.5 399.55,-406 399.55,-400"/>
<text text-anchor="middle" x="388.05" y="-374.8" font-family="Times,serif" font-size="14.00">Dired</text>
<text text-anchor="middle" x="388.05" y="-359.8" font-family="Times,serif" font-size="14.00">Share</text>
<text text-anchor="middle" x="388.05" y="-344.8" font-family="Times,serif" font-size="14.00"> </text>
</g>
<!-- SelectedMailings&#45;&gt;DiredShare -->
<g id="edge21" class="edge">
<title>SelectedMailings&#45;&gt;DiredShare</title>
<path fill="none" stroke="black" d="M277.47,-478.47C288.95,-467.27 302.07,-454.54 314.05,-443 326,-431.49 339.1,-418.98 350.91,-407.74"/>
<polygon fill="black" stroke="black" points="353.62,-409.99 358.45,-400.56 348.8,-404.92 353.62,-409.99"/>
</g>
<!-- MTDT&#45;Distribution -->
<g id="node7" class="node">
<title>MTDT&#45;Distribution</title>
<ellipse fill="#9bcd9b" stroke="black" cx="458.05" cy="-1214.3" rx="72.66" ry="72.66"/>
<text text-anchor="middle" x="458.05" y="-1233.1" font-family="Times,serif" font-size="14.00">MTDT</text>
<text text-anchor="middle" x="458.05" y="-1218.1" font-family="Times,serif" font-size="14.00">Distribution</text>
<text text-anchor="middle" x="458.05" y="-1203.1" font-family="Times,serif" font-size="14.00">Concepts</text>
<text text-anchor="middle" x="458.05" y="-1188.1" font-family="Times,serif" font-size="14.00">LAYER 2</text>
</g>
<!-- OorR -->
<g id="node8" class="node">
<title>OorR</title>
<path fill="#fff68f" stroke="black" d="M454.05,-1067.2C454.05,-1069 420.43,-1070.47 379.05,-1070.47 337.67,-1070.47 304.05,-1069 304.05,-1067.2 304.05,-1067.2 304.05,-1037.74 304.05,-1037.74 304.05,-1035.94 337.67,-1034.47 379.05,-1034.47 420.43,-1034.47 454.05,-1035.94 454.05,-1037.74 454.05,-1037.74 454.05,-1067.2 454.05,-1067.2"/>
<path fill="none" stroke="black" d="M454.05,-1067.2C454.05,-1065.39 420.43,-1063.92 379.05,-1063.92 337.67,-1063.92 304.05,-1065.39 304.05,-1067.2"/>
<text text-anchor="middle" x="379.05" y="-1048.77" font-family="Times,serif" font-size="14.00">Orig Or Recipients</text>
</g>
<!-- MTDT&#45;Distribution&#45;&gt;OorR -->
<g id="edge8" class="edge">
<title>MTDT&#45;Distribution&#45;&gt;OorR</title>
<path fill="none" stroke="black" d="M426.15,-1148.75C414.18,-1124.55 401.26,-1098.4 391.98,-1079.63"/>
<polygon fill="black" stroke="black" points="395.05,-1077.95 387.48,-1070.53 388.78,-1081.05 395.05,-1077.95"/>
<text text-anchor="middle" x="449.05" y="-1112.27" font-family="Times,serif" font-size="14.00">Machinary</text>
</g>
<!-- SendExtent -->
<g id="node9" class="node">
<title>SendExtent</title>
<ellipse fill="green" stroke="black" cx="563.05" cy="-1052.47" rx="55.31" ry="37.45"/>
<text text-anchor="middle" x="563.05" y="-1063.77" font-family="Times,serif" font-size="14.00">Selected</text>
<text text-anchor="middle" x="563.05" y="-1048.77" font-family="Times,serif" font-size="14.00">Send</text>
<text text-anchor="middle" x="563.05" y="-1033.77" font-family="Times,serif" font-size="14.00">Extent</text>
</g>
<!-- MTDT&#45;Distribution&#45;&gt;SendExtent -->
<g id="edge7" class="edge">
<title>MTDT&#45;Distribution&#45;&gt;SendExtent</title>
<path fill="none" stroke="black" d="M497.75,-1152.88C510.21,-1133.91 523.7,-1113.38 535.16,-1095.92"/>
<polygon fill="black" stroke="black" points="538.39,-1097.38 540.96,-1087.1 532.54,-1093.54 538.39,-1097.38"/>
<text text-anchor="middle" x="575.05" y="-1112.27" font-family="Times,serif" font-size="14.00">Configuration</text>
</g>
<!-- Recipients -->
<g id="node12" class="node">
<title>Recipients</title>
<ellipse fill="#fff68f" stroke="black" cx="352.05" cy="-925.47" rx="59.59" ry="18"/>
<text text-anchor="middle" x="352.05" y="-921.77" font-family="Times,serif" font-size="14.00">Recipients</text>
</g>
<!-- OorR&#45;&gt;Recipients -->
<g id="edge15" class="edge">
<title>OorR&#45;&gt;Recipients</title>
<path fill="none" stroke="black" d="M375.35,-1034.35C370.85,-1013.52 363.2,-978.11 357.9,-953.56"/>
<polygon fill="black" stroke="black" points="361.32,-952.82 355.79,-943.78 354.48,-954.3 361.32,-952.82"/>
</g>
<!-- doSend -->
<g id="node10" class="node">
<title>doSend</title>
<polygon fill="#c1cdcd" stroke="black" points="500.05,-943.47 430.05,-943.47 430.05,-907.47 500.05,-907.47 500.05,-943.47"/>
<text text-anchor="middle" x="465.05" y="-921.77" font-family="Times,serif" font-size="14.00">doSend</text>
</g>
<!-- SendExtent&#45;&gt;doSend -->
<g id="edge12" class="edge">
<title>SendExtent&#45;&gt;doSend</title>
<path fill="none" stroke="black" d="M531.38,-1011.07C513.44,-988.19 491.93,-960.76 478.38,-943.47"/>
<polygon fill="black" stroke="black" points="528.63,-1013.24 537.56,-1018.95 534.14,-1008.92 528.63,-1013.24"/>
<text text-anchor="middle" x="540.55" y="-985.27" font-family="Times,serif" font-size="14.00">Enum</text>
</g>
<!-- unsentBuf -->
<g id="node11" class="node">
<title>unsentBuf</title>
<polygon fill="#c1cdcd" stroke="black" points="628.05,-943.47 518.05,-943.47 518.05,-907.47 628.05,-907.47 628.05,-943.47"/>
<text text-anchor="middle" x="573.05" y="-921.77" font-family="Times,serif" font-size="14.00">unsentBuffer</text>
</g>
<!-- SendExtent&#45;&gt;unsentBuf -->
<g id="edge13" class="edge">
<title>SendExtent&#45;&gt;unsentBuf</title>
<path fill="none" stroke="black" d="M566.79,-1004.76C568.49,-983.42 570.41,-959.45 571.67,-943.72"/>
<polygon fill="black" stroke="black" points="563.28,-1004.73 565.97,-1014.98 570.26,-1005.29 563.28,-1004.73"/>
<text text-anchor="middle" x="589.55" y="-985.27" font-family="Times,serif" font-size="14.00">Enum</text>
</g>
<!-- sendWithExtent -->
<g id="node16" class="node">
<title>sendWithExtent</title>
<ellipse fill="darksalmon" stroke="black" cx="474.05" cy="-282" rx="85.59" ry="18"/>
<text text-anchor="middle" x="474.05" y="-278.3" font-family="Times,serif" font-size="14.00">sendWithExtent</text>
</g>
<!-- SendExtent&#45;&gt;sendWithExtent -->
<g id="edge14" class="edge">
<title>SendExtent&#45;&gt;sendWithExtent</title>
<path fill="none" stroke="black" d="M599.54,-1024.18C625.59,-1001.31 656.05,-966.1 656.05,-926.47 656.05,-926.47 656.05,-926.47 656.05,-370.5 656.05,-324.27 607.76,-302.45 560.92,-292.16"/>
<polygon fill="black" stroke="black" points="561.47,-288.7 550.97,-290.13 560.07,-295.56 561.47,-288.7"/>
<text text-anchor="middle" x="680.05" y="-683.34" font-family="Times,serif" font-size="14.00">inform</text>
</g>
<!-- RecipientsList -->
<g id="node13" class="node">
<title>RecipientsList</title>
<ellipse fill="#fff68f" stroke="black" cx="367.05" cy="-809.6" rx="79.89" ry="18"/>
<text text-anchor="middle" x="367.05" y="-805.9" font-family="Times,serif" font-size="14.00">Recipients List</text>
</g>
<!-- Recipients&#45;&gt;RecipientsList -->
<g id="edge16" class="edge">
<title>Recipients&#45;&gt;RecipientsList</title>
<path fill="none" stroke="black" d="M354.33,-907.18C356.75,-888.76 360.63,-859.36 363.46,-837.83"/>
<polygon fill="black" stroke="black" points="366.96,-838.06 364.8,-827.68 360.02,-837.14 366.96,-838.06"/>
</g>
<!-- RecipientsListForm -->
<g id="node14" class="node">
<title>RecipientsListForm</title>
<ellipse fill="#fff68f" stroke="black" cx="371.05" cy="-687.04" rx="107.48" ry="18"/>
<text text-anchor="middle" x="371.05" y="-683.34" font-family="Times,serif" font-size="14.00">Recipients List Form</text>
</g>
<!-- RecipientsList&#45;&gt;RecipientsListForm -->
<g id="edge17" class="edge">
<title>RecipientsList&#45;&gt;RecipientsListForm</title>
<path fill="none" stroke="black" d="M367.62,-791.58C368.27,-771.77 369.37,-738.78 370.14,-715.36"/>
<polygon fill="black" stroke="black" points="373.64,-715.47 370.48,-705.36 366.65,-715.24 373.64,-715.47"/>
</g>
<!-- RecipientsListFormFile -->
<g id="node15" class="node">
<title>RecipientsListFormFile</title>
<ellipse fill="green" stroke="black" cx="388.05" cy="-510.18" rx="65.11" ry="58.88"/>
<text text-anchor="middle" x="388.05" y="-536.48" font-family="Times,serif" font-size="14.00">Selected</text>
<text text-anchor="middle" x="388.05" y="-521.48" font-family="Times,serif" font-size="14.00">Recipients</text>
<text text-anchor="middle" x="388.05" y="-506.48" font-family="Times,serif" font-size="14.00">List</text>
<text text-anchor="middle" x="388.05" y="-491.48" font-family="Times,serif" font-size="14.00">Form</text>
<text text-anchor="middle" x="388.05" y="-476.48" font-family="Times,serif" font-size="14.00"> File</text>
</g>
<!-- RecipientsListForm&#45;&gt;RecipientsListFormFile -->
<g id="edge18" class="edge">
<title>RecipientsListForm&#45;&gt;RecipientsListFormFile</title>
<path fill="none" stroke="black" d="M372.71,-668.95C374.74,-648.08 378.3,-611.51 381.47,-578.83"/>
<polygon fill="black" stroke="black" points="384.96,-579.12 382.45,-568.83 377.99,-578.44 384.96,-579.12"/>
</g>
<!-- RecipientsListFormFile&#45;&gt;BrowserShare -->
<g id="edge22" class="edge">
<title>RecipientsListFormFile&#45;&gt;BrowserShare</title>
<path fill="none" stroke="black" d="M419.83,-458.67C428.86,-444.32 438.59,-428.85 447.29,-415.03"/>
<polygon fill="black" stroke="black" points="450.48,-416.54 452.84,-406.21 444.55,-412.81 450.48,-416.54"/>
</g>
<!-- RecipientsListFormFile&#45;&gt;DiredShare -->
<g id="edge23" class="edge">
<title>RecipientsListFormFile&#45;&gt;DiredShare</title>
<path fill="none" stroke="black" d="M388.05,-451.21C388.05,-439.52 388.05,-427.42 388.05,-416.31"/>
<polygon fill="black" stroke="black" points="391.55,-416.02 388.05,-406.02 384.55,-416.02 391.55,-416.02"/>
</g>
<!-- unsentBuffer -->
<g id="node17" class="node">
<title>unsentBuffer</title>
<polygon fill="deepskyblue" stroke="black" points="518.34,-121 597.76,-121 626.05,-227 490.05,-227 518.34,-121"/>
<text text-anchor="middle" x="558.05" y="-185.3" font-family="Times,serif" font-size="14.00">Unsent</text>
<text text-anchor="middle" x="558.05" y="-170.3" font-family="Times,serif" font-size="14.00">Mail</text>
<text text-anchor="middle" x="558.05" y="-155.3" font-family="Times,serif" font-size="14.00">Buffer</text>
</g>
<!-- sendWithExtent&#45;&gt;unsentBuffer -->
<g id="edge9" class="edge">
<title>sendWithExtent&#45;&gt;unsentBuffer</title>
<path fill="none" stroke="black" d="M487.55,-263.97C493.9,-255.95 501.91,-245.85 510.23,-235.35"/>
<polygon fill="black" stroke="black" points="513.16,-237.29 516.62,-227.28 507.67,-232.94 513.16,-237.29"/>
</g>
<!-- sent -->
<g id="node18" class="node">
<title>sent</title>
<polygon fill="cyan" stroke="black" points="510.55,-78 425.55,-78 425.55,-6 510.55,-6 522.55,-42 510.55,-78"/>
<text text-anchor="middle" x="474.05" y="-52.8" font-family="Times,serif" font-size="14.00">Resident</text>
<text text-anchor="middle" x="474.05" y="-37.8" font-family="Times,serif" font-size="14.00">MTA</text>
<text text-anchor="middle" x="474.05" y="-22.8" font-family="Times,serif" font-size="14.00">(MARMEE)</text>
<text text-anchor="middle" x="474.05" y="-7.8" font-family="Times,serif" font-size="14.00"> </text>
</g>
<!-- sendWithExtent&#45;&gt;sent -->
<g id="edge10" class="edge">
<title>sendWithExtent&#45;&gt;sent</title>
<path fill="none" stroke="black" d="M474.05,-263.88C474.05,-228.91 474.05,-148.04 474.05,-94.47"/>
<polygon fill="black" stroke="black" points="477.55,-94.14 474.05,-84.14 470.55,-94.14 477.55,-94.14"/>
</g>
<!-- unsentBuffer&#45;&gt;sent -->
<g id="edge11" class="edge">
<title>unsentBuffer&#45;&gt;sent</title>
<path fill="none" stroke="black" d="M524.37,-120.87C518.42,-111.67 512.24,-102.1 506.33,-92.95"/>
<polygon fill="black" stroke="black" points="509.13,-90.84 500.76,-84.34 503.25,-94.64 509.13,-90.84"/>
</g>
<!-- MTDT&#45;Share -->
<g id="node19" class="node">
<title>MTDT&#45;Share</title>
<ellipse fill="#9bcd9b" stroke="black" cx="555.05" cy="-687.04" rx="58.88" ry="58.88"/>
<text text-anchor="middle" x="555.05" y="-705.84" font-family="Times,serif" font-size="14.00">MTDT</text>
<text text-anchor="middle" x="555.05" y="-690.84" font-family="Times,serif" font-size="14.00">Share</text>
<text text-anchor="middle" x="555.05" y="-675.84" font-family="Times,serif" font-size="14.00">Concepts</text>
<text text-anchor="middle" x="555.05" y="-660.84" font-family="Times,serif" font-size="14.00">LAYER 3</text>
</g>
<!-- Interactive -->
<g id="node20" class="node">
<title>Interactive</title>
<ellipse fill="darksalmon" stroke="black" cx="538.05" cy="-510.18" rx="67.35" ry="67.35"/>
<text text-anchor="middle" x="538.05" y="-513.98" font-family="Times,serif" font-size="14.00">Interactive</text>
<text text-anchor="middle" x="538.05" y="-498.98" font-family="Times,serif" font-size="14.00">Usage</text>
</g>
<!-- MTDT&#45;Share&#45;&gt;Interactive -->
<g id="edge19" class="edge">
<title>MTDT&#45;Share&#45;&gt;Interactive</title>
<path fill="none" stroke="black" d="M549.44,-628.3C548.17,-615.3 546.81,-601.3 545.49,-587.67"/>
<polygon fill="black" stroke="black" points="548.93,-586.95 544.48,-577.33 541.97,-587.63 548.93,-586.95"/>
<text text-anchor="middle" x="583.05" y="-599.15" font-family="Times,serif" font-size="14.00">Execution</text>
</g>
<!-- Interactive&#45;&gt;BrowserShare -->
<g id="edge24" class="edge">
<title>Interactive&#45;&gt;BrowserShare</title>
<path fill="none" stroke="black" d="M510.52,-448.61C506.7,-440.33 502.8,-431.94 499.05,-424 497.74,-421.21 496.37,-418.35 494.99,-415.46"/>
<polygon fill="black" stroke="black" points="498.05,-413.74 490.57,-406.24 491.74,-416.77 498.05,-413.74"/>
</g>
<!-- Interactive&#45;&gt;DiredShare -->
<g id="edge25" class="edge">
<title>Interactive&#45;&gt;DiredShare</title>
<path fill="none" stroke="black" d="M488.52,-464.04C467.97,-445.32 444.52,-423.96 425.45,-406.58"/>
<polygon fill="black" stroke="black" points="427.59,-403.79 417.84,-399.64 422.87,-408.96 427.59,-403.79"/>
</g>
<!-- BrowserShare&#45;&gt;sendWithExtent -->
<g id="edge26" class="edge">
<title>BrowserShare&#45;&gt;sendWithExtent</title>
<path fill="none" stroke="black" d="M474.05,-336.92C474.05,-328.11 474.05,-318.72 474.05,-310.28"/>
<polygon fill="black" stroke="black" points="477.55,-310.22 474.05,-300.22 470.55,-310.22 477.55,-310.22"/>
</g>
<!-- DiredShare&#45;&gt;sendWithExtent -->
<g id="edge27" class="edge">
<title>DiredShare&#45;&gt;sendWithExtent</title>
<path fill="none" stroke="black" d="M417.65,-340.39C428.18,-329.67 439.9,-317.74 449.92,-307.55"/>
<polygon fill="black" stroke="black" points="452.69,-309.73 457.2,-300.14 447.69,-304.82 452.69,-309.73"/>
</g>
</g>
</svg>
