<?xml version="1.0" encoding="UTF-8" standalone="no"?>
<!DOCTYPE svg PUBLIC "-//W3C//DTD SVG 1.1//EN"
 "http://www.w3.org/Graphics/SVG/1.1/DTD/svg11.dtd">
<!-- Generated by graphviz version 2.43.0 (0)
 -->
<!-- Title: %3 Pages: 1 -->
<svg width="1625pt" height="647pt"
 viewBox="0.00 0.00 1625.38 647.03" xmlns="http://www.w3.org/2000/svg" xmlns:xlink="http://www.w3.org/1999/xlink">
<g id="graph0" class="graph" transform="scale(1 1) rotate(0) translate(4 643.03)">
<title>%3</title>
<polygon fill="white" stroke="transparent" points="-4,4 -4,-643.03 1621.38,-643.03 1621.38,4 -4,4"/>
<!-- LCNT -->
<g id="node1" class="node">
<title>LCNT</title>
<ellipse fill="#9bcd9b" stroke="black" cx="365.38" cy="-586.71" rx="52.15" ry="52.15"/>
<text text-anchor="middle" x="365.38" y="-598.01" font-family="Times,serif" font-size="14.00">LCNT:</text>
<text text-anchor="middle" x="365.38" y="-583.01" font-family="Times,serif" font-size="14.00">Libre</text>
<text text-anchor="middle" x="365.38" y="-568.01" font-family="Times,serif" font-size="14.00">Content</text>
</g>
<!-- LcntMasFile -->
<g id="node2" class="node">
<title>LcntMasFile</title>
<polygon fill="#fff68f" stroke="black" points="703.67,-462.69 472.55,-462.69 413.09,-386.69 644.21,-386.69 703.67,-462.69"/>
<text text-anchor="middle" x="558.38" y="-428.49" font-family="Times,serif" font-size="14.00">articleLtr.mastex</text>
<text text-anchor="middle" x="558.38" y="-413.49" font-family="Times,serif" font-size="14.00">articleRtl.mastex</text>
</g>
<!-- LCNT&#45;&gt;LcntMasFile -->
<g id="edge1" class="edge">
<title>LCNT&#45;&gt;LcntMasFile</title>
<path fill="none" stroke="black" d="M405.37,-552.55C434.48,-528.41 474.18,-495.5 505.85,-469.24"/>
<polygon fill="black" stroke="black" points="508.25,-471.79 513.72,-462.72 503.79,-466.41 508.25,-471.79"/>
<text text-anchor="middle" x="508.38" y="-505.18" font-family="Times,serif" font-size="14.00">Specification</text>
</g>
<!-- LcntProcMailing -->
<g id="node3" class="node">
<title>LcntProcMailing</title>
<polygon fill="#cd7054" stroke="black" points="395.88,-305.5 316.88,-305.5 316.88,-248.5 395.88,-248.5 395.88,-242.5 413.88,-277 395.88,-311.5 395.88,-305.5"/>
<text text-anchor="middle" x="365.38" y="-280.3" font-family="Times,serif" font-size="14.00">lcntProc.sh</text>
<text text-anchor="middle" x="365.38" y="-265.3" font-family="Times,serif" font-size="14.00">Mailing</text>
<text text-anchor="middle" x="365.38" y="-250.3" font-family="Times,serif" font-size="14.00"> </text>
</g>
<!-- LCNT&#45;&gt;LcntProcMailing -->
<g id="edge2" class="edge">
<title>LCNT&#45;&gt;LcntProcMailing</title>
<path fill="none" stroke="black" d="M361.19,-534.47C360.04,-518.15 358.95,-500.02 358.38,-483.38 356.6,-431.24 356.31,-418.13 358.38,-366 358.95,-351.72 360.03,-336.17 361.18,-322.17"/>
<polygon fill="black" stroke="black" points="364.7,-322.07 362.06,-311.81 357.72,-321.48 364.7,-322.07"/>
<text text-anchor="middle" x="381.38" y="-420.99" font-family="Times,serif" font-size="14.00">Usage</text>
</g>
<!-- LcntMasFile&#45;&gt;LcntProcMailing -->
<g id="edge3" class="edge">
<title>LcntMasFile&#45;&gt;LcntProcMailing</title>
<path fill="none" stroke="black" d="M524.65,-386.41C507.83,-369 486.58,-348.71 465.38,-333 452.26,-323.28 437.23,-314.12 422.87,-306.16"/>
<polygon fill="black" stroke="black" points="424.5,-303.06 414.05,-301.37 421.17,-309.22 424.5,-303.06"/>
<text text-anchor="middle" x="505.38" y="-336.8" font-family="Times,serif" font-size="14.00">Usage</text>
</g>
<!-- MailingFile -->
<g id="node5" class="node">
<title>MailingFile</title>
<polygon fill="#fff68f" stroke="black" points="859.1,-315 741.83,-315 711.66,-239 828.93,-239 859.1,-315"/>
<text text-anchor="middle" x="785.38" y="-280.8" font-family="Times,serif" font-size="14.00">Mailing</text>
<text text-anchor="middle" x="785.38" y="-265.8" font-family="Times,serif" font-size="14.00">File</text>
</g>
<!-- LcntMasFile&#45;&gt;MailingFile -->
<g id="edge4" class="edge">
<title>LcntMasFile&#45;&gt;MailingFile</title>
<path fill="none" stroke="black" d="M583.79,-386.4C598.14,-367.92 617.56,-346.68 639.38,-333 664.05,-317.53 675.01,-324.95 702.38,-315 710.37,-312.09 718.68,-308.77 726.81,-305.33"/>
<polygon fill="black" stroke="black" points="728.45,-308.44 736.25,-301.27 725.69,-302.01 728.45,-308.44"/>
<text text-anchor="middle" x="668.38" y="-336.8" font-family="Times,serif" font-size="14.00">Content</text>
</g>
<!-- TemplateFile -->
<g id="node6" class="node">
<title>TemplateFile</title>
<polygon fill="#fff68f" stroke="black" points="1116.48,-315 979.51,-315 944.28,-239 1081.25,-239 1116.48,-315"/>
<text text-anchor="middle" x="1030.38" y="-280.8" font-family="Times,serif" font-size="14.00">Template</text>
<text text-anchor="middle" x="1030.38" y="-265.8" font-family="Times,serif" font-size="14.00">File</text>
</g>
<!-- LcntMasFile&#45;&gt;TemplateFile -->
<g id="edge5" class="edge">
<title>LcntMasFile&#45;&gt;TemplateFile</title>
<path fill="none" stroke="black" d="M657.61,-403.39C705.97,-391.21 763.99,-373.13 812.38,-348 821.93,-343.04 821.78,-337.86 831.38,-333 870.71,-313.07 918.19,-299.6 956.91,-290.97"/>
<polygon fill="black" stroke="black" points="958.03,-294.31 967.06,-288.78 956.55,-287.47 958.03,-294.31"/>
<text text-anchor="middle" x="860.38" y="-336.8" font-family="Times,serif" font-size="14.00">Content</text>
</g>
<!-- MuaStencil -->
<g id="node7" class="node">
<title>MuaStencil</title>
<polygon fill="#fff68f" stroke="black" points="693.73,-315 585,-315 557.03,-239 665.76,-239 693.73,-315"/>
<text text-anchor="middle" x="625.38" y="-280.8" font-family="Times,serif" font-size="14.00">Mua</text>
<text text-anchor="middle" x="625.38" y="-265.8" font-family="Times,serif" font-size="14.00">Stencil</text>
</g>
<!-- LcntMasFile&#45;&gt;MuaStencil -->
<g id="edge6" class="edge">
<title>LcntMasFile&#45;&gt;MuaStencil</title>
<path fill="none" stroke="black" d="M551.34,-386.36C549.85,-369.33 550.64,-349.37 558.38,-333 562.08,-325.18 567.5,-318.09 573.67,-311.81"/>
<polygon fill="black" stroke="black" points="576.27,-314.18 581.22,-304.81 571.51,-309.05 576.27,-314.18"/>
<text text-anchor="middle" x="587.38" y="-336.8" font-family="Times,serif" font-size="14.00">Content</text>
</g>
<!-- LcntProcMailing&#45;&gt;LcntMasFile -->
<g id="edge7" class="edge">
<title>LcntProcMailing&#45;&gt;LcntMasFile</title>
<path fill="none" stroke="black" d="M369.41,-321.41C371.98,-330.98 376.03,-340.48 382.38,-348 395.8,-363.88 413.15,-376.52 431.72,-386.55"/>
<polygon fill="black" stroke="black" points="372.8,-320.52 367.24,-311.5 365.96,-322.02 372.8,-320.52"/>
<text text-anchor="middle" x="421.88" y="-336.8" font-family="Times,serif" font-size="14.00">Processing</text>
</g>
<!-- MailingFileUsage -->
<g id="node8" class="node">
<title>MailingFileUsage</title>
<polygon fill="#ffa07a" stroke="black" points="127.88,-182 74.88,-182 74.88,-110 127.88,-110 127.88,-104 145.88,-146 127.88,-188 127.88,-182"/>
<text text-anchor="middle" x="110.38" y="-156.8" font-family="Times,serif" font-size="14.00">Mailing</text>
<text text-anchor="middle" x="110.38" y="-141.8" font-family="Times,serif" font-size="14.00">File</text>
<text text-anchor="middle" x="110.38" y="-126.8" font-family="Times,serif" font-size="14.00">Usage</text>
<text text-anchor="middle" x="110.38" y="-111.8" font-family="Times,serif" font-size="14.00"> </text>
</g>
<!-- LcntProcMailing&#45;&gt;MailingFileUsage -->
<g id="edge8" class="edge">
<title>LcntProcMailing&#45;&gt;MailingFileUsage</title>
<path fill="none" stroke="black" d="M316.68,-276.02C228.03,-274.9 45.81,-266.93 6.38,-221 -16.15,-194.76 27.44,-173.01 64.9,-160.03"/>
<polygon fill="black" stroke="black" points="66.36,-163.24 74.75,-156.77 64.15,-156.59 66.36,-163.24"/>
<text text-anchor="middle" x="29.38" y="-209.8" font-family="Times,serif" font-size="14.00">Usage</text>
</g>
<!-- Start&#45;Mailing -->
<g id="node4" class="node">
<title>Start&#45;Mailing</title>
<ellipse fill="#9bcd9b" stroke="black" cx="915.38" cy="-424.69" rx="58.88" ry="58.88"/>
<text text-anchor="middle" x="915.38" y="-443.49" font-family="Times,serif" font-size="14.00">LAYER 1:</text>
<text text-anchor="middle" x="915.38" y="-428.49" font-family="Times,serif" font-size="14.00">Create</text>
<text text-anchor="middle" x="915.38" y="-413.49" font-family="Times,serif" font-size="14.00">Mailing</text>
<text text-anchor="middle" x="915.38" y="-398.49" font-family="Times,serif" font-size="14.00">File</text>
</g>
<!-- Start&#45;Mailing&#45;&gt;MailingFile -->
<g id="edge9" class="edge">
<title>Start&#45;Mailing&#45;&gt;MailingFile</title>
<path fill="none" stroke="black" d="M909.24,-366.09C905.92,-354.26 900.91,-342.53 893.38,-333 885.11,-322.54 874.33,-313.89 862.77,-306.8"/>
<polygon fill="black" stroke="black" points="864.23,-303.6 853.81,-301.67 860.75,-309.67 864.23,-303.6"/>
<text text-anchor="middle" x="948.38" y="-336.8" font-family="Times,serif" font-size="14.00">Specification</text>
</g>
<!-- Start&#45;Mailing&#45;&gt;TemplateFile -->
<g id="edge10" class="edge">
<title>Start&#45;Mailing&#45;&gt;TemplateFile</title>
<path fill="none" stroke="black" d="M964.84,-392.08C980.61,-379.93 996.93,-364.88 1008.38,-348 1013.16,-340.95 1016.94,-332.81 1019.93,-324.63"/>
<polygon fill="black" stroke="black" points="1023.27,-325.67 1023.07,-315.07 1016.62,-323.48 1023.27,-325.67"/>
<text text-anchor="middle" x="1061.38" y="-336.8" font-family="Times,serif" font-size="14.00">Specification</text>
</g>
<!-- Start&#45;Mailing&#45;&gt;MuaStencil -->
<g id="edge11" class="edge">
<title>Start&#45;Mailing&#45;&gt;MuaStencil</title>
<path fill="none" stroke="black" d="M859.42,-406.38C819.46,-392.98 765.09,-372.58 720.38,-348 711.97,-343.38 697,-332.77 681.39,-321.17"/>
<polygon fill="black" stroke="black" points="683.3,-318.23 673.2,-315.04 679.11,-323.83 683.3,-318.23"/>
<text text-anchor="middle" x="766.38" y="-336.8" font-family="Times,serif" font-size="14.00">Specification</text>
</g>
<!-- MailingFile&#45;&gt;MailingFileUsage -->
<g id="edge39" class="edge">
<title>MailingFile&#45;&gt;MailingFileUsage</title>
<path fill="none" stroke="black" d="M712.59,-241.72C709.18,-240.7 705.76,-239.78 702.38,-239 643.66,-225.48 213.12,-250.15 160.38,-221 150.09,-215.32 141.52,-206.51 134.54,-196.93"/>
<polygon fill="black" stroke="black" points="137.28,-194.74 128.81,-188.37 131.46,-198.63 137.28,-194.74"/>
<text text-anchor="middle" x="184.38" y="-209.8" font-family="Times,serif" font-size="14.00">Derive</text>
</g>
<!-- SelectedCompositionFwrk -->
<g id="node13" class="node">
<title>SelectedCompositionFwrk</title>
<path fill="green" stroke="black" d="M809.88,-160.73C809.88,-162.53 780.07,-164 743.38,-164 706.69,-164 676.88,-162.53 676.88,-160.73 676.88,-160.73 676.88,-131.27 676.88,-131.27 676.88,-129.47 706.69,-128 743.38,-128 780.07,-128 809.88,-129.47 809.88,-131.27 809.88,-131.27 809.88,-160.73 809.88,-160.73"/>
<path fill="none" stroke="black" d="M809.88,-160.73C809.88,-158.92 780.07,-157.45 743.38,-157.45 706.69,-157.45 676.88,-158.92 676.88,-160.73"/>
<text text-anchor="middle" x="743.38" y="-142.3" font-family="Times,serif" font-size="14.00">X&#45;ComposeFwrk</text>
</g>
<!-- MailingFile&#45;&gt;SelectedCompositionFwrk -->
<g id="edge16" class="edge">
<title>MailingFile&#45;&gt;SelectedCompositionFwrk</title>
<path fill="none" stroke="black" d="M748.21,-230.18C746.73,-227.17 745.43,-224.1 744.38,-221 738.06,-202.38 738.94,-179.59 740.67,-164.26"/>
<polygon fill="black" stroke="black" points="745.2,-231.97 753.14,-239 751.32,-228.56 745.2,-231.97"/>
<text text-anchor="middle" x="770.88" y="-209.8" font-family="Times,serif" font-size="14.00">Header</text>
</g>
<!-- Purpose -->
<g id="node14" class="node">
<title>Purpose</title>
<path fill="green" stroke="black" d="M366.38,-160.73C366.38,-162.53 333.21,-164 292.38,-164 251.55,-164 218.38,-162.53 218.38,-160.73 218.38,-160.73 218.38,-131.27 218.38,-131.27 218.38,-129.47 251.55,-128 292.38,-128 333.21,-128 366.38,-129.47 366.38,-131.27 366.38,-131.27 366.38,-160.73 366.38,-160.73"/>
<path fill="none" stroke="black" d="M366.38,-160.73C366.38,-158.92 333.21,-157.45 292.38,-157.45 251.55,-157.45 218.38,-158.92 218.38,-160.73"/>
<text text-anchor="middle" x="292.38" y="-142.3" font-family="Times,serif" font-size="14.00">X&#45;Mailing&#45;Purpose</text>
</g>
<!-- MailingFile&#45;&gt;Purpose -->
<g id="edge22" class="edge">
<title>MailingFile&#45;&gt;Purpose</title>
<path fill="none" stroke="black" d="M702.7,-239.08C702.59,-239.05 702.49,-239.02 702.38,-239 658.11,-228.56 325.05,-253.65 293.38,-221 279.07,-206.24 282.25,-181.03 286.66,-164.19"/>
<polygon fill="black" stroke="black" points="702.01,-242.52 712.58,-241.77 703.85,-235.76 702.01,-242.52"/>
<text text-anchor="middle" x="319.88" y="-209.8" font-family="Times,serif" font-size="14.00">Header</text>
</g>
<!-- SelectedCompositionModel -->
<g id="node18" class="node">
<title>SelectedCompositionModel</title>
<path fill="green" stroke="black" d="M1509.88,-175.76C1509.88,-179.41 1472.9,-182.38 1427.38,-182.38 1381.86,-182.38 1344.88,-179.41 1344.88,-175.76 1344.88,-175.76 1344.88,-116.24 1344.88,-116.24 1344.88,-112.59 1381.86,-109.62 1427.38,-109.62 1472.9,-109.62 1509.88,-112.59 1509.88,-116.24 1509.88,-116.24 1509.88,-175.76 1509.88,-175.76"/>
<path fill="none" stroke="black" d="M1509.88,-175.76C1509.88,-172.11 1472.9,-169.15 1427.38,-169.15 1381.86,-169.15 1344.88,-172.11 1344.88,-175.76"/>
<text text-anchor="middle" x="1427.38" y="-157.3" font-family="Times,serif" font-size="14.00">X&#45;MailingParams</text>
<text text-anchor="middle" x="1427.38" y="-142.3" font-family="Times,serif" font-size="14.00">:type ext</text>
<text text-anchor="middle" x="1427.38" y="-127.3" font-family="Times,serif" font-size="14.00">(Composition Model)</text>
</g>
<!-- MailingFile&#45;&gt;SelectedCompositionModel -->
<g id="edge27" class="edge">
<title>MailingFile&#45;&gt;SelectedCompositionModel</title>
<path fill="none" stroke="black" d="M847.62,-257.63C874.39,-250.52 906.18,-243.12 935.38,-239 961.25,-235.35 1384.74,-237.02 1405.38,-221 1417.13,-211.88 1422.83,-196.75 1425.51,-182.55"/>
<polygon fill="black" stroke="black" points="846.37,-254.35 837.63,-260.34 848.19,-261.1 846.37,-254.35"/>
<text text-anchor="middle" x="1442.88" y="-209.8" font-family="Times,serif" font-size="14.00">Header</text>
</g>
<!-- MailingName -->
<g id="node21" class="node">
<title>MailingName</title>
<path fill="green" stroke="black" d="M1148.88,-160.73C1148.88,-162.53 1120.42,-164 1085.38,-164 1050.34,-164 1021.88,-162.53 1021.88,-160.73 1021.88,-160.73 1021.88,-131.27 1021.88,-131.27 1021.88,-129.47 1050.34,-128 1085.38,-128 1120.42,-128 1148.88,-129.47 1148.88,-131.27 1148.88,-131.27 1148.88,-160.73 1148.88,-160.73"/>
<path fill="none" stroke="black" d="M1148.88,-160.73C1148.88,-158.92 1120.42,-157.45 1085.38,-157.45 1050.34,-157.45 1021.88,-158.92 1021.88,-160.73"/>
<text text-anchor="middle" x="1085.38" y="-142.3" font-family="Times,serif" font-size="14.00">X&#45;MailingName</text>
</g>
<!-- MailingFile&#45;&gt;MailingName -->
<g id="edge30" class="edge">
<title>MailingFile&#45;&gt;MailingName</title>
<path fill="none" stroke="black" d="M848.36,-259.81C875.12,-253.09 906.71,-245.4 935.38,-239 975.19,-230.11 990.46,-242.09 1025.38,-221 1048.31,-207.15 1066.25,-181.19 1076.33,-164"/>
<polygon fill="black" stroke="black" points="847.19,-256.49 838.35,-262.32 848.9,-263.28 847.19,-256.49"/>
<text text-anchor="middle" x="1069.88" y="-209.8" font-family="Times,serif" font-size="14.00">Header</text>
</g>
<!-- MailingFile&#45;&gt;MailingName -->
<g id="edge33" class="edge">
<title>MailingFile&#45;&gt;MailingName</title>
<path fill="none" stroke="black" d="M847.78,-258.63C874.57,-251.69 906.34,-244.14 935.38,-239 971.7,-232.57 1075.75,-248.46 1100.38,-221 1114.3,-205.48 1105.14,-180.7 1096.2,-164.14"/>
<polygon fill="black" stroke="black" points="846.56,-255.34 837.77,-261.26 848.33,-262.11 846.56,-255.34"/>
<text text-anchor="middle" x="1132.88" y="-209.8" font-family="Times,serif" font-size="14.00">Header</text>
</g>
<!-- Customize -->
<g id="node22" class="node">
<title>Customize</title>
<path fill="green" stroke="black" d="M591.38,-167.48C591.38,-170.11 557.32,-172.25 515.38,-172.25 473.44,-172.25 439.38,-170.11 439.38,-167.48 439.38,-167.48 439.38,-124.52 439.38,-124.52 439.38,-121.89 473.44,-119.75 515.38,-119.75 557.32,-119.75 591.38,-121.89 591.38,-124.52 591.38,-124.52 591.38,-167.48 591.38,-167.48"/>
<path fill="none" stroke="black" d="M591.38,-167.48C591.38,-164.84 557.32,-162.7 515.38,-162.7 473.44,-162.7 439.38,-164.84 439.38,-167.48"/>
<text text-anchor="middle" x="515.38" y="-149.8" font-family="Times,serif" font-size="14.00">X&#45;MTDT&#45;Customize</text>
<text text-anchor="middle" x="515.38" y="-134.8" font-family="Times,serif" font-size="14.00">(file path)</text>
</g>
<!-- MailingFile&#45;&gt;Customize -->
<g id="edge36" class="edge">
<title>MailingFile&#45;&gt;Customize</title>
<path fill="none" stroke="black" d="M702.69,-239.08C702.59,-239.06 702.48,-239.03 702.38,-239 662.23,-228.41 544.5,-251.56 516.38,-221 504.63,-208.24 505,-188.36 507.97,-172.41"/>
<polygon fill="black" stroke="black" points="701.94,-242.51 712.53,-241.99 703.93,-235.8 701.94,-242.51"/>
<text text-anchor="middle" x="542.88" y="-209.8" font-family="Times,serif" font-size="14.00">Header</text>
</g>
<!-- TemplateFile&#45;&gt;MailingFileUsage -->
<g id="edge40" class="edge">
<title>TemplateFile&#45;&gt;MailingFileUsage</title>
<path fill="none" stroke="black" d="M951.4,-254.84C925.18,-248.66 895.7,-242.59 868.38,-239 761.67,-224.96 489.72,-243.08 384.38,-221 366.61,-217.28 363.96,-210.55 346.38,-206 286.93,-190.61 268.7,-203.89 209.38,-188 191.35,-183.17 172.25,-175.83 155.69,-168.69"/>
<polygon fill="black" stroke="black" points="156.82,-165.36 146.26,-164.53 153.99,-171.77 156.82,-165.36"/>
<text text-anchor="middle" x="408.38" y="-209.8" font-family="Times,serif" font-size="14.00">Derive</text>
</g>
<!-- TemplateFile&#45;&gt;SelectedCompositionFwrk -->
<g id="edge17" class="edge">
<title>TemplateFile&#45;&gt;SelectedCompositionFwrk</title>
<path fill="none" stroke="black" d="M1104.2,-265.26C1153.56,-255.06 1204.84,-236.64 1177.38,-206 1152.91,-178.7 1049.73,-192.75 1013.38,-188 943.92,-178.92 864.7,-166.66 810.12,-157.92"/>
<polygon fill="black" stroke="black" points="1103.51,-261.83 1094.37,-267.19 1104.86,-268.7 1103.51,-261.83"/>
<text text-anchor="middle" x="1210.88" y="-209.8" font-family="Times,serif" font-size="14.00">Header</text>
</g>
<!-- TemplateFile&#45;&gt;Purpose -->
<g id="edge23" class="edge">
<title>TemplateFile&#45;&gt;Purpose</title>
<path fill="none" stroke="black" d="M941.72,-253.16C918.03,-247.77 892.35,-242.56 868.38,-239 755.56,-222.25 724.1,-243.99 612.38,-221 592.55,-216.92 589.08,-210.66 569.38,-206 508.76,-191.66 491.32,-200.91 430.38,-188 400.43,-181.65 367.54,-171.99 341.39,-163.64"/>
<polygon fill="black" stroke="black" points="941.21,-256.63 951.74,-255.47 942.79,-249.81 941.21,-256.63"/>
<text text-anchor="middle" x="638.88" y="-209.8" font-family="Times,serif" font-size="14.00">Header</text>
</g>
<!-- TemplateFile&#45;&gt;SelectedCompositionModel -->
<g id="edge28" class="edge">
<title>TemplateFile&#45;&gt;SelectedCompositionModel</title>
<path fill="none" stroke="black" d="M1107.83,-273.53C1247.04,-268.29 1527.87,-253.75 1557.38,-221 1579.46,-196.5 1547.64,-178.09 1509.96,-165.77"/>
<polygon fill="black" stroke="black" points="1107.51,-270.04 1097.65,-273.91 1107.77,-277.04 1107.51,-270.04"/>
<text text-anchor="middle" x="1590.88" y="-209.8" font-family="Times,serif" font-size="14.00">Header</text>
</g>
<!-- TemplateFile&#45;&gt;MailingName -->
<g id="edge31" class="edge">
<title>TemplateFile&#45;&gt;MailingName</title>
<path fill="none" stroke="black" d="M1105.3,-267.43C1162.7,-259.14 1235.08,-244.36 1253.38,-221 1285.32,-180.23 1209.02,-161.4 1149.02,-153.09"/>
<polygon fill="black" stroke="black" points="1104.56,-264 1095.14,-268.86 1105.53,-270.94 1104.56,-264"/>
<text text-anchor="middle" x="1286.88" y="-209.8" font-family="Times,serif" font-size="14.00">Header</text>
</g>
<!-- TemplateFile&#45;&gt;MailingName -->
<g id="edge34" class="edge">
<title>TemplateFile&#45;&gt;MailingName</title>
<path fill="none" stroke="black" d="M1107.13,-272.1C1229.36,-265.1 1457.03,-248.5 1481.38,-221 1514.9,-183.15 1562.9,-220.55 1336.38,-188 1272.46,-178.82 1199.66,-166.74 1148.98,-158.08"/>
<polygon fill="black" stroke="black" points="1106.86,-268.61 1097.07,-272.67 1107.26,-275.6 1106.86,-268.61"/>
<text text-anchor="middle" x="1526.88" y="-209.8" font-family="Times,serif" font-size="14.00">Header</text>
</g>
<!-- TemplateFile&#45;&gt;Customize -->
<g id="edge37" class="edge">
<title>TemplateFile&#45;&gt;Customize</title>
<path fill="none" stroke="black" d="M943.74,-257.56C894.78,-246.39 838.97,-232.19 816.38,-221 806.74,-216.22 807.28,-210.22 797.38,-206 744.14,-183.27 725.11,-199.51 668.38,-188 643.18,-182.89 615.98,-176.04 591.6,-169.41"/>
<polygon fill="black" stroke="black" points="943.22,-261.03 953.75,-259.82 944.77,-254.2 943.22,-261.03"/>
<text text-anchor="middle" x="842.88" y="-209.8" font-family="Times,serif" font-size="14.00">Header</text>
</g>
<!-- MuaStencil&#45;&gt;MailingFileUsage -->
<g id="edge41" class="edge">
<title>MuaStencil&#45;&gt;MailingFileUsage</title>
<path fill="none" stroke="black" d="M565.73,-263.04C525.44,-254.81 470.95,-244.66 422.38,-239 384.03,-234.53 101.96,-249 75.38,-221 68.63,-213.89 68.06,-205.23 70.83,-196.38"/>
<polygon fill="black" stroke="black" points="74.07,-197.71 74.81,-187.14 67.64,-194.94 74.07,-197.71"/>
<text text-anchor="middle" x="99.38" y="-209.8" font-family="Times,serif" font-size="14.00">Derive</text>
</g>
<!-- MuaStencil&#45;&gt;SelectedCompositionFwrk -->
<g id="edge18" class="edge">
<title>MuaStencil&#45;&gt;SelectedCompositionFwrk</title>
<path fill="none" stroke="black" d="M661.71,-230.78C668.75,-222.41 676.18,-213.84 683.38,-206 696.82,-191.37 712.91,-175.63 725.05,-164.09"/>
<polygon fill="black" stroke="black" points="658.81,-228.78 655.09,-238.71 664.19,-233.27 658.81,-228.78"/>
<text text-anchor="middle" x="709.88" y="-209.8" font-family="Times,serif" font-size="14.00">Header</text>
</g>
<!-- MuaStencil&#45;&gt;Purpose -->
<g id="edge24" class="edge">
<title>MuaStencil&#45;&gt;Purpose</title>
<path fill="none" stroke="black" d="M555.89,-261.69C516.8,-254.05 467.03,-245.02 422.38,-239 399.72,-235.95 232.83,-237.86 217.38,-221 198.78,-200.7 227.97,-178.69 255.19,-164"/>
<polygon fill="black" stroke="black" points="555.61,-265.2 566.1,-263.7 556.96,-258.33 555.61,-265.2"/>
<text text-anchor="middle" x="243.88" y="-209.8" font-family="Times,serif" font-size="14.00">Header</text>
</g>
<!-- MuaStencil&#45;&gt;SelectedCompositionModel -->
<g id="edge29" class="edge">
<title>MuaStencil&#45;&gt;SelectedCompositionModel</title>
<path fill="none" stroke="black" d="M679.55,-246.56C687.04,-243.51 694.78,-240.85 702.38,-239 835.23,-206.69 1187.2,-262.8 1317.38,-221 1330.91,-216.65 1356.99,-199.28 1380.36,-182.46"/>
<polygon fill="black" stroke="black" points="678,-243.42 670.22,-250.61 680.78,-249.84 678,-243.42"/>
<text text-anchor="middle" x="1370.88" y="-209.8" font-family="Times,serif" font-size="14.00">Header</text>
</g>
<!-- MuaStencil&#45;&gt;MailingName -->
<g id="edge32" class="edge">
<title>MuaStencil&#45;&gt;MailingName</title>
<path fill="none" stroke="black" d="M679.63,-246.87C687.11,-243.77 694.82,-241.01 702.38,-239 808.74,-210.67 846.78,-260.86 949.38,-221 959.41,-217.1 959.31,-211.78 968.38,-206 993.6,-189.92 1023.78,-174.79 1047.18,-163.88"/>
<polygon fill="black" stroke="black" points="678.06,-243.74 670.31,-250.96 680.87,-250.15 678.06,-243.74"/>
<text text-anchor="middle" x="994.88" y="-209.8" font-family="Times,serif" font-size="14.00">Header</text>
</g>
<!-- MuaStencil&#45;&gt;MailingName -->
<g id="edge35" class="edge">
<title>MuaStencil&#45;&gt;MailingName</title>
<path fill="none" stroke="black" d="M679.69,-247.1C687.16,-243.96 694.86,-241.13 702.38,-239 775.9,-218.14 802.6,-249.81 873.38,-221 883.34,-216.94 882.85,-210.99 892.38,-206 933.19,-184.62 983,-169.64 1021.8,-160.12"/>
<polygon fill="black" stroke="black" points="678.11,-243.97 670.38,-251.22 680.94,-250.38 678.11,-243.97"/>
<text text-anchor="middle" x="918.88" y="-209.8" font-family="Times,serif" font-size="14.00">Header</text>
</g>
<!-- MuaStencil&#45;&gt;Customize -->
<g id="edge38" class="edge">
<title>MuaStencil&#45;&gt;Customize</title>
<path fill="none" stroke="black" d="M556.99,-264.45C510.39,-255.02 454.66,-240.14 440.38,-221 426.98,-203.04 443.58,-185.32 464.53,-171.73"/>
<polygon fill="black" stroke="black" points="556.59,-267.93 567.08,-266.43 557.94,-261.07 556.59,-267.93"/>
<text text-anchor="middle" x="466.88" y="-209.8" font-family="Times,serif" font-size="14.00">Header</text>
</g>
<!-- PlainText -->
<g id="node9" class="node">
<title>PlainText</title>
<polygon fill="#c1cdcd" stroke="black" points="644.88,-44.5 561.88,-44.5 561.88,-8.5 644.88,-8.5 644.88,-44.5"/>
<text text-anchor="middle" x="603.38" y="-22.8" font-family="Times,serif" font-size="14.00">PlainText</text>
</g>
<!-- OrgMsg -->
<g id="node10" class="node">
<title>OrgMsg</title>
<polygon fill="#c1cdcd" stroke="black" points="737.38,-44.5 663.38,-44.5 663.38,-8.5 737.38,-8.5 737.38,-44.5"/>
<text text-anchor="middle" x="700.38" y="-22.8" font-family="Times,serif" font-size="14.00">OrgMsg</text>
</g>
<!-- LaTeX -->
<g id="node11" class="node">
<title>LaTeX</title>
<polygon fill="#c1cdcd" stroke="black" points="815.38,-44.5 755.38,-44.5 755.38,-8.5 815.38,-8.5 815.38,-44.5"/>
<text text-anchor="middle" x="785.38" y="-22.8" font-family="Times,serif" font-size="14.00">LaTeX</text>
</g>
<!-- Html -->
<g id="node12" class="node">
<title>Html</title>
<polygon fill="#c1cdcd" stroke="black" points="887.38,-44.5 833.38,-44.5 833.38,-8.5 887.38,-8.5 887.38,-44.5"/>
<text text-anchor="middle" x="860.38" y="-22.8" font-family="Times,serif" font-size="14.00">Html</text>
</g>
<!-- SelectedCompositionFwrk&#45;&gt;PlainText -->
<g id="edge12" class="edge">
<title>SelectedCompositionFwrk&#45;&gt;PlainText</title>
<path fill="none" stroke="black" d="M711.3,-121.49C697.27,-110.93 680.77,-98.15 666.38,-86 650.53,-72.62 633.32,-56.52 620.9,-44.6"/>
<polygon fill="black" stroke="black" points="709.57,-124.57 719.68,-127.75 713.76,-118.96 709.57,-124.57"/>
<text text-anchor="middle" x="687.88" y="-74.8" font-family="Times,serif" font-size="14.00">Enum</text>
</g>
<!-- SelectedCompositionFwrk&#45;&gt;OrgMsg -->
<g id="edge13" class="edge">
<title>SelectedCompositionFwrk&#45;&gt;OrgMsg</title>
<path fill="none" stroke="black" d="M731.44,-118.43C727.1,-108.36 722.3,-96.74 718.38,-86 713.36,-72.22 708.52,-56.3 705.13,-44.55"/>
<polygon fill="black" stroke="black" points="728.36,-120.13 735.58,-127.89 734.78,-117.32 728.36,-120.13"/>
<text text-anchor="middle" x="739.88" y="-74.8" font-family="Times,serif" font-size="14.00">Enum</text>
</g>
<!-- SelectedCompositionFwrk&#45;&gt;LaTeX -->
<g id="edge14" class="edge">
<title>SelectedCompositionFwrk&#45;&gt;LaTeX</title>
<path fill="none" stroke="black" d="M752.94,-118.24C761.02,-95.64 772.36,-63.93 779.27,-44.61"/>
<polygon fill="black" stroke="black" points="749.56,-117.32 749.49,-127.91 756.15,-119.68 749.56,-117.32"/>
<text text-anchor="middle" x="789.88" y="-74.8" font-family="Times,serif" font-size="14.00">Enum</text>
</g>
<!-- SelectedCompositionFwrk&#45;&gt;Html -->
<g id="edge15" class="edge">
<title>SelectedCompositionFwrk&#45;&gt;Html</title>
<path fill="none" stroke="black" d="M775.17,-121.52C788.22,-111.24 803.11,-98.66 815.38,-86 827.87,-73.12 840.16,-56.83 848.73,-44.72"/>
<polygon fill="black" stroke="black" points="772.67,-119.02 766.91,-127.91 776.96,-124.56 772.67,-119.02"/>
<text text-anchor="middle" x="848.88" y="-74.8" font-family="Times,serif" font-size="14.00">Enum</text>
</g>
<!-- PurposeMailing -->
<g id="node15" class="node">
<title>PurposeMailing</title>
<polygon fill="#c1cdcd" stroke="black" points="327.88,-44.5 256.88,-44.5 256.88,-8.5 327.88,-8.5 327.88,-44.5"/>
<text text-anchor="middle" x="292.38" y="-22.8" font-family="Times,serif" font-size="14.00">Mailing</text>
</g>
<!-- Purpose&#45;&gt;PurposeMailing -->
<g id="edge19" class="edge">
<title>Purpose&#45;&gt;PurposeMailing</title>
<path fill="none" stroke="black" d="M292.38,-117.63C292.38,-95.07 292.38,-63.76 292.38,-44.61"/>
<polygon fill="black" stroke="black" points="288.88,-117.91 292.38,-127.91 295.88,-117.91 288.88,-117.91"/>
<text text-anchor="middle" x="313.88" y="-74.8" font-family="Times,serif" font-size="14.00">Enum</text>
</g>
<!-- PurposeTemplate -->
<g id="node16" class="node">
<title>PurposeTemplate</title>
<polygon fill="#c1cdcd" stroke="black" points="428.88,-44.5 345.88,-44.5 345.88,-8.5 428.88,-8.5 428.88,-44.5"/>
<text text-anchor="middle" x="387.38" y="-22.8" font-family="Times,serif" font-size="14.00">Template</text>
</g>
<!-- Purpose&#45;&gt;PurposeTemplate -->
<g id="edge20" class="edge">
<title>Purpose&#45;&gt;PurposeTemplate</title>
<path fill="none" stroke="black" d="M312.55,-120.06C330.9,-97.36 357.5,-64.46 373.55,-44.61"/>
<polygon fill="black" stroke="black" points="309.76,-117.94 306.19,-127.91 315.2,-122.34 309.76,-117.94"/>
<text text-anchor="middle" x="372.88" y="-74.8" font-family="Times,serif" font-size="14.00">Enum</text>
</g>
<!-- PurposeMua -->
<g id="node17" class="node">
<title>PurposeMua</title>
<polygon fill="#c1cdcd" stroke="black" points="238.38,-44.5 184.38,-44.5 184.38,-8.5 238.38,-8.5 238.38,-44.5"/>
<text text-anchor="middle" x="211.38" y="-22.8" font-family="Times,serif" font-size="14.00">Mua</text>
</g>
<!-- Purpose&#45;&gt;PurposeMua -->
<g id="edge21" class="edge">
<title>Purpose&#45;&gt;PurposeMua</title>
<path fill="none" stroke="black" d="M271.26,-120.15C262.85,-109.84 253.31,-97.6 245.38,-86 236.17,-72.52 226.93,-56.43 220.42,-44.54"/>
<polygon fill="black" stroke="black" points="268.64,-122.48 277.71,-127.95 274.03,-118.02 268.64,-122.48"/>
<text text-anchor="middle" x="266.88" y="-74.8" font-family="Times,serif" font-size="14.00">Enum</text>
</g>
<!-- ComposeNatModel -->
<g id="node19" class="node">
<title>ComposeNatModel</title>
<polygon fill="#c1cdcd" stroke="black" points="1418.38,-53 1336.38,-53 1336.38,0 1418.38,0 1418.38,-53"/>
<text text-anchor="middle" x="1377.38" y="-37.8" font-family="Times,serif" font-size="14.00">Native</text>
<text text-anchor="middle" x="1377.38" y="-22.8" font-family="Times,serif" font-size="14.00">Compose</text>
<text text-anchor="middle" x="1377.38" y="-7.8" font-family="Times,serif" font-size="14.00">Model</text>
</g>
<!-- SelectedCompositionModel&#45;&gt;ComposeNatModel -->
<g id="edge25" class="edge">
<title>SelectedCompositionModel&#45;&gt;ComposeNatModel</title>
<path fill="none" stroke="black" d="M1408.16,-99.83C1401.44,-84.05 1394.14,-66.9 1388.34,-53.25"/>
<polygon fill="black" stroke="black" points="1405.11,-101.6 1412.24,-109.43 1411.55,-98.86 1405.11,-101.6"/>
<text text-anchor="middle" x="1421.88" y="-74.8" font-family="Times,serif" font-size="14.00">Enum</text>
</g>
<!-- ComposeExtModel -->
<g id="node20" class="node">
<title>ComposeExtModel</title>
<polygon fill="#c1cdcd" stroke="black" points="1518.38,-53 1436.38,-53 1436.38,0 1518.38,0 1518.38,-53"/>
<text text-anchor="middle" x="1477.38" y="-37.8" font-family="Times,serif" font-size="14.00">External</text>
<text text-anchor="middle" x="1477.38" y="-22.8" font-family="Times,serif" font-size="14.00">Compose</text>
<text text-anchor="middle" x="1477.38" y="-7.8" font-family="Times,serif" font-size="14.00">Model</text>
</g>
<!-- SelectedCompositionModel&#45;&gt;ComposeExtModel -->
<g id="edge26" class="edge">
<title>SelectedCompositionModel&#45;&gt;ComposeExtModel</title>
<path fill="none" stroke="black" d="M1446.6,-99.83C1453.32,-84.05 1460.62,-66.9 1466.42,-53.25"/>
<polygon fill="black" stroke="black" points="1443.21,-98.86 1442.52,-109.43 1449.65,-101.6 1443.21,-98.86"/>
<text text-anchor="middle" x="1478.88" y="-74.8" font-family="Times,serif" font-size="14.00">Enum</text>
</g>
</g>
</svg>
