<?xml version="1.0" encoding="UTF-8" standalone="no"?>
<!DOCTYPE svg PUBLIC "-//W3C//DTD SVG 1.1//EN"
 "http://www.w3.org/Graphics/SVG/1.1/DTD/svg11.dtd">
<!-- Generated by graphviz version 2.43.0 (0)
 -->
<!-- Title: %3 Pages: 1 -->
<svg width="1798pt" height="1407pt"
 viewBox="0.00 0.00 1797.50 1406.68" xmlns="http://www.w3.org/2000/svg" xmlns:xlink="http://www.w3.org/1999/xlink">
<g id="graph0" class="graph" transform="scale(1 1) rotate(0) translate(4 1402.68)">
<title>%3</title>
<polygon fill="white" stroke="transparent" points="-4,4 -4,-1402.68 1793.5,-1402.68 1793.5,4 -4,4"/>
<!-- MTDT&#45;Mailing -->
<g id="node1" class="node">
<title>MTDT&#45;Mailing</title>
<ellipse fill="#9bcd9b" stroke="black" cx="666" cy="-1339.99" rx="58.88" ry="58.88"/>
<text text-anchor="middle" x="666" y="-1358.79" font-family="Times,serif" font-size="14.00">LAYER 1:</text>
<text text-anchor="middle" x="666" y="-1343.79" font-family="Times,serif" font-size="14.00">MTDT</text>
<text text-anchor="middle" x="666" y="-1328.79" font-family="Times,serif" font-size="14.00">Mailing</text>
<text text-anchor="middle" x="666" y="-1313.79" font-family="Times,serif" font-size="14.00">Concepts</text>
</g>
<!-- SelectedCompositionFwrk -->
<g id="node2" class="node">
<title>SelectedCompositionFwrk</title>
<path fill="green" stroke="black" d="M1136.5,-784.71C1136.5,-788.36 1110.73,-791.33 1079,-791.33 1047.27,-791.33 1021.5,-788.36 1021.5,-784.71 1021.5,-784.71 1021.5,-725.19 1021.5,-725.19 1021.5,-721.54 1047.27,-718.58 1079,-718.58 1110.73,-718.58 1136.5,-721.54 1136.5,-725.19 1136.5,-725.19 1136.5,-784.71 1136.5,-784.71"/>
<path fill="none" stroke="black" d="M1136.5,-784.71C1136.5,-781.07 1110.73,-778.1 1079,-778.1 1047.27,-778.1 1021.5,-781.07 1021.5,-784.71"/>
<text text-anchor="middle" x="1079" y="-766.25" font-family="Times,serif" font-size="14.00">Selected</text>
<text text-anchor="middle" x="1079" y="-751.25" font-family="Times,serif" font-size="14.00">Compositionn</text>
<text text-anchor="middle" x="1079" y="-736.25" font-family="Times,serif" font-size="14.00">Framework</text>
</g>
<!-- MTDT&#45;Mailing&#45;&gt;SelectedCompositionFwrk -->
<g id="edge2" class="edge">
<title>MTDT&#45;Mailing&#45;&gt;SelectedCompositionFwrk</title>
<path fill="none" stroke="black" d="M723.34,-1326.09C817.9,-1301.36 1003.84,-1237.42 1082,-1103.3 1137.57,-1007.95 1112.16,-871.43 1093.15,-801.32"/>
<polygon fill="black" stroke="black" points="1096.46,-800.16 1090.4,-791.47 1089.72,-802.04 1096.46,-800.16"/>
<text text-anchor="middle" x="1164" y="-1032.43" font-family="Times,serif" font-size="14.00">Configuration</text>
</g>
<!-- SelectedCompositionModel -->
<g id="node3" class="node">
<title>SelectedCompositionModel</title>
<path fill="green" stroke="black" d="M279,-1222.07C279,-1225.71 255.24,-1228.68 226,-1228.68 196.76,-1228.68 173,-1225.71 173,-1222.07 173,-1222.07 173,-1162.54 173,-1162.54 173,-1158.89 196.76,-1155.93 226,-1155.93 255.24,-1155.93 279,-1158.89 279,-1162.54 279,-1162.54 279,-1222.07 279,-1222.07"/>
<path fill="none" stroke="black" d="M279,-1222.07C279,-1218.42 255.24,-1215.45 226,-1215.45 196.76,-1215.45 173,-1218.42 173,-1222.07"/>
<text text-anchor="middle" x="226" y="-1203.6" font-family="Times,serif" font-size="14.00">Selected</text>
<text text-anchor="middle" x="226" y="-1188.6" font-family="Times,serif" font-size="14.00">Composition</text>
<text text-anchor="middle" x="226" y="-1173.6" font-family="Times,serif" font-size="14.00">Model</text>
</g>
<!-- MTDT&#45;Mailing&#45;&gt;SelectedCompositionModel -->
<g id="edge3" class="edge">
<title>MTDT&#45;Mailing&#45;&gt;SelectedCompositionModel</title>
<path fill="none" stroke="black" d="M610.27,-1320.54C528.11,-1293.34 374.93,-1242.61 288.86,-1214.12"/>
<polygon fill="black" stroke="black" points="289.81,-1210.74 279.21,-1210.92 287.61,-1217.39 289.81,-1210.74"/>
<text text-anchor="middle" x="481" y="-1252.1" font-family="Times,serif" font-size="14.00">Configuration</text>
</g>
<!-- Interactive -->
<g id="node4" class="node">
<title>Interactive</title>
<ellipse fill="darksalmon" stroke="black" cx="1409" cy="-1036.13" rx="67.35" ry="67.35"/>
<text text-anchor="middle" x="1409" y="-1039.93" font-family="Times,serif" font-size="14.00">Interactive</text>
<text text-anchor="middle" x="1409" y="-1024.93" font-family="Times,serif" font-size="14.00">Usage</text>
</g>
<!-- MTDT&#45;Mailing&#45;&gt;Interactive -->
<g id="edge1" class="edge">
<title>MTDT&#45;Mailing&#45;&gt;Interactive</title>
<path fill="none" stroke="black" d="M724.93,-1338.52C814.64,-1335.8 989.15,-1322.53 1123,-1263.3 1214.78,-1222.69 1302.57,-1145.63 1356.11,-1092.85"/>
<polygon fill="black" stroke="black" points="1358.81,-1095.1 1363.44,-1085.57 1353.88,-1090.14 1358.81,-1095.1"/>
<text text-anchor="middle" x="1310" y="-1188.6" font-family="Times,serif" font-size="14.00">Usage</text>
</g>
<!-- X&#45;MailingName -->
<g id="node5" class="node">
<title>X&#45;MailingName</title>
<polygon fill="#fff68f" stroke="black" points="754.25,-1230.3 613.87,-1230.3 577.75,-1154.3 718.13,-1154.3 754.25,-1230.3"/>
<text text-anchor="middle" x="666" y="-1196.1" font-family="Times,serif" font-size="14.00">X&#45;Mailing</text>
<text text-anchor="middle" x="666" y="-1181.1" font-family="Times,serif" font-size="14.00">Name</text>
</g>
<!-- MTDT&#45;Mailing&#45;&gt;X&#45;MailingName -->
<g id="edge4" class="edge">
<title>MTDT&#45;Mailing&#45;&gt;X&#45;MailingName</title>
<path fill="none" stroke="black" d="M666,-1280.99C666,-1267.6 666,-1253.5 666,-1240.62"/>
<polygon fill="black" stroke="black" points="669.5,-1240.58 666,-1230.58 662.5,-1240.58 669.5,-1240.58"/>
<text text-anchor="middle" x="712" y="-1252.1" font-family="Times,serif" font-size="14.00">Specification</text>
</g>
<!-- CustomizeFile -->
<g id="node10" class="node">
<title>CustomizeFile</title>
<polygon fill="#fff68f" stroke="black" points="465.01,-80 285.24,-80 238.99,-4 418.76,-4 465.01,-80"/>
<text text-anchor="middle" x="352" y="-45.8" font-family="Times,serif" font-size="14.00">Customize.el</text>
<text text-anchor="middle" x="352" y="-30.8" font-family="Times,serif" font-size="14.00">File</text>
</g>
<!-- MTDT&#45;Mailing&#45;&gt;CustomizeFile -->
<g id="edge5" class="edge">
<title>MTDT&#45;Mailing&#45;&gt;CustomizeFile</title>
<path fill="none" stroke="black" d="M607.19,-1338.58C444.43,-1335.85 0,-1317.06 0,-1193.3 0,-1193.3 0,-1193.3 0,-187 0,-130.39 157.92,-85.01 262.21,-61.22"/>
<polygon fill="black" stroke="black" points="263.14,-64.59 272.13,-58.98 261.6,-57.77 263.14,-64.59"/>
<text text-anchor="middle" x="46" y="-683.75" font-family="Times,serif" font-size="14.00">Specification</text>
</g>
<!-- PlainText -->
<g id="node11" class="node">
<title>PlainText</title>
<polygon fill="#c1cdcd" stroke="black" points="995.5,-642.48 912.5,-642.48 912.5,-606.48 995.5,-606.48 995.5,-642.48"/>
<text text-anchor="middle" x="954" y="-620.78" font-family="Times,serif" font-size="14.00">PlainText</text>
</g>
<!-- SelectedCompositionFwrk&#45;&gt;PlainText -->
<g id="edge10" class="edge">
<title>SelectedCompositionFwrk&#45;&gt;PlainText</title>
<path fill="none" stroke="black" d="M1033.36,-712.13C1027.44,-706.44 1021.52,-700.61 1016,-694.95 999.17,-677.72 980.93,-657.01 968.62,-642.71"/>
<polygon fill="black" stroke="black" points="1031.17,-714.88 1040.83,-719.24 1036,-709.81 1031.17,-714.88"/>
<text text-anchor="middle" x="1037.5" y="-683.75" font-family="Times,serif" font-size="14.00">Enum</text>
</g>
<!-- OrgMsg -->
<g id="node12" class="node">
<title>OrgMsg</title>
<polygon fill="#c1cdcd" stroke="black" points="1088,-642.48 1014,-642.48 1014,-606.48 1088,-606.48 1088,-642.48"/>
<text text-anchor="middle" x="1051" y="-620.78" font-family="Times,serif" font-size="14.00">OrgMsg</text>
</g>
<!-- SelectedCompositionFwrk&#45;&gt;OrgMsg -->
<g id="edge11" class="edge">
<title>SelectedCompositionFwrk&#45;&gt;OrgMsg</title>
<path fill="none" stroke="black" d="M1069.13,-708.66C1064.16,-685.86 1058.43,-659.56 1054.76,-642.74"/>
<polygon fill="black" stroke="black" points="1065.73,-709.48 1071.27,-718.51 1072.57,-707.99 1065.73,-709.48"/>
<text text-anchor="middle" x="1086.5" y="-683.75" font-family="Times,serif" font-size="14.00">Enum</text>
</g>
<!-- LaTeX -->
<g id="node13" class="node">
<title>LaTeX</title>
<polygon fill="#c1cdcd" stroke="black" points="1166,-642.48 1106,-642.48 1106,-606.48 1166,-606.48 1166,-642.48"/>
<text text-anchor="middle" x="1136" y="-620.78" font-family="Times,serif" font-size="14.00">LaTeX</text>
</g>
<!-- SelectedCompositionFwrk&#45;&gt;LaTeX -->
<g id="edge12" class="edge">
<title>SelectedCompositionFwrk&#45;&gt;LaTeX</title>
<path fill="none" stroke="black" d="M1105.09,-709.24C1107.54,-704.47 1109.89,-699.65 1112,-694.95 1119.78,-677.6 1126.63,-656.91 1131,-642.65"/>
<polygon fill="black" stroke="black" points="1101.88,-707.81 1100.28,-718.28 1108.07,-711.09 1101.88,-707.81"/>
<text text-anchor="middle" x="1139.5" y="-683.75" font-family="Times,serif" font-size="14.00">Enum</text>
</g>
<!-- Html -->
<g id="node14" class="node">
<title>Html</title>
<polygon fill="#c1cdcd" stroke="black" points="1238,-642.48 1184,-642.48 1184,-606.48 1238,-606.48 1238,-642.48"/>
<text text-anchor="middle" x="1211" y="-620.78" font-family="Times,serif" font-size="14.00">Html</text>
</g>
<!-- SelectedCompositionFwrk&#45;&gt;Html -->
<g id="edge13" class="edge">
<title>SelectedCompositionFwrk&#45;&gt;Html</title>
<path fill="none" stroke="black" d="M1141.99,-715C1150.14,-708.76 1158.05,-702.02 1165,-694.95 1180.52,-679.17 1193.92,-657.44 1202.19,-642.5"/>
<polygon fill="black" stroke="black" points="1139.76,-712.3 1133.8,-721.06 1143.92,-717.92 1139.76,-712.3"/>
<text text-anchor="middle" x="1197.5" y="-683.75" font-family="Times,serif" font-size="14.00">Enum</text>
</g>
<!-- WithSelMailing -->
<g id="node15" class="node">
<title>WithSelMailing</title>
<polygon fill="#c1cdcd" stroke="black" points="894,-650.98 816,-650.98 816,-597.98 894,-597.98 894,-650.98"/>
<text text-anchor="middle" x="855" y="-635.78" font-family="Times,serif" font-size="14.00">With</text>
<text text-anchor="middle" x="855" y="-620.78" font-family="Times,serif" font-size="14.00">Selected</text>
<text text-anchor="middle" x="855" y="-605.78" font-family="Times,serif" font-size="14.00">Mailing</text>
</g>
<!-- SelectedCompositionFwrk&#45;&gt;WithSelMailing -->
<g id="edge14" class="edge">
<title>SelectedCompositionFwrk&#45;&gt;WithSelMailing</title>
<path fill="none" stroke="black" d="M1012,-724.47C992.97,-715.53 972.43,-705.31 954,-694.95 930.79,-681.9 925.8,-677.24 904,-661.95 899.05,-658.48 893.88,-654.75 888.82,-651.04"/>
<polygon fill="black" stroke="black" points="1010.65,-727.71 1021.2,-728.76 1013.61,-721.36 1010.65,-727.71"/>
<text text-anchor="middle" x="975.5" y="-683.75" font-family="Times,serif" font-size="14.00">Enum</text>
</g>
<!-- Gnus -->
<g id="node20" class="node">
<title>Gnus</title>
<polygon fill="orange" stroke="black" points="780,-652.98 744,-652.98 744,-595.98 780,-595.98 780,-589.98 798,-624.48 780,-658.98 780,-652.98"/>
<text text-anchor="middle" x="771" y="-627.78" font-family="Times,serif" font-size="14.00">Blee</text>
<text text-anchor="middle" x="771" y="-612.78" font-family="Times,serif" font-size="14.00">Gnus</text>
<text text-anchor="middle" x="771" y="-597.78" font-family="Times,serif" font-size="14.00"> </text>
</g>
<!-- SelectedCompositionFwrk&#45;&gt;Gnus -->
<g id="edge15" class="edge">
<title>SelectedCompositionFwrk&#45;&gt;Gnus</title>
<path fill="none" stroke="black" d="M1021.31,-736.61C996.6,-729.23 967.41,-720.59 941,-712.95 912.61,-704.75 904.68,-705.29 877,-694.95 872.97,-693.45 810.51,-664.44 807,-661.95 806.62,-661.68 806.24,-661.41 805.86,-661.13"/>
<polygon fill="black" stroke="black" points="808,-658.36 798.02,-654.8 803.6,-663.81 808,-658.36"/>
<text text-anchor="middle" x="901.5" y="-683.75" font-family="Times,serif" font-size="14.00">Inform</text>
</g>
<!-- MtdtMailingMenu -->
<g id="node24" class="node">
<title>MtdtMailingMenu</title>
<polygon fill="salmon" stroke="black" points="1401.5,-530 1302.5,-530 1302.5,-473 1401.5,-473 1401.5,-467 1419.5,-501.5 1401.5,-536 1401.5,-530"/>
<text text-anchor="middle" x="1361" y="-504.8" font-family="Times,serif" font-size="14.00">MTDT&#45;Mailing</text>
<text text-anchor="middle" x="1361" y="-489.8" font-family="Times,serif" font-size="14.00">Menu</text>
<text text-anchor="middle" x="1361" y="-474.8" font-family="Times,serif" font-size="14.00"> </text>
</g>
<!-- SelectedCompositionFwrk&#45;&gt;MtdtMailingMenu -->
<g id="edge16" class="edge">
<title>SelectedCompositionFwrk&#45;&gt;MtdtMailingMenu</title>
<path fill="none" stroke="black" d="M1136.85,-738.4C1164.82,-728.95 1197.71,-714.8 1223,-694.95 1246.32,-676.65 1286.44,-589.25 1288,-587 1298.25,-572.22 1310.66,-557.05 1322.32,-543.72"/>
<polygon fill="black" stroke="black" points="1325.06,-545.91 1329.08,-536.1 1319.82,-541.26 1325.06,-545.91"/>
<text text-anchor="middle" x="1312.5" y="-620.78" font-family="Times,serif" font-size="14.00">Inform</text>
</g>
<!-- SelectedCompositionModel&#45;&gt;Gnus -->
<g id="edge56" class="edge">
<title>SelectedCompositionModel&#45;&gt;Gnus</title>
<path fill="none" stroke="black" d="M177.77,-1158.23C159.24,-1143.37 139.36,-1124.41 126,-1103.3 109.63,-1077.45 107,-1067.73 107,-1037.13 107,-1037.13 107,-1037.13 107,-753.95 107,-689.66 593.13,-641.33 733.48,-628.72"/>
<polygon fill="black" stroke="black" points="734.08,-632.18 743.73,-627.8 733.46,-625.2 734.08,-632.18"/>
</g>
<!-- ComposeNatModel -->
<g id="node31" class="node">
<title>ComposeNatModel</title>
<polygon fill="#c1cdcd" stroke="black" points="217,-1062.63 135,-1062.63 135,-1009.63 217,-1009.63 217,-1062.63"/>
<text text-anchor="middle" x="176" y="-1047.43" font-family="Times,serif" font-size="14.00">Native</text>
<text text-anchor="middle" x="176" y="-1032.43" font-family="Times,serif" font-size="14.00">Compose</text>
<text text-anchor="middle" x="176" y="-1017.43" font-family="Times,serif" font-size="14.00">Model</text>
</g>
<!-- SelectedCompositionModel&#45;&gt;ComposeNatModel -->
<g id="edge54" class="edge">
<title>SelectedCompositionModel&#45;&gt;ComposeNatModel</title>
<path fill="none" stroke="black" d="M211.28,-1145.92C202.53,-1118.92 191.74,-1085.65 184.41,-1063.06"/>
<polygon fill="black" stroke="black" points="207.99,-1147.11 214.4,-1155.55 214.65,-1144.95 207.99,-1147.11"/>
<text text-anchor="middle" x="228.5" y="-1125.1" font-family="Times,serif" font-size="14.00">Enum</text>
</g>
<!-- ComposeExtModel -->
<g id="node32" class="node">
<title>ComposeExtModel</title>
<polygon fill="#c1cdcd" stroke="black" points="317,-1062.63 235,-1062.63 235,-1009.63 317,-1009.63 317,-1062.63"/>
<text text-anchor="middle" x="276" y="-1047.43" font-family="Times,serif" font-size="14.00">External</text>
<text text-anchor="middle" x="276" y="-1032.43" font-family="Times,serif" font-size="14.00">Compose</text>
<text text-anchor="middle" x="276" y="-1017.43" font-family="Times,serif" font-size="14.00">Model</text>
</g>
<!-- SelectedCompositionModel&#45;&gt;ComposeExtModel -->
<g id="edge55" class="edge">
<title>SelectedCompositionModel&#45;&gt;ComposeExtModel</title>
<path fill="none" stroke="black" d="M249.87,-1146.69C251.37,-1143.22 252.77,-1139.73 254,-1136.3 262.7,-1112.07 268.63,-1083.22 272.12,-1062.9"/>
<polygon fill="black" stroke="black" points="246.69,-1145.24 245.72,-1155.79 253.06,-1148.15 246.69,-1145.24"/>
<text text-anchor="middle" x="280.5" y="-1125.1" font-family="Times,serif" font-size="14.00">Enum</text>
</g>
<!-- Interactive&#45;&gt;Gnus -->
<g id="edge31" class="edge">
<title>Interactive&#45;&gt;Gnus</title>
<path fill="none" stroke="black" d="M1350.12,-1003.4C1245.72,-946.3 1022.62,-820.43 847,-694.95 828.25,-681.55 824.01,-677.51 807,-661.95 806.55,-661.54 806.1,-661.12 805.64,-660.7"/>
<polygon fill="black" stroke="black" points="807.89,-658.01 798.23,-653.65 803.07,-663.08 807.89,-658.01"/>
</g>
<!-- Interactive&#45;&gt;MtdtMailingMenu -->
<g id="edge32" class="edge">
<title>Interactive&#45;&gt;MtdtMailingMenu</title>
<path fill="none" stroke="black" d="M1392.12,-970.98C1380.48,-923.35 1366.07,-856.59 1360,-796.95 1356.22,-759.81 1359.91,-750.29 1360,-712.95 1360.14,-655.23 1360.49,-588.61 1360.73,-546.05"/>
<polygon fill="black" stroke="black" points="1364.23,-546.05 1360.79,-536.03 1357.23,-546.01 1364.23,-546.05"/>
</g>
<!-- MailingOrgInitiator -->
<g id="node25" class="node">
<title>MailingOrgInitiator</title>
<polygon fill="#ee8262" stroke="black" points="1480.5,-911.95 1423.5,-911.95 1423.5,-839.95 1480.5,-839.95 1480.5,-833.95 1498.5,-875.95 1480.5,-917.95 1480.5,-911.95"/>
<text text-anchor="middle" x="1461" y="-886.75" font-family="Times,serif" font-size="14.00">Mailing</text>
<text text-anchor="middle" x="1461" y="-871.75" font-family="Times,serif" font-size="14.00">Org</text>
<text text-anchor="middle" x="1461" y="-856.75" font-family="Times,serif" font-size="14.00">Initiator</text>
<text text-anchor="middle" x="1461" y="-841.75" font-family="Times,serif" font-size="14.00"> </text>
</g>
<!-- Interactive&#45;&gt;MailingOrgInitiator -->
<g id="edge33" class="edge">
<title>Interactive&#45;&gt;MailingOrgInitiator</title>
<path fill="none" stroke="black" d="M1429.7,-972.16C1434.53,-957.46 1439.62,-941.98 1444.26,-927.88"/>
<polygon fill="black" stroke="black" points="1447.59,-928.96 1447.39,-918.37 1440.94,-926.77 1447.59,-928.96"/>
</g>
<!-- lcntProcMailing -->
<g id="node27" class="node">
<title>lcntProcMailing</title>
<polygon fill="#cd7054" stroke="black" points="1682.5,-783.45 1603.5,-783.45 1603.5,-726.45 1682.5,-726.45 1682.5,-720.45 1700.5,-754.95 1682.5,-789.45 1682.5,-783.45"/>
<text text-anchor="middle" x="1652" y="-758.25" font-family="Times,serif" font-size="14.00">lcntProc.sh</text>
<text text-anchor="middle" x="1652" y="-743.25" font-family="Times,serif" font-size="14.00">Mailing</text>
<text text-anchor="middle" x="1652" y="-728.25" font-family="Times,serif" font-size="14.00"> </text>
</g>
<!-- Interactive&#45;&gt;lcntProcMailing -->
<g id="edge34" class="edge">
<title>Interactive&#45;&gt;lcntProcMailing</title>
<path fill="none" stroke="black" d="M1452.72,-984.9C1499.42,-931.25 1572.55,-847.23 1616.03,-797.28"/>
<polygon fill="black" stroke="black" points="1618.82,-799.4 1622.75,-789.56 1613.54,-794.81 1618.82,-799.4"/>
</g>
<!-- MailingFileUsage -->
<g id="node28" class="node">
<title>MailingFileUsage</title>
<polygon fill="#ffa07a" stroke="black" points="1771.5,-790.95 1718.5,-790.95 1718.5,-718.95 1771.5,-718.95 1771.5,-712.95 1789.5,-754.95 1771.5,-796.95 1771.5,-790.95"/>
<text text-anchor="middle" x="1754" y="-765.75" font-family="Times,serif" font-size="14.00">Mailing</text>
<text text-anchor="middle" x="1754" y="-750.75" font-family="Times,serif" font-size="14.00">File</text>
<text text-anchor="middle" x="1754" y="-735.75" font-family="Times,serif" font-size="14.00">Usage</text>
<text text-anchor="middle" x="1754" y="-720.75" font-family="Times,serif" font-size="14.00"> </text>
</g>
<!-- Interactive&#45;&gt;MailingFileUsage -->
<g id="edge35" class="edge">
<title>Interactive&#45;&gt;MailingFileUsage</title>
<path fill="none" stroke="black" d="M1462.41,-995.27C1523.54,-949.1 1626.05,-870.01 1710,-796.95 1710.17,-796.81 1710.34,-796.66 1710.5,-796.52"/>
<polygon fill="black" stroke="black" points="1713.01,-798.97 1718.16,-789.72 1708.36,-793.74 1713.01,-798.97"/>
</g>
<!-- MailingFile -->
<g id="node6" class="node">
<title>MailingFile</title>
<polygon fill="#fff68f" stroke="black" points="636.72,-1074.13 519.45,-1074.13 489.28,-998.13 606.55,-998.13 636.72,-1074.13"/>
<text text-anchor="middle" x="563" y="-1039.93" font-family="Times,serif" font-size="14.00">Mailing</text>
<text text-anchor="middle" x="563" y="-1024.93" font-family="Times,serif" font-size="14.00">File</text>
</g>
<!-- X&#45;MailingName&#45;&gt;MailingFile -->
<g id="edge7" class="edge">
<title>X&#45;MailingName&#45;&gt;MailingFile</title>
<path fill="none" stroke="black" d="M623.88,-1154.22C618.52,-1148.52 613.39,-1142.46 609,-1136.3 597.57,-1120.26 587.85,-1100.92 580.33,-1083.6"/>
<polygon fill="black" stroke="black" points="583.49,-1082.08 576.38,-1074.22 577.04,-1084.8 583.49,-1082.08"/>
<text text-anchor="middle" x="655" y="-1125.1" font-family="Times,serif" font-size="14.00">Specification</text>
</g>
<!-- CommencingFile -->
<g id="node7" class="node">
<title>CommencingFile</title>
<polygon fill="#fff68f" stroke="black" points="883.09,-1074.13 701.6,-1074.13 654.91,-998.13 836.4,-998.13 883.09,-1074.13"/>
<text text-anchor="middle" x="769" y="-1039.93" font-family="Times,serif" font-size="14.00">Commencing</text>
<text text-anchor="middle" x="769" y="-1024.93" font-family="Times,serif" font-size="14.00">File</text>
</g>
<!-- X&#45;MailingName&#45;&gt;CommencingFile -->
<g id="edge6" class="edge">
<title>X&#45;MailingName&#45;&gt;CommencingFile</title>
<path fill="none" stroke="black" d="M690.93,-1153.98C705.24,-1132.57 723.31,-1105.51 738.47,-1082.83"/>
<polygon fill="black" stroke="black" points="741.47,-1084.63 744.12,-1074.37 735.65,-1080.74 741.47,-1084.63"/>
<text text-anchor="middle" x="757" y="-1125.1" font-family="Times,serif" font-size="14.00">Specification</text>
</g>
<!-- TemplateFile -->
<g id="node8" class="node">
<title>TemplateFile</title>
<polygon fill="#fff68f" stroke="black" points="1073.1,-1074.13 936.13,-1074.13 900.9,-998.13 1037.87,-998.13 1073.1,-1074.13"/>
<text text-anchor="middle" x="987" y="-1039.93" font-family="Times,serif" font-size="14.00">Template</text>
<text text-anchor="middle" x="987" y="-1024.93" font-family="Times,serif" font-size="14.00">File</text>
</g>
<!-- X&#45;MailingName&#45;&gt;TemplateFile -->
<g id="edge8" class="edge">
<title>X&#45;MailingName&#45;&gt;TemplateFile</title>
<path fill="none" stroke="black" d="M726.72,-1172.06C773.23,-1156.28 838.31,-1131.93 892,-1103.3 904.68,-1096.54 917.69,-1088.39 929.85,-1080.16"/>
<polygon fill="black" stroke="black" points="931.87,-1083.02 938.12,-1074.47 927.9,-1077.26 931.87,-1083.02"/>
<text text-anchor="middle" x="896" y="-1125.1" font-family="Times,serif" font-size="14.00">Specification</text>
</g>
<!-- MuaStencil -->
<g id="node9" class="node">
<title>MuaStencil</title>
<polygon fill="#fff68f" stroke="black" points="471.35,-1074.13 362.62,-1074.13 334.65,-998.13 443.38,-998.13 471.35,-1074.13"/>
<text text-anchor="middle" x="403" y="-1039.93" font-family="Times,serif" font-size="14.00">Mua</text>
<text text-anchor="middle" x="403" y="-1024.93" font-family="Times,serif" font-size="14.00">Stencil</text>
</g>
<!-- X&#45;MailingName&#45;&gt;MuaStencil -->
<g id="edge9" class="edge">
<title>X&#45;MailingName&#45;&gt;MuaStencil</title>
<path fill="none" stroke="black" d="M586.08,-1172.28C558.54,-1163.71 528.28,-1151.92 503,-1136.3 479.49,-1121.78 457.25,-1100.76 439.74,-1081.8"/>
<polygon fill="black" stroke="black" points="442.33,-1079.45 433.03,-1074.38 437.14,-1084.14 442.33,-1079.45"/>
<text text-anchor="middle" x="549" y="-1125.1" font-family="Times,serif" font-size="14.00">Specification</text>
</g>
<!-- MailingCmnd -->
<g id="node16" class="node">
<title>MailingCmnd</title>
<ellipse fill="#fff68f" stroke="black" cx="769" cy="-875.95" rx="62.87" ry="26.74"/>
<text text-anchor="middle" x="769" y="-879.75" font-family="Times,serif" font-size="14.00">Mailing</text>
<text text-anchor="middle" x="769" y="-864.75" font-family="Times,serif" font-size="14.00">Command</text>
</g>
<!-- MailingFile&#45;&gt;MailingCmnd -->
<g id="edge18" class="edge">
<title>MailingFile&#45;&gt;MailingCmnd</title>
<path fill="none" stroke="black" d="M607.17,-999.5C619.66,-989.54 633.31,-978.75 646,-968.95 673.85,-947.45 705.66,-923.67 729.96,-905.68"/>
<polygon fill="black" stroke="black" points="732.26,-908.33 738.22,-899.57 728.1,-902.7 732.26,-908.33"/>
<text text-anchor="middle" x="710" y="-939.75" font-family="Times,serif" font-size="14.00">Derive</text>
</g>
<!-- CommencingFile&#45;&gt;MailingCmnd -->
<g id="edge20" class="edge">
<title>CommencingFile&#45;&gt;MailingCmnd</title>
<path fill="none" stroke="black" d="M769,-998.04C769,-972.48 769,-938.66 769,-913.26"/>
<polygon fill="black" stroke="black" points="772.5,-912.94 769,-902.94 765.5,-912.94 772.5,-912.94"/>
<text text-anchor="middle" x="793" y="-939.75" font-family="Times,serif" font-size="14.00">Derive</text>
</g>
<!-- TemplateFile&#45;&gt;MailingCmnd -->
<g id="edge19" class="edge">
<title>TemplateFile&#45;&gt;MailingCmnd</title>
<path fill="none" stroke="black" d="M935.89,-998.04C896.86,-969.72 843.88,-931.28 808.17,-905.37"/>
<polygon fill="black" stroke="black" points="810.08,-902.43 799.93,-899.39 805.97,-908.1 810.08,-902.43"/>
<text text-anchor="middle" x="888" y="-939.75" font-family="Times,serif" font-size="14.00">Derive</text>
</g>
<!-- MuaStencil&#45;&gt;MailingCmnd -->
<g id="edge21" class="edge">
<title>MuaStencil&#45;&gt;MailingCmnd</title>
<path fill="none" stroke="black" d="M440.27,-997.84C452.22,-987.39 465.99,-976.77 480,-968.95 551.21,-929.21 642.04,-903.88 702.68,-890.07"/>
<polygon fill="black" stroke="black" points="703.52,-893.47 712.52,-887.87 701.99,-886.64 703.52,-893.47"/>
<text text-anchor="middle" x="571" y="-939.75" font-family="Times,serif" font-size="14.00">Derive</text>
</g>
<!-- ListOfMailingCmnds -->
<g id="node17" class="node">
<title>ListOfMailingCmnds</title>
<ellipse fill="#fff68f" stroke="black" cx="1432" cy="-754.95" rx="62.87" ry="37.45"/>
<text text-anchor="middle" x="1432" y="-766.25" font-family="Times,serif" font-size="14.00">List of</text>
<text text-anchor="middle" x="1432" y="-751.25" font-family="Times,serif" font-size="14.00">Mailing</text>
<text text-anchor="middle" x="1432" y="-736.25" font-family="Times,serif" font-size="14.00">Command</text>
</g>
<!-- MailingCmnd&#45;&gt;ListOfMailingCmnds -->
<g id="edge23" class="edge">
<title>MailingCmnd&#45;&gt;ListOfMailingCmnds</title>
<path fill="none" stroke="black" d="M826.39,-864.65C947.8,-842.86 1230.29,-792.16 1362.03,-768.51"/>
<polygon fill="black" stroke="black" points="1362.79,-771.93 1372.01,-766.72 1361.55,-765.04 1362.79,-771.93"/>
</g>
<!-- SelectedGnusMailing -->
<g id="node19" class="node">
<title>SelectedGnusMailing</title>
<ellipse fill="green" stroke="black" cx="769" cy="-754.95" rx="55.31" ry="37.45"/>
<text text-anchor="middle" x="769" y="-766.25" font-family="Times,serif" font-size="14.00">Selected</text>
<text text-anchor="middle" x="769" y="-751.25" font-family="Times,serif" font-size="14.00">Gnus</text>
<text text-anchor="middle" x="769" y="-736.25" font-family="Times,serif" font-size="14.00">Mailing</text>
</g>
<!-- MailingCmnd&#45;&gt;SelectedGnusMailing -->
<g id="edge22" class="edge">
<title>MailingCmnd&#45;&gt;SelectedGnusMailing</title>
<path fill="none" stroke="black" d="M769,-848.84C769,-835.37 769,-818.52 769,-802.89"/>
<polygon fill="black" stroke="black" points="772.5,-802.84 769,-792.84 765.5,-802.84 772.5,-802.84"/>
</g>
<!-- SelectedMailings -->
<g id="node18" class="node">
<title>SelectedMailings</title>
<ellipse fill="green" stroke="black" cx="1486" cy="-624.48" rx="58.88" ry="37.45"/>
<text text-anchor="middle" x="1486" y="-635.78" font-family="Times,serif" font-size="14.00">Selected</text>
<text text-anchor="middle" x="1486" y="-620.78" font-family="Times,serif" font-size="14.00">List of</text>
<text text-anchor="middle" x="1486" y="-605.78" font-family="Times,serif" font-size="14.00">Mailings </text>
</g>
<!-- ListOfMailingCmnds&#45;&gt;SelectedMailings -->
<g id="edge24" class="edge">
<title>ListOfMailingCmnds&#45;&gt;SelectedMailings</title>
<path fill="none" stroke="black" d="M1430.39,-717.47C1431.03,-705.15 1433.06,-691.58 1438,-679.95 1440.34,-674.45 1443.45,-669.12 1446.98,-664.09"/>
<polygon fill="black" stroke="black" points="1449.94,-665.98 1453.24,-655.91 1444.38,-661.72 1449.94,-665.98"/>
</g>
<!-- SelectedMailings&#45;&gt;MtdtMailingMenu -->
<g id="edge25" class="edge">
<title>SelectedMailings&#45;&gt;MtdtMailingMenu</title>
<path fill="none" stroke="black" d="M1454.13,-592.64C1438.7,-577.7 1419.96,-559.57 1403.35,-543.49"/>
<polygon fill="black" stroke="black" points="1405.51,-540.7 1395.89,-536.26 1400.64,-545.73 1405.51,-540.7"/>
<text text-anchor="middle" x="1451.5" y="-557.8" font-family="Times,serif" font-size="14.00">Inform</text>
</g>
<!-- SelectedGnusMailing&#45;&gt;Gnus -->
<g id="edge26" class="edge">
<title>SelectedGnusMailing&#45;&gt;Gnus</title>
<path fill="none" stroke="black" d="M769.46,-717.44C769.62,-705.49 769.81,-692.16 770,-679.95 770.06,-676.49 770.12,-672.9 770.18,-669.3"/>
<polygon fill="black" stroke="black" points="773.68,-669.25 770.36,-659.19 766.68,-669.12 773.68,-669.25"/>
<text text-anchor="middle" x="794.5" y="-683.75" font-family="Times,serif" font-size="14.00">Inform</text>
</g>
<!-- Forward -->
<g id="node21" class="node">
<title>Forward</title>
<polygon fill="orange" stroke="black" points="889.5,-443 830.5,-443 830.5,-386 889.5,-386 889.5,-380 907.5,-414.5 889.5,-449 889.5,-443"/>
<text text-anchor="middle" x="869" y="-417.8" font-family="Times,serif" font-size="14.00">Gnus</text>
<text text-anchor="middle" x="869" y="-402.8" font-family="Times,serif" font-size="14.00">Forward</text>
<text text-anchor="middle" x="869" y="-387.8" font-family="Times,serif" font-size="14.00"> </text>
</g>
<!-- Gnus&#45;&gt;Forward -->
<g id="edge47" class="edge">
<title>Gnus&#45;&gt;Forward</title>
<path fill="none" stroke="black" d="M798.22,-595.39C820.06,-572.58 847.64,-543.06 851,-536 862.33,-512.21 866.9,-483.04 868.6,-459.36"/>
<polygon fill="black" stroke="black" points="872.1,-459.43 869.18,-449.25 865.11,-459.03 872.1,-459.43"/>
</g>
<!-- GnusCompose -->
<g id="node22" class="node">
<title>GnusCompose</title>
<polygon fill="orange" stroke="black" points="781,-443 717,-443 717,-386 781,-386 781,-380 799,-414.5 781,-449 781,-443"/>
<text text-anchor="middle" x="758" y="-417.8" font-family="Times,serif" font-size="14.00">Gnus</text>
<text text-anchor="middle" x="758" y="-402.8" font-family="Times,serif" font-size="14.00">Compose</text>
<text text-anchor="middle" x="758" y="-387.8" font-family="Times,serif" font-size="14.00"> </text>
</g>
<!-- Gnus&#45;&gt;GnusCompose -->
<g id="edge48" class="edge">
<title>Gnus&#45;&gt;GnusCompose</title>
<path fill="none" stroke="black" d="M768.88,-589.6C766.67,-554.14 763.18,-498.33 760.75,-459.49"/>
<polygon fill="black" stroke="black" points="764.21,-458.78 760.1,-449.02 757.23,-459.22 764.21,-458.78"/>
</g>
<!-- Reply -->
<g id="node23" class="node">
<title>Reply</title>
<polygon fill="orange" stroke="black" points="823.5,-530 784.5,-530 784.5,-473 823.5,-473 823.5,-467 841.5,-501.5 823.5,-536 823.5,-530"/>
<text text-anchor="middle" x="813" y="-504.8" font-family="Times,serif" font-size="14.00">Gnus</text>
<text text-anchor="middle" x="813" y="-489.8" font-family="Times,serif" font-size="14.00">Reply</text>
<text text-anchor="middle" x="813" y="-474.8" font-family="Times,serif" font-size="14.00"> </text>
</g>
<!-- Gnus&#45;&gt;Reply -->
<g id="edge46" class="edge">
<title>Gnus&#45;&gt;Reply</title>
<path fill="none" stroke="black" d="M782.7,-589.78C787.43,-576.14 792.96,-560.24 797.98,-545.76"/>
<polygon fill="black" stroke="black" points="801.39,-546.61 801.36,-536.02 794.78,-544.32 801.39,-546.61"/>
</g>
<!-- unsentBuffer -->
<g id="node33" class="node">
<title>unsentBuffer</title>
<polygon fill="deepskyblue" stroke="black" points="820.29,-135 899.71,-135 928,-241 792,-241 820.29,-135"/>
<text text-anchor="middle" x="860" y="-199.3" font-family="Times,serif" font-size="14.00">Unsent</text>
<text text-anchor="middle" x="860" y="-184.3" font-family="Times,serif" font-size="14.00">Mail</text>
<text text-anchor="middle" x="860" y="-169.3" font-family="Times,serif" font-size="14.00">Buffer</text>
</g>
<!-- Forward&#45;&gt;unsentBuffer -->
<g id="edge50" class="edge">
<title>Forward&#45;&gt;unsentBuffer</title>
<path fill="none" stroke="black" d="M867.65,-379.89C866.29,-345.99 864.16,-292.86 862.5,-251.25"/>
<polygon fill="black" stroke="black" points="865.99,-251.06 862.09,-241.21 859,-251.34 865.99,-251.06"/>
</g>
<!-- GnusCompose&#45;&gt;unsentBuffer -->
<g id="edge51" class="edge">
<title>GnusCompose&#45;&gt;unsentBuffer</title>
<path fill="none" stroke="black" d="M762.72,-379.97C768.26,-347.57 779.45,-297.81 800,-259 801.66,-255.86 803.48,-252.75 805.43,-249.67"/>
<polygon fill="black" stroke="black" points="808.51,-251.35 811.2,-241.11 802.71,-247.44 808.51,-251.35"/>
</g>
<!-- Reply&#45;&gt;unsentBuffer -->
<g id="edge49" class="edge">
<title>Reply&#45;&gt;unsentBuffer</title>
<path fill="none" stroke="black" d="M816.79,-466.95C819.62,-442.74 823.72,-409.31 828,-380 834.28,-336.97 842.38,-288.66 848.86,-251.4"/>
<polygon fill="black" stroke="black" points="852.37,-251.65 850.65,-241.2 845.48,-250.44 852.37,-251.65"/>
</g>
<!-- MailingCompose -->
<g id="node29" class="node">
<title>MailingCompose</title>
<polygon fill="magenta" stroke="black" points="1663,-356 1599,-356 1599,-284 1663,-284 1663,-278 1681,-320 1663,-362 1663,-356"/>
<text text-anchor="middle" x="1640" y="-330.8" font-family="Times,serif" font-size="14.00">Mailing</text>
<text text-anchor="middle" x="1640" y="-315.8" font-family="Times,serif" font-size="14.00">Native</text>
<text text-anchor="middle" x="1640" y="-300.8" font-family="Times,serif" font-size="14.00">Compose</text>
<text text-anchor="middle" x="1640" y="-285.8" font-family="Times,serif" font-size="14.00"> </text>
</g>
<!-- MtdtMailingMenu&#45;&gt;MailingCompose -->
<g id="edge28" class="edge">
<title>MtdtMailingMenu&#45;&gt;MailingCompose</title>
<path fill="none" stroke="black" d="M1413.15,-466.95C1463.89,-434.31 1540.42,-385.07 1590.3,-352.97"/>
<polygon fill="black" stroke="black" points="1592.47,-355.74 1598.99,-347.39 1588.68,-349.85 1592.47,-355.74"/>
</g>
<!-- MailingExtCompose -->
<g id="node30" class="node">
<title>MailingExtCompose</title>
<polygon fill="magenta" stroke="black" points="1471,-356 1407,-356 1407,-284 1471,-284 1471,-278 1489,-320 1471,-362 1471,-356"/>
<text text-anchor="middle" x="1448" y="-330.8" font-family="Times,serif" font-size="14.00">Mailing</text>
<text text-anchor="middle" x="1448" y="-315.8" font-family="Times,serif" font-size="14.00">External</text>
<text text-anchor="middle" x="1448" y="-300.8" font-family="Times,serif" font-size="14.00">Compose</text>
<text text-anchor="middle" x="1448" y="-285.8" font-family="Times,serif" font-size="14.00"> </text>
</g>
<!-- MtdtMailingMenu&#45;&gt;MailingExtCompose -->
<g id="edge27" class="edge">
<title>MtdtMailingMenu&#45;&gt;MailingExtCompose</title>
<path fill="none" stroke="black" d="M1377.36,-466.74C1390.39,-439.86 1408.82,-401.84 1423.59,-371.37"/>
<polygon fill="black" stroke="black" points="1426.83,-372.7 1428.04,-362.17 1420.53,-369.65 1426.83,-372.7"/>
</g>
<!-- MailingOrgDblock -->
<g id="node26" class="node">
<title>MailingOrgDblock</title>
<polygon fill="#ee8262" stroke="black" points="1567.5,-790.95 1512.5,-790.95 1512.5,-718.95 1567.5,-718.95 1567.5,-712.95 1585.5,-754.95 1567.5,-796.95 1567.5,-790.95"/>
<text text-anchor="middle" x="1549" y="-765.75" font-family="Times,serif" font-size="14.00">Mailing</text>
<text text-anchor="middle" x="1549" y="-750.75" font-family="Times,serif" font-size="14.00">Org</text>
<text text-anchor="middle" x="1549" y="-735.75" font-family="Times,serif" font-size="14.00">Dblocks</text>
<text text-anchor="middle" x="1549" y="-720.75" font-family="Times,serif" font-size="14.00"> </text>
</g>
<!-- MailingOrgInitiator&#45;&gt;MailingOrgDblock -->
<g id="edge36" class="edge">
<title>MailingOrgInitiator&#45;&gt;MailingOrgDblock</title>
<path fill="none" stroke="black" d="M1491.53,-833.67C1498.29,-824.53 1505.52,-814.76 1512.48,-805.33"/>
<polygon fill="black" stroke="black" points="1515.39,-807.29 1518.52,-797.17 1509.76,-803.13 1515.39,-807.29"/>
</g>
<!-- MailingOrgDblock&#45;&gt;SelectedMailings -->
<g id="edge39" class="edge">
<title>MailingOrgDblock&#45;&gt;SelectedMailings</title>
<path fill="none" stroke="black" d="M1504.26,-713.12C1504.17,-713.06 1504.09,-713.01 1504,-712.95 1485.35,-701.37 1470.38,-713.09 1458,-694.95 1450.45,-683.89 1453.51,-670.48 1459.86,-658.41"/>
<polygon fill="black" stroke="black" points="1502.04,-715.84 1512.27,-718.62 1506.01,-710.07 1502.04,-715.84"/>
<text text-anchor="middle" x="1480.5" y="-683.75" font-family="Times,serif" font-size="14.00">Select</text>
</g>
<!-- MailingOrgDblock&#45;&gt;MailingCompose -->
<g id="edge38" class="edge">
<title>MailingOrgDblock&#45;&gt;MailingCompose</title>
<path fill="none" stroke="black" d="M1585.55,-719.48C1588.66,-717.14 1591.82,-714.94 1595,-712.95 1612.92,-701.76 1627.2,-712.48 1639,-694.95 1673.52,-643.68 1657.24,-461.8 1646.63,-371.97"/>
<polygon fill="black" stroke="black" points="1650.11,-371.51 1645.44,-362 1643.16,-372.35 1650.11,-371.51"/>
</g>
<!-- MailingOrgDblock&#45;&gt;MailingExtCompose -->
<g id="edge37" class="edge">
<title>MailingOrgDblock&#45;&gt;MailingExtCompose</title>
<path fill="none" stroke="black" d="M1512.38,-718.43C1509.64,-716.45 1506.83,-714.6 1504,-712.95 1481.78,-700 1470.7,-708.76 1449,-694.95 1432.02,-684.15 1425.41,-680.66 1418,-661.95 1405.73,-630.98 1406.16,-618.14 1418,-587 1421.8,-577 1429.92,-578.89 1434,-569 1460.33,-505.23 1459.22,-424.31 1454.68,-372.58"/>
<polygon fill="black" stroke="black" points="1458.13,-371.95 1453.7,-362.32 1451.17,-372.61 1458.13,-371.95"/>
</g>
<!-- lcntProcMailing&#45;&gt;SelectedMailings -->
<g id="edge42" class="edge">
<title>lcntProcMailing&#45;&gt;SelectedMailings</title>
<path fill="none" stroke="black" d="M1608.49,-720.27C1604.06,-717.58 1599.52,-715.08 1595,-712.95 1566.32,-699.47 1551.2,-714.18 1526,-694.95 1517.36,-688.36 1510.27,-679.33 1504.59,-669.96"/>
<polygon fill="black" stroke="black" points="1507.49,-667.98 1499.57,-660.94 1501.38,-671.38 1507.49,-667.98"/>
<text text-anchor="middle" x="1548.5" y="-683.75" font-family="Times,serif" font-size="14.00">Select</text>
</g>
<!-- lcntProcMailing&#45;&gt;MailingCompose -->
<g id="edge41" class="edge">
<title>lcntProcMailing&#45;&gt;MailingCompose</title>
<path fill="none" stroke="black" d="M1679.83,-720.17C1684.84,-712.33 1689.31,-703.71 1692,-694.95 1733.08,-561.14 1741.47,-510.95 1692,-380 1690.58,-376.23 1688.79,-372.54 1686.74,-368.97"/>
<polygon fill="black" stroke="black" points="1689.53,-366.85 1681.17,-360.35 1683.66,-370.65 1689.53,-366.85"/>
</g>
<!-- lcntProcMailing&#45;&gt;MailingExtCompose -->
<g id="edge40" class="edge">
<title>lcntProcMailing&#45;&gt;MailingExtCompose</title>
<path fill="none" stroke="black" d="M1662.37,-720.41C1673.14,-679.57 1685.65,-609.2 1664,-554 1630.64,-468.94 1550.02,-396.41 1497.27,-355.8"/>
<polygon fill="black" stroke="black" points="1499.13,-352.82 1489.05,-349.56 1494.9,-358.4 1499.13,-352.82"/>
</g>
<!-- MailingFileUsage&#45;&gt;SelectedMailings -->
<g id="edge45" class="edge">
<title>MailingFileUsage&#45;&gt;SelectedMailings</title>
<path fill="none" stroke="black" d="M1718.39,-718.8C1715.64,-716.71 1712.83,-714.73 1710,-712.95 1659.68,-681.32 1596.05,-657.81 1549.47,-643.18"/>
<polygon fill="black" stroke="black" points="1550.39,-639.8 1539.8,-640.19 1548.33,-646.49 1550.39,-639.8"/>
<text text-anchor="middle" x="1697.5" y="-683.75" font-family="Times,serif" font-size="14.00">Select</text>
</g>
<!-- MailingFileUsage&#45;&gt;MailingCompose -->
<g id="edge44" class="edge">
<title>MailingFileUsage&#45;&gt;MailingCompose</title>
<path fill="none" stroke="black" d="M1765.03,-712.91C1766.26,-706.93 1767.31,-700.81 1768,-694.95 1779.78,-594.33 1794.55,-564.77 1768,-467 1756.26,-423.75 1746.68,-413.59 1717,-380 1708.9,-370.83 1699.19,-362.11 1689.45,-354.33"/>
<polygon fill="black" stroke="black" points="1691.34,-351.37 1681.29,-348.02 1687.06,-356.91 1691.34,-351.37"/>
</g>
<!-- MailingFileUsage&#45;&gt;MailingExtCompose -->
<g id="edge43" class="edge">
<title>MailingFileUsage&#45;&gt;MailingExtCompose</title>
<path fill="none" stroke="black" d="M1751.44,-712.94C1748.21,-678.37 1741.01,-628.12 1725,-587 1683.88,-481.37 1665.85,-449.11 1576,-380 1552.88,-362.22 1523.55,-348.21 1498.8,-338.31"/>
<polygon fill="black" stroke="black" points="1499.8,-334.94 1489.21,-334.58 1497.26,-341.47 1499.8,-334.94"/>
</g>
<!-- MailingCompose&#45;&gt;unsentBuffer -->
<g id="edge30" class="edge">
<title>MailingCompose&#45;&gt;unsentBuffer</title>
<path fill="none" stroke="black" d="M1598.76,-305.41C1570.63,-296.55 1532.38,-285.32 1498,-278 1291.22,-233.96 1041.92,-206.43 925.66,-195.04"/>
<polygon fill="black" stroke="black" points="925.8,-191.54 915.51,-194.05 925.12,-198.51 925.8,-191.54"/>
</g>
<!-- MailingExtCompose&#45;&gt;unsentBuffer -->
<g id="edge29" class="edge">
<title>MailingExtCompose&#45;&gt;unsentBuffer</title>
<path fill="none" stroke="black" d="M1406.65,-309.86C1306.6,-287.74 1050.66,-231.15 927.8,-203.99"/>
<polygon fill="black" stroke="black" points="928.28,-200.51 917.76,-201.77 926.77,-207.35 928.28,-200.51"/>
</g>
<!-- unsentBuffer&#45;&gt;CustomizeFile -->
<g id="edge17" class="edge">
<title>unsentBuffer&#45;&gt;CustomizeFile</title>
<path fill="none" stroke="black" d="M800.11,-170.02C717.01,-146.47 565.25,-103.45 461.58,-74.06"/>
<polygon fill="black" stroke="black" points="799.33,-173.44 809.9,-172.8 801.23,-166.7 799.33,-173.44"/>
<text text-anchor="middle" x="635" y="-105.8" font-family="Times,serif" font-size="14.00">Execute</text>
</g>
<!-- ResidentMTA -->
<g id="node34" class="node">
<title>ResidentMTA</title>
<polygon fill="cyan" stroke="black" points="896.5,-78 811.5,-78 811.5,-6 896.5,-6 908.5,-42 896.5,-78"/>
<text text-anchor="middle" x="860" y="-52.8" font-family="Times,serif" font-size="14.00">Resident</text>
<text text-anchor="middle" x="860" y="-37.8" font-family="Times,serif" font-size="14.00">MTA</text>
<text text-anchor="middle" x="860" y="-22.8" font-family="Times,serif" font-size="14.00">(MARMEE)</text>
<text text-anchor="middle" x="860" y="-7.8" font-family="Times,serif" font-size="14.00"> </text>
</g>
<!-- unsentBuffer&#45;&gt;ResidentMTA -->
<g id="edge52" class="edge">
<title>unsentBuffer&#45;&gt;ResidentMTA</title>
<path fill="none" stroke="black" d="M860,-134.61C860,-121.53 860,-107.53 860,-94.5"/>
<polygon fill="black" stroke="black" points="863.5,-94.3 860,-84.3 856.5,-94.3 863.5,-94.3"/>
<text text-anchor="middle" x="880.5" y="-105.8" font-family="Times,serif" font-size="14.00">Inject</text>
</g>
<!-- MailSnippets -->
<g id="node35" class="node">
<title>MailSnippets</title>
<polygon fill="#d4d4d4" stroke="black" points="982,-347 888,-347 888,-293 982,-293 982,-347"/>
<text text-anchor="middle" x="935" y="-315.8" font-family="Times,serif" font-size="14.00">Mail</text>
<text text-anchor="middle" x="935" y="-300.8" font-family="Times,serif" font-size="14.00">Yasnippets</text>
</g>
<!-- MailSnippets&#45;&gt;unsentBuffer -->
<g id="edge53" class="edge">
<title>MailSnippets&#45;&gt;unsentBuffer</title>
<path fill="none" stroke="black" d="M919.82,-292.69C912.67,-280.29 903.81,-264.93 895.12,-249.87"/>
<polygon fill="black" stroke="black" points="898.06,-247.97 890.03,-241.06 892,-251.47 898.06,-247.97"/>
</g>
</g>
</svg>
